<svg width="29" height="21" viewBox="0 0 29 21" fill="none" xmlns="http://www.w3.org/2000/svg">
<path d="M11.543 8.48047L10.293 9.10547V9.73047L15.293 12.8555L27.168 7.85547L27.793 6.60547L26.543 5.98047L23.418 7.23047L22.793 6.60547L16.543 4.73047H15.293L14.668 5.35547L20.293 8.48047L15.293 10.3555L11.543 8.48047Z" fill="#F1D0F6"/>
<path d="M27.9925 6.28549C27.9115 6.0888 27.7922 5.91035 27.6417 5.7606C27.4912 5.61086 27.3124 5.49285 27.1159 5.41348C26.9194 5.33411 26.7092 5.29498 26.4974 5.29839C26.2857 5.30181 26.0768 5.34769 25.8829 5.43336L23.5829 6.45304L16.1496 3.94453C16.0389 3.90391 15.9175 3.90391 15.8067 3.94453L14.0687 4.71049C13.9857 4.74682 13.9148 4.80615 13.8642 4.88153C13.8136 4.95691 13.7854 5.04522 13.7829 5.13613C13.7804 5.22703 13.8037 5.31678 13.8501 5.39485C13.8965 5.47292 13.964 5.5361 14.0448 5.57698L19.3306 8.30091L15.3401 10.0674L11.5925 8.25783C11.5298 8.22866 11.4615 8.21356 11.3925 8.21356C11.3234 8.21356 11.2551 8.22866 11.1925 8.25783L9.73056 8.91847C9.65344 8.9524 9.58665 9.00628 9.53699 9.07462C9.48733 9.14295 9.45658 9.2233 9.44787 9.30748C9.43916 9.39165 9.4528 9.47664 9.4874 9.55379C9.522 9.63094 9.57633 9.69749 9.64484 9.74666L14.8306 13.4663C14.8998 13.5133 14.9795 13.5423 15.0627 13.5506C15.1458 13.559 15.2296 13.5465 15.3068 13.5142L27.2115 8.24825C27.5644 8.08099 27.8412 7.78552 27.9861 7.42133C28.131 7.05715 28.1333 6.65129 27.9925 6.28549ZM27.102 7.04666C27.0756 7.11746 27.0356 7.18228 26.9841 7.23734C26.9325 7.29241 26.8707 7.33662 26.802 7.3674L15.1639 12.5089L10.8782 9.45942L11.3544 9.23921L15.102 11.0488C15.1677 11.0743 15.2366 11.0904 15.3068 11.0967C15.3727 11.089 15.438 11.0762 15.502 11.0584L20.6067 8.79879C20.6623 8.76928 20.7136 8.73223 20.7591 8.68868C20.8102 8.63469 20.8481 8.56946 20.8697 8.49818C20.8913 8.42689 20.896 8.35153 20.8835 8.27808C20.871 8.20463 20.8417 8.13512 20.7977 8.07509C20.7538 8.01506 20.6966 7.96616 20.6306 7.9323L15.3448 5.20836L16.002 4.91634L23.4306 7.41049C23.5507 7.4412 23.6774 7.43282 23.7925 7.38655L26.2639 6.28549C26.3717 6.23205 26.4928 6.21209 26.6119 6.22817C26.731 6.24425 26.8426 6.29563 26.9326 6.37576C27.0225 6.45589 27.0866 6.56114 27.1168 6.67807C27.147 6.795 27.1418 6.91832 27.102 7.0323V7.04666Z" fill="#111111"/>
<path d="M25.2628 10.3663C25.2003 10.3631 25.1377 10.3723 25.0787 10.3934C25.0197 10.4145 24.9654 10.4471 24.919 10.4894C24.8725 10.5316 24.8348 10.5827 24.808 10.6396C24.7813 10.6965 24.7659 10.7582 24.7628 10.8211C24.2819 19.7684 12.6867 22.679 7.99618 15.2157C8.94856 15.0817 12.4676 13.5833 11.6105 12.6354C11.5212 12.5463 11.4006 12.4962 11.2747 12.4962C11.1489 12.4962 11.0283 12.5463 10.939 12.6354C9.9908 13.5301 8.79874 14.1201 7.51523 14.3301C2.9057 4.095 16.5105 -3.89968 23.1581 5.15298C23.2301 5.25772 23.3405 5.32943 23.4651 5.35233C23.5897 5.37522 23.7182 5.34742 23.8224 5.27505C23.9266 5.20268 23.9979 5.09167 24.0207 4.96643C24.0434 4.84119 24.0158 4.71198 23.9438 4.60723C16.7105 -5.25926 1.8438 3.18542 6.52475 14.4833C2.71523 14.9189 -1.36573 11.8503 4.0438 9.945C4.10352 9.92614 4.15896 9.89564 4.20695 9.85524C4.25495 9.81484 4.29456 9.76533 4.32352 9.70954C4.35248 9.65375 4.37023 9.59277 4.37575 9.53009C4.38128 9.4674 4.37446 9.40424 4.3557 9.3442C4.33694 9.28416 4.3066 9.22843 4.26642 9.18018C4.22623 9.13193 4.17698 9.09211 4.12149 9.06299C4.066 9.03387 4.00534 9.01603 3.94299 9.01048C3.88063 9.00493 3.8178 9.01178 3.75808 9.03064C2.2438 9.50936 1.15808 10.2945 0.70094 11.2471C-0.570489 14.5982 4.51046 15.8237 6.99142 15.3929C11.9676 24.0003 25.1295 20.9508 25.7105 10.8689C25.717 10.7427 25.6736 10.619 25.5897 10.5249C25.5058 10.4307 25.3883 10.3737 25.2628 10.3663Z" fill="#111111"/>
</svg>
