<svg width="32" height="32" viewBox="0 0 32 32" fill="none" xmlns="http://www.w3.org/2000/svg">
<path d="M19.634 24.3846V25.3077C19.634 26.287 19.2512 27.2261 18.5698 27.9185C17.8884 28.611 16.9643 29 16.0007 29C15.0371 29 14.1129 28.611 13.4316 27.9185C12.7502 27.2261 12.3674 26.287 12.3674 25.3077V24.3846M25.747 22.5056C24.2891 20.6923 23.2599 19.7692 23.2599 14.7702C23.2599 10.1923 20.9595 8.56135 19.0663 7.76923C18.8148 7.66423 18.578 7.42308 18.5014 7.16058C18.1693 6.01192 17.2383 5 16.0007 5C14.7631 5 13.8315 6.0125 13.5028 7.16173C13.4262 7.42712 13.1894 7.66423 12.9379 7.76923C11.0424 8.5625 8.74433 10.1877 8.74433 14.7702C8.74149 19.7692 7.71225 20.6923 6.2544 22.5056C5.65036 23.2567 6.17946 24.3846 7.23595 24.3846H24.7711C25.8219 24.3846 26.3476 23.2533 25.747 22.5056Z" stroke="#111111" stroke-width="1.75" stroke-linecap="round" stroke-linejoin="round"/>
</svg>
