<svg width="22" height="22" viewBox="0 0 22 22" fill="none" xmlns="http://www.w3.org/2000/svg">
<path fill-rule="evenodd" clip-rule="evenodd" d="M6.20156 0.599609C6.41374 0.599609 6.61722 0.683895 6.76725 0.833924C6.91728 0.983953 7.00156 1.18744 7.00156 1.39961V2.19961H15.0016V1.39961C15.0016 1.18744 15.0858 0.983953 15.2359 0.833924C15.3859 0.683895 15.5894 0.599609 15.8016 0.599609C16.0137 0.599609 16.2172 0.683895 16.3672 0.833924C16.5173 0.983953 16.6016 1.18744 16.6016 1.39961V2.19961H19.0016C19.6381 2.19961 20.2485 2.45247 20.6986 2.90255C21.1487 3.35264 21.4016 3.96309 21.4016 4.59961V18.9996C21.4016 19.6361 21.1487 20.2466 20.6986 20.6967C20.2485 21.1468 19.6381 21.3996 19.0016 21.3996H3.00156C2.36504 21.3996 1.75459 21.1468 1.30451 20.6967C0.854419 20.2466 0.601563 19.6361 0.601562 18.9996V4.59961C0.601563 3.96309 0.854419 3.35264 1.30451 2.90255C1.75459 2.45247 2.36504 2.19961 3.00156 2.19961H5.40156V1.39961C5.40156 1.18744 5.48585 0.983953 5.63588 0.833924C5.78591 0.683895 5.98939 0.599609 6.20156 0.599609ZM15.0016 3.79961V4.59961C15.0016 4.81178 15.0858 5.01527 15.2359 5.1653C15.3859 5.31532 15.5894 5.39961 15.8016 5.39961C16.0137 5.39961 16.2172 5.31532 16.3672 5.1653C16.5173 5.01527 16.6016 4.81178 16.6016 4.59961V3.79961H19.0016C19.2137 3.79961 19.4172 3.8839 19.5672 4.03392C19.7173 4.18395 19.8016 4.38744 19.8016 4.59961V6.99961H2.20156V4.59961C2.20156 4.38744 2.28585 4.18395 2.43588 4.03392C2.58591 3.8839 2.78939 3.79961 3.00156 3.79961H5.40156V4.59961C5.40156 4.81178 5.48585 5.01527 5.63588 5.1653C5.78591 5.31532 5.98939 5.39961 6.20156 5.39961C6.41374 5.39961 6.61722 5.31532 6.76725 5.1653C6.91728 5.01527 7.00156 4.81178 7.00156 4.59961V3.79961H15.0016ZM2.20156 8.59961V18.9996C2.20156 19.2118 2.28585 19.4153 2.43588 19.5653C2.58591 19.7153 2.78939 19.7996 3.00156 19.7996H19.0016C19.2137 19.7996 19.4172 19.7153 19.5672 19.5653C19.7173 19.4153 19.8016 19.2118 19.8016 18.9996V8.59961H2.20156ZM10.2016 10.9996C10.2016 10.7874 10.2858 10.584 10.4359 10.4339C10.5859 10.2839 10.7894 10.1996 11.0016 10.1996C11.2137 10.1996 11.4172 10.2839 11.5672 10.4339C11.7173 10.584 11.8016 10.7874 11.8016 10.9996C11.8016 11.2118 11.7173 11.4153 11.5672 11.5653C11.4172 11.7153 11.2137 11.7996 11.0016 11.7996C10.7894 11.7996 10.5859 11.7153 10.4359 11.5653C10.2858 11.4153 10.2016 11.2118 10.2016 10.9996ZM14.2016 10.1996C13.9894 10.1996 13.7859 10.2839 13.6359 10.4339C13.4858 10.584 13.4016 10.7874 13.4016 10.9996C13.4016 11.2118 13.4858 11.4153 13.6359 11.5653C13.7859 11.7153 13.9894 11.7996 14.2016 11.7996C14.4137 11.7996 14.6172 11.7153 14.7673 11.5653C14.9173 11.4153 15.0016 11.2118 15.0016 10.9996C15.0016 10.7874 14.9173 10.584 14.7673 10.4339C14.6172 10.2839 14.4137 10.1996 14.2016 10.1996ZM16.6016 10.9996C16.6016 10.7874 16.6858 10.584 16.8359 10.4339C16.9859 10.2839 17.1894 10.1996 17.4016 10.1996C17.6137 10.1996 17.8172 10.2839 17.9673 10.4339C18.1173 10.584 18.2016 10.7874 18.2016 10.9996C18.2016 11.2118 18.1173 11.4153 17.9673 11.5653C17.8172 11.7153 17.6137 11.7996 17.4016 11.7996C17.1894 11.7996 16.9859 11.7153 16.8359 11.5653C16.6858 11.4153 16.6016 11.2118 16.6016 10.9996ZM17.4016 13.3996C17.1894 13.3996 16.9859 13.4839 16.8359 13.6339C16.6858 13.784 16.6016 13.9874 16.6016 14.1996C16.6016 14.4118 16.6858 14.6153 16.8359 14.7653C16.9859 14.9153 17.1894 14.9996 17.4016 14.9996C17.6137 14.9996 17.8172 14.9153 17.9673 14.7653C18.1173 14.6153 18.2016 14.4118 18.2016 14.1996C18.2016 13.9874 18.1173 13.784 17.9673 13.6339C17.8172 13.4839 17.6137 13.3996 17.4016 13.3996ZM13.4016 14.1996C13.4016 13.9874 13.4858 13.784 13.6359 13.6339C13.7859 13.4839 13.9894 13.3996 14.2016 13.3996C14.4137 13.3996 14.6172 13.4839 14.7673 13.6339C14.9173 13.784 15.0016 13.9874 15.0016 14.1996C15.0016 14.4118 14.9173 14.6153 14.7673 14.7653C14.6172 14.9153 14.4137 14.9996 14.2016 14.9996C13.9894 14.9996 13.7859 14.9153 13.6359 14.7653C13.4858 14.6153 13.4016 14.4118 13.4016 14.1996ZM11.0016 13.3996C10.7894 13.3996 10.5859 13.4839 10.4359 13.6339C10.2858 13.784 10.2016 13.9874 10.2016 14.1996C10.2016 14.4118 10.2858 14.6153 10.4359 14.7653C10.5859 14.9153 10.7894 14.9996 11.0016 14.9996C11.2137 14.9996 11.4172 14.9153 11.5672 14.7653C11.7173 14.6153 11.8016 14.4118 11.8016 14.1996C11.8016 13.9874 11.7173 13.784 11.5672 13.6339C11.4172 13.4839 11.2137 13.3996 11.0016 13.3996ZM7.00156 14.1996C7.00156 13.9874 7.08585 13.784 7.23588 13.6339C7.38591 13.4839 7.58939 13.3996 7.80156 13.3996C8.01374 13.3996 8.21722 13.4839 8.36725 13.6339C8.51728 13.784 8.60156 13.9874 8.60156 14.1996C8.60156 14.4118 8.51728 14.6153 8.36725 14.7653C8.21722 14.9153 8.01374 14.9996 7.80156 14.9996C7.58939 14.9996 7.38591 14.9153 7.23588 14.7653C7.08585 14.6153 7.00156 14.4118 7.00156 14.1996ZM4.60156 13.3996C4.38939 13.3996 4.18591 13.4839 4.03588 13.6339C3.88585 13.784 3.80156 13.9874 3.80156 14.1996C3.80156 14.4118 3.88585 14.6153 4.03588 14.7653C4.18591 14.9153 4.38939 14.9996 4.60156 14.9996C4.81374 14.9996 5.01722 14.9153 5.16725 14.7653C5.31728 14.6153 5.40156 14.4118 5.40156 14.1996C5.40156 13.9874 5.31728 13.784 5.16725 13.6339C5.01722 13.4839 4.81374 13.3996 4.60156 13.3996ZM3.80156 17.3996C3.80156 17.1874 3.88585 16.984 4.03588 16.8339C4.18591 16.6839 4.38939 16.5996 4.60156 16.5996C4.81374 16.5996 5.01722 16.6839 5.16725 16.8339C5.31728 16.984 5.40156 17.1874 5.40156 17.3996C5.40156 17.6118 5.31728 17.8153 5.16725 17.9653C5.01722 18.1153 4.81374 18.1996 4.60156 18.1996C4.38939 18.1996 4.18591 18.1153 4.03588 17.9653C3.88585 17.8153 3.80156 17.6118 3.80156 17.3996ZM7.80156 16.5996C7.58939 16.5996 7.38591 16.6839 7.23588 16.8339C7.08585 16.984 7.00156 17.1874 7.00156 17.3996C7.00156 17.6118 7.08585 17.8153 7.23588 17.9653C7.38591 18.1153 7.58939 18.1996 7.80156 18.1996C8.01374 18.1996 8.21722 18.1153 8.36725 17.9653C8.51728 17.8153 8.60156 17.6118 8.60156 17.3996C8.60156 17.1874 8.51728 16.984 8.36725 16.8339C8.21722 16.6839 8.01374 16.5996 7.80156 16.5996ZM10.2016 17.3996C10.2016 17.1874 10.2858 16.984 10.4359 16.8339C10.5859 16.6839 10.7894 16.5996 11.0016 16.5996C11.2137 16.5996 11.4172 16.6839 11.5672 16.8339C11.7173 16.984 11.8016 17.1874 11.8016 17.3996C11.8016 17.6118 11.7173 17.8153 11.5672 17.9653C11.4172 18.1153 11.2137 18.1996 11.0016 18.1996C10.7894 18.1996 10.5859 18.1153 10.4359 17.9653C10.2858 17.8153 10.2016 17.6118 10.2016 17.3996ZM14.2016 16.5996C13.9894 16.5996 13.7859 16.6839 13.6359 16.8339C13.4858 16.984 13.4016 17.1874 13.4016 17.3996C13.4016 17.6118 13.4858 17.8153 13.6359 17.9653C13.7859 18.1153 13.9894 18.1996 14.2016 18.1996C14.4137 18.1996 14.6172 18.1153 14.7673 17.9653C14.9173 17.8153 15.0016 17.6118 15.0016 17.3996C15.0016 17.1874 14.9173 16.984 14.7673 16.8339C14.6172 16.6839 14.4137 16.5996 14.2016 16.5996Z" fill="#111111"/>
</svg>
