<svg width="8" height="12" viewBox="0 0 8 12" fill="none" xmlns="http://www.w3.org/2000/svg">
<path d="M0.850205 11.6509C0.792151 11.5929 0.746096 11.5241 0.714673 11.4483C0.68325 11.3725 0.667077 11.2913 0.667077 11.2092C0.667077 11.1272 0.68325 11.046 0.714673 10.9702C0.746096 10.8944 0.792151 10.8255 0.850205 10.7676L5.61604 6.00091L0.850205 1.23425C0.792205 1.17625 0.746196 1.10739 0.714807 1.03161C0.683417 0.955826 0.667261 0.874605 0.667261 0.792579C0.667261 0.710554 0.683417 0.629333 0.714807 0.553551C0.746196 0.47777 0.792205 0.408913 0.850205 0.350913C0.908206 0.292912 0.977062 0.246904 1.05284 0.215514C1.12862 0.184125 1.20985 0.167968 1.29187 0.167968C1.3739 0.167968 1.45512 0.184125 1.5309 0.215514C1.60668 0.246904 1.67554 0.292912 1.73354 0.350913L6.94187 5.55925C6.99992 5.61722 7.04598 5.68606 7.0774 5.76185C7.10883 5.83763 7.125 5.91887 7.125 6.00091C7.125 6.08295 7.10883 6.16419 7.0774 6.23998C7.04598 6.31576 6.99992 6.38461 6.94187 6.44258L1.73354 11.6509C1.67557 11.709 1.60672 11.755 1.53094 11.7864C1.45515 11.8179 1.37391 11.834 1.29187 11.834C1.20983 11.834 1.12859 11.8179 1.05281 11.7864C0.977022 11.755 0.908176 11.709 0.850205 11.6509Z" fill="#111111"/>
</svg>
