<svg width="23" height="22" viewBox="0 0 23 22" fill="none" xmlns="http://www.w3.org/2000/svg">
<rect x="22.457" width="21.6661" height="22.4579" rx="3" transform="rotate(90 22.457 0)" fill="#F2F2F2"/>
<path d="M8.18224 16.4829C8.12418 16.425 8.07813 16.3561 8.0467 16.2803C8.01528 16.2046 7.99911 16.1233 7.99911 16.0413C7.99911 15.9592 8.01528 15.878 8.0467 15.8022C8.07813 15.7264 8.12418 15.6576 8.18224 15.5996L12.9481 10.8329L8.18224 6.06628C8.12424 6.00828 8.07823 5.93942 8.04684 5.86364C8.01545 5.78786 7.99929 5.70664 7.99929 5.62461C7.99929 5.54259 8.01545 5.46136 8.04684 5.38558C8.07823 5.3098 8.12424 5.24094 8.18224 5.18294C8.24024 5.12494 8.30909 5.07894 8.38487 5.04755C8.46066 5.01616 8.54188 5 8.6239 5C8.70593 5 8.78715 5.01616 8.86293 5.04755C8.93871 5.07894 9.00757 5.12494 9.06557 5.18294L14.2739 10.3913C14.332 10.4492 14.378 10.5181 14.4094 10.5939C14.4409 10.6697 14.457 10.7509 14.457 10.8329C14.457 10.915 14.4409 10.9962 14.4094 11.072C14.378 11.1478 14.332 11.2166 14.2739 11.2746L9.06557 16.4829C9.0076 16.541 8.93875 16.5871 8.86297 16.6185C8.78718 16.6499 8.70594 16.6661 8.6239 16.6661C8.54186 16.6661 8.46062 16.6499 8.38484 16.6185C8.30905 16.5871 8.24021 16.541 8.18224 16.4829Z" fill="#DA00FF"/>
</svg>
