<svg width="20" height="20" viewBox="0 0 20 20" fill="none" xmlns="http://www.w3.org/2000/svg">
<g clip-path="url(#clip0_2330_3318)">
<path d="M10.8946 9.99926L13.5946 7.29926C13.6856 7.19298 13.7332 7.05627 13.7278 6.91645C13.7224 6.77663 13.6644 6.644 13.5655 6.54505C13.4666 6.44611 13.3339 6.38815 13.1941 6.38275C13.0543 6.37735 12.9176 6.42491 12.8113 6.51592L10.1113 9.18815L7.39463 6.47148C7.28835 6.38046 7.15164 6.3329 7.01182 6.3383C6.872 6.34371 6.73936 6.40167 6.64042 6.50061C6.54148 6.59955 6.48352 6.73218 6.47812 6.872C6.47272 7.01182 6.52028 7.14853 6.61129 7.25481L9.3224 9.99926L6.66685 12.6215C6.60869 12.6713 6.56146 12.7326 6.52811 12.8015C6.49476 12.8704 6.47603 12.9455 6.47307 13.022C6.47011 13.0985 6.48301 13.1748 6.51094 13.2461C6.53887 13.3174 6.58123 13.3821 6.63538 13.4363C6.68952 13.4904 6.75427 13.5328 6.82556 13.5607C6.89685 13.5887 6.97314 13.6015 7.04965 13.5986C7.12617 13.5956 7.20124 13.5769 7.27016 13.5435C7.33909 13.5102 7.40038 13.463 7.45018 13.4048L10.1002 10.7548L12.7335 13.3881C12.8398 13.4792 12.9765 13.5267 13.1163 13.5213C13.2561 13.5159 13.3888 13.458 13.4877 13.359C13.5867 13.2601 13.6446 13.1274 13.65 12.9876C13.6554 12.8478 13.6079 12.7111 13.5168 12.6048L10.8946 9.99926Z" fill="black"/>
<path d="M9.99827 18.8891C8.24021 18.8891 6.52164 18.3678 5.05987 17.3911C3.5981 16.4143 2.45878 15.0261 1.78601 13.4019C1.11323 11.7776 0.937197 9.99036 1.28018 8.26609C1.62316 6.54181 2.46974 4.95796 3.71287 3.71483C4.95601 2.47169 6.53986 1.62511 8.26413 1.28213C9.98841 0.93915 11.7757 1.11518 13.3999 1.78796C15.0241 2.46074 16.4124 3.60005 17.3891 5.06182C18.3658 6.52359 18.8872 8.24217 18.8872 10.0002C18.8872 12.3577 17.9507 14.6186 16.2837 16.2856C14.6167 17.9526 12.3557 18.8891 9.99827 18.8891ZM9.99827 2.22244C8.45997 2.22244 6.95622 2.6786 5.67717 3.53324C4.39812 4.38787 3.40122 5.60259 2.81254 7.0238C2.22386 8.445 2.06983 10.0088 2.36994 11.5176C2.67005 13.0263 3.41081 14.4122 4.49855 15.4999C5.58629 16.5877 6.97216 17.3284 8.4809 17.6286C9.98964 17.9287 11.5535 17.7746 12.9747 17.186C14.3959 16.5973 15.6106 15.6004 16.4653 14.3213C17.3199 13.0423 17.776 11.5385 17.776 10.0002C17.776 7.93743 16.9566 5.95912 15.498 4.5005C14.0394 3.04189 12.0611 2.22244 9.99827 2.22244Z" fill="black"/>
</g>
<defs>
<clipPath id="clip0_2330_3318">
<rect width="20" height="20" fill="white"/>
</clipPath>
</defs>
</svg>
