<svg width="133" height="89" viewBox="0 0 133 89" fill="none" xmlns="http://www.w3.org/2000/svg">
<g clip-path="url(#clip0_2055_1044)">
<ellipse cx="49.5" cy="46" rx="45.5" ry="43" fill="#CBE6E4"/>
<path d="M64.2988 3.22852H115.361L129.783 17.611V79.8178H64.2988V3.22852Z" fill="#BDD5F0"/>
<path d="M129.784 79.9246H64.3021C64.2738 79.9246 64.2466 79.9133 64.2266 79.8932C64.2066 79.8731 64.1953 79.8459 64.1953 79.8175V3.2282C64.1953 3.19979 64.2066 3.17255 64.2266 3.15246C64.2466 3.13238 64.2738 3.1211 64.3021 3.1211H115.359C115.373 3.12101 115.387 3.12372 115.4 3.12905C115.413 3.13438 115.425 3.14223 115.435 3.15215L129.855 17.5346C129.865 17.5445 129.873 17.5563 129.878 17.5694C129.884 17.5824 129.887 17.5965 129.887 17.6106V79.8175C129.887 79.8451 129.876 79.8717 129.857 79.8917C129.838 79.9117 129.812 79.9235 129.784 79.9246ZM64.4068 79.7104H129.677V17.6556L115.318 3.3353H64.4089L64.4068 79.7104Z" fill="black" stroke="black" stroke-width="0.3"/>
<path d="M115.371 17.6328H129.742L115.371 3.22461V17.6328Z" fill="white"/>
<path d="M129.741 17.7391H115.37C115.342 17.7391 115.315 17.7278 115.295 17.7077C115.275 17.6876 115.264 17.6604 115.264 17.632V3.22384C115.264 3.20279 115.27 3.18223 115.282 3.16473C115.293 3.14723 115.31 3.13357 115.329 3.12546C115.349 3.11735 115.37 3.11514 115.391 3.11911C115.411 3.12309 115.43 3.13307 115.445 3.1478L129.816 17.557C129.831 17.572 129.841 17.591 129.845 17.6118C129.85 17.6326 129.847 17.6542 129.839 17.6738C129.831 17.6931 129.818 17.7096 129.8 17.7213C129.783 17.7329 129.762 17.7391 129.741 17.7391ZM115.477 17.5249H129.483L115.477 3.48303V17.5249Z" fill="black"/>
<path d="M67.4082 0.109375H118.47L132.892 14.4918V76.6986H67.4082V0.109375Z" fill="white"/>
<path d="M132.894 76.8067H67.4095C67.3812 76.8067 67.354 76.7954 67.334 76.7753C67.314 76.7552 67.3027 76.728 67.3027 76.6996V0.107102C67.3027 0.078697 67.314 0.0514557 67.334 0.0313706C67.354 0.0112855 67.3812 1.7901e-06 67.4095 1.7901e-06H118.472C118.486 -7.97015e-05 118.5 0.0026219 118.513 0.00795168C118.526 0.0132815 118.538 0.0211346 118.548 0.0310608L132.967 14.4135C132.977 14.4235 132.985 14.4354 132.99 14.4484C132.996 14.4615 132.999 14.4754 132.998 14.4895V76.6996C132.998 76.7276 132.987 76.7545 132.968 76.7746C132.948 76.7946 132.922 76.8061 132.894 76.8067ZM67.5164 76.5925H132.787V14.5377L118.428 0.214202H67.5164V76.5925Z" fill="black" stroke="black" stroke-width="0.3"/>
<path d="M118.48 14.5156H132.851L118.48 0.107422V14.5156Z" fill="white"/>
<path d="M132.851 14.6219H118.48C118.452 14.6219 118.424 14.6106 118.404 14.5905C118.384 14.5704 118.373 14.5432 118.373 14.5148V0.106657C118.373 0.0856038 118.379 0.065043 118.391 0.0475447C118.403 0.0300464 118.419 0.0163867 118.439 0.00827294C118.458 0.000159191 118.479 -0.00204871 118.5 0.0019252C118.521 0.00589911 118.54 0.0158785 118.555 0.0306162L132.926 14.4388C132.941 14.4538 132.951 14.4729 132.955 14.4937C132.959 14.5145 132.957 14.536 132.949 14.5555C132.941 14.5751 132.927 14.5918 132.91 14.6036C132.892 14.6154 132.872 14.6218 132.851 14.6219ZM118.587 14.4077H132.592L118.587 0.364768V14.4077Z" fill="black" stroke="black" stroke-width="0.3"/>
<path d="M123.175 35.7962H108.8C108.772 35.7962 108.745 35.7849 108.725 35.7649C108.705 35.7448 108.693 35.7175 108.693 35.6891C108.693 35.6607 108.705 35.6335 108.725 35.6134C108.745 35.5933 108.772 35.582 108.8 35.582H123.175C123.203 35.582 123.231 35.5933 123.251 35.6134C123.271 35.6335 123.282 35.6607 123.282 35.6891C123.282 35.7175 123.271 35.7448 123.251 35.7649C123.231 35.7849 123.203 35.7962 123.175 35.7962Z" fill="black"/>
<path d="M106.03 35.7962H92.1967C92.1683 35.7962 92.1412 35.7849 92.1211 35.7649C92.1011 35.7448 92.0898 35.7175 92.0898 35.6891C92.0898 35.6607 92.1011 35.6335 92.1211 35.6134C92.1412 35.5933 92.1683 35.582 92.1967 35.582H106.03C106.058 35.582 106.086 35.5933 106.106 35.6134C106.126 35.6335 106.137 35.6607 106.137 35.6891C106.137 35.7175 106.126 35.7448 106.106 35.7649C106.086 35.7849 106.058 35.7962 106.03 35.7962Z" fill="black"/>
<path d="M89.4262 35.7962H79.7435C79.7152 35.7962 79.688 35.7849 79.668 35.7649C79.648 35.7448 79.6367 35.7175 79.6367 35.6891C79.6367 35.6607 79.648 35.6335 79.668 35.6134C79.688 35.5933 79.7152 35.582 79.7435 35.582H89.4262C89.4545 35.582 89.4817 35.5933 89.5017 35.6134C89.5217 35.6335 89.533 35.6607 89.533 35.6891C89.533 35.7175 89.5217 35.7448 89.5017 35.7649C89.4817 35.7849 89.4545 35.7962 89.4262 35.7962Z" fill="black"/>
<path d="M120.404 38.5736H114.931C114.903 38.5736 114.876 38.5623 114.855 38.5422C114.835 38.5221 114.824 38.4949 114.824 38.4665C114.824 38.4381 114.835 38.4108 114.855 38.3907C114.876 38.3707 114.903 38.3594 114.931 38.3594H120.4C120.428 38.3594 120.455 38.3707 120.475 38.3907C120.495 38.4108 120.507 38.4381 120.507 38.4665C120.507 38.4949 120.495 38.5221 120.475 38.5422C120.455 38.5623 120.428 38.5736 120.4 38.5736H120.404Z" fill="black"/>
<path d="M112.166 38.5736H88.4662C88.4379 38.5736 88.4107 38.5623 88.3907 38.5422C88.3706 38.5221 88.3594 38.4949 88.3594 38.4665C88.3594 38.4381 88.3706 38.4108 88.3907 38.3907C88.4107 38.3707 88.4379 38.3594 88.4662 38.3594H112.166C112.194 38.3594 112.221 38.3707 112.242 38.3907C112.262 38.4108 112.273 38.4381 112.273 38.4665C112.273 38.4949 112.262 38.5221 112.242 38.5422C112.221 38.5623 112.194 38.5736 112.166 38.5736Z" fill="black"/>
<path d="M85.6964 38.5736H76.974C76.9457 38.5736 76.9185 38.5623 76.8985 38.5422C76.8784 38.5221 76.8672 38.4949 76.8672 38.4665C76.8672 38.4381 76.8784 38.4108 76.8985 38.3907C76.9185 38.3707 76.9457 38.3594 76.974 38.3594H85.6964C85.7247 38.3594 85.7519 38.3707 85.7719 38.3907C85.792 38.4108 85.8032 38.4381 85.8032 38.4665C85.8032 38.4949 85.792 38.5221 85.7719 38.5422C85.7519 38.5623 85.7247 38.5736 85.6964 38.5736Z" fill="black"/>
<path d="M123.174 41.3509H100.136C100.108 41.3509 100.081 41.3396 100.061 41.3195C100.041 41.2995 100.029 41.2722 100.029 41.2438C100.029 41.2154 100.041 41.1882 100.061 41.1681C100.081 41.148 100.108 41.1367 100.136 41.1367H123.174C123.202 41.1367 123.229 41.148 123.249 41.1681C123.269 41.1882 123.28 41.2154 123.28 41.2438C123.28 41.2722 123.269 41.2995 123.249 41.3195C123.229 41.3396 123.202 41.3509 123.174 41.3509Z" fill="black"/>
<path d="M97.3668 41.3509H76.974C76.9457 41.3509 76.9185 41.3396 76.8985 41.3195C76.8784 41.2995 76.8672 41.2722 76.8672 41.2438C76.8672 41.2154 76.8784 41.1882 76.8985 41.1681C76.9185 41.148 76.9457 41.1367 76.974 41.1367H97.3668C97.3952 41.1367 97.4223 41.148 97.4424 41.1681C97.4624 41.1882 97.4737 41.2154 97.4737 41.2438C97.4737 41.2722 97.4624 41.2995 97.4424 41.3195C97.4223 41.3396 97.3952 41.3509 97.3668 41.3509Z" fill="black"/>
<path d="M123.174 44.1244H104.708C104.68 44.1244 104.653 44.1131 104.633 44.093C104.613 44.0729 104.602 44.0457 104.602 44.0173C104.602 43.9889 104.613 43.9616 104.633 43.9415C104.653 43.9214 104.68 43.9102 104.708 43.9102H123.174C123.203 43.9102 123.23 43.9214 123.25 43.9415C123.27 43.9616 123.281 43.9889 123.281 44.0173C123.281 44.0457 123.27 44.0729 123.25 44.093C123.23 44.1131 123.203 44.1244 123.174 44.1244Z" fill="black"/>
<path d="M101.939 44.1244H89.5482C89.5199 44.1244 89.4927 44.1131 89.4727 44.093C89.4527 44.0729 89.4414 44.0457 89.4414 44.0173C89.4414 43.9889 89.4527 43.9616 89.4727 43.9415C89.4927 43.9214 89.5199 43.9102 89.5482 43.9102H101.939C101.967 43.9102 101.994 43.9214 102.014 43.9415C102.034 43.9616 102.045 43.9889 102.045 44.0173C102.045 44.0457 102.034 44.0729 102.014 44.093C101.994 44.1131 101.967 44.1244 101.939 44.1244Z" fill="black"/>
<path d="M86.7795 44.1244H76.974C76.9457 44.1244 76.9185 44.1131 76.8985 44.093C76.8784 44.0729 76.8672 44.0457 76.8672 44.0173C76.8672 43.9889 76.8784 43.9616 76.8985 43.9415C76.9185 43.9214 76.9457 43.9102 76.974 43.9102H86.7795C86.8078 43.9102 86.835 43.9214 86.855 43.9415C86.875 43.9616 86.8863 43.9889 86.8863 44.0173C86.8863 44.0457 86.875 44.0729 86.855 44.093C86.835 44.1131 86.8078 44.1244 86.7795 44.1244Z" fill="black"/>
<path d="M123.175 19.4915H108.8C108.772 19.4915 108.745 19.4803 108.725 19.4602C108.705 19.4401 108.693 19.4128 108.693 19.3844C108.693 19.356 108.705 19.3288 108.725 19.3087C108.745 19.2886 108.772 19.2773 108.8 19.2773H123.175C123.203 19.2773 123.231 19.2886 123.251 19.3087C123.271 19.3288 123.282 19.356 123.282 19.3844C123.282 19.4128 123.271 19.4401 123.251 19.4602C123.231 19.4803 123.203 19.4915 123.175 19.4915Z" fill="black"/>
<path d="M106.03 19.4915H92.1967C92.1683 19.4915 92.1412 19.4803 92.1211 19.4602C92.1011 19.4401 92.0898 19.4128 92.0898 19.3844C92.0898 19.356 92.1011 19.3288 92.1211 19.3087C92.1412 19.2886 92.1683 19.2773 92.1967 19.2773H106.03C106.058 19.2773 106.086 19.2886 106.106 19.3087C106.126 19.3288 106.137 19.356 106.137 19.3844C106.137 19.4128 106.126 19.4401 106.106 19.4602C106.086 19.4803 106.058 19.4915 106.03 19.4915Z" fill="black"/>
<path d="M89.4262 19.4915H79.7435C79.7152 19.4915 79.688 19.4803 79.668 19.4602C79.648 19.4401 79.6367 19.4128 79.6367 19.3844C79.6367 19.356 79.648 19.3288 79.668 19.3087C79.688 19.2886 79.7152 19.2773 79.7435 19.2773H89.4262C89.4545 19.2773 89.4817 19.2886 89.5017 19.3087C89.5217 19.3288 89.533 19.356 89.533 19.3844C89.533 19.4128 89.5217 19.4401 89.5017 19.4602C89.4817 19.4803 89.4545 19.4915 89.4262 19.4915Z" fill="black"/>
<path d="M120.404 22.2708H114.931C114.903 22.2708 114.876 22.2596 114.855 22.2395C114.835 22.2194 114.824 22.1921 114.824 22.1637C114.824 22.1353 114.835 22.1081 114.855 22.088C114.876 22.0679 114.903 22.0566 114.931 22.0566H120.4C120.428 22.0566 120.455 22.0679 120.475 22.088C120.495 22.1081 120.507 22.1353 120.507 22.1637C120.507 22.1921 120.495 22.2194 120.475 22.2395C120.455 22.2596 120.428 22.2708 120.4 22.2708H120.404Z" fill="black"/>
<path d="M112.166 22.2708H88.4662C88.4379 22.2708 88.4107 22.2596 88.3907 22.2395C88.3706 22.2194 88.3594 22.1921 88.3594 22.1637C88.3594 22.1353 88.3706 22.1081 88.3907 22.088C88.4107 22.0679 88.4379 22.0566 88.4662 22.0566H112.166C112.194 22.0566 112.221 22.0679 112.242 22.088C112.262 22.1081 112.273 22.1353 112.273 22.1637C112.273 22.1921 112.262 22.2194 112.242 22.2395C112.221 22.2596 112.194 22.2708 112.166 22.2708Z" fill="black"/>
<path d="M85.6964 22.2708H76.974C76.9457 22.2708 76.9185 22.2596 76.8985 22.2395C76.8784 22.2194 76.8672 22.1921 76.8672 22.1637C76.8672 22.1353 76.8784 22.1081 76.8985 22.088C76.9185 22.0679 76.9457 22.0566 76.974 22.0566H85.6964C85.7247 22.0566 85.7519 22.0679 85.7719 22.088C85.792 22.1081 85.8032 22.1353 85.8032 22.1637C85.8032 22.1921 85.792 22.2194 85.7719 22.2395C85.7519 22.2596 85.7247 22.2708 85.6964 22.2708Z" fill="black"/>
<path d="M123.174 25.0482H100.136C100.108 25.0482 100.081 25.0369 100.061 25.0168C100.041 24.9967 100.029 24.9695 100.029 24.9411C100.029 24.9127 100.041 24.8854 100.061 24.8654C100.081 24.8453 100.108 24.834 100.136 24.834H123.174C123.202 24.834 123.229 24.8453 123.249 24.8654C123.269 24.8854 123.28 24.9127 123.28 24.9411C123.28 24.9695 123.269 24.9967 123.249 25.0168C123.229 25.0369 123.202 25.0482 123.174 25.0482Z" fill="black"/>
<path d="M97.3668 25.0482H76.974C76.9457 25.0482 76.9185 25.0369 76.8985 25.0168C76.8784 24.9967 76.8672 24.9695 76.8672 24.9411C76.8672 24.9127 76.8784 24.8854 76.8985 24.8654C76.9185 24.8453 76.9457 24.834 76.974 24.834H97.3668C97.3952 24.834 97.4223 24.8453 97.4424 24.8654C97.4624 24.8854 97.4737 24.9127 97.4737 24.9411C97.4737 24.9695 97.4624 24.9967 97.4424 25.0168C97.4223 25.0369 97.3952 25.0482 97.3668 25.0482Z" fill="black"/>
<path d="M123.174 27.8236H104.708C104.68 27.8236 104.653 27.8123 104.633 27.7922C104.613 27.7721 104.602 27.7449 104.602 27.7165C104.602 27.6881 104.613 27.6608 104.633 27.6407C104.653 27.6207 104.68 27.6094 104.708 27.6094H123.174C123.203 27.6094 123.23 27.6207 123.25 27.6407C123.27 27.6608 123.281 27.6881 123.281 27.7165C123.281 27.7449 123.27 27.7721 123.25 27.7922C123.23 27.8123 123.203 27.8236 123.174 27.8236Z" fill="black"/>
<path d="M101.939 27.8236H89.5482C89.5199 27.8236 89.4927 27.8123 89.4727 27.7922C89.4527 27.7721 89.4414 27.7449 89.4414 27.7165C89.4414 27.6881 89.4527 27.6608 89.4727 27.6407C89.4927 27.6207 89.5199 27.6094 89.5482 27.6094H101.939C101.967 27.6094 101.994 27.6207 102.014 27.6407C102.034 27.6608 102.045 27.6881 102.045 27.7165C102.045 27.7449 102.034 27.7721 102.014 27.7922C101.994 27.8123 101.967 27.8236 101.939 27.8236Z" fill="black"/>
<path d="M86.7795 27.8236H76.974C76.9457 27.8236 76.9185 27.8123 76.8985 27.7922C76.8784 27.7721 76.8672 27.7449 76.8672 27.7165C76.8672 27.6881 76.8784 27.6608 76.8985 27.6407C76.9185 27.6207 76.9457 27.6094 76.974 27.6094H86.7795C86.8078 27.6094 86.835 27.6207 86.855 27.6407C86.875 27.6608 86.8863 27.6881 86.8863 27.7165C86.8863 27.7449 86.875 27.7721 86.855 27.7922C86.835 27.8123 86.8078 27.8236 86.7795 27.8236Z" fill="black"/>
<path d="M106.557 30.6009H95.806C95.7777 30.6009 95.7505 30.5896 95.7305 30.5695C95.7105 30.5495 95.6992 30.5222 95.6992 30.4938C95.6992 30.4654 95.7105 30.4382 95.7305 30.4181C95.7505 30.398 95.7777 30.3867 95.806 30.3867H106.557C106.585 30.3867 106.612 30.398 106.632 30.4181C106.652 30.4382 106.664 30.4654 106.664 30.4938C106.664 30.5222 106.652 30.5495 106.632 30.5695C106.612 30.5896 106.585 30.6009 106.557 30.6009Z" fill="black"/>
<path d="M93.0345 30.6009H76.974C76.9457 30.6009 76.9185 30.5896 76.8985 30.5695C76.8784 30.5495 76.8672 30.5222 76.8672 30.4938C76.8672 30.4654 76.8784 30.4382 76.8985 30.4181C76.9185 30.398 76.9457 30.3867 76.974 30.3867H93.0345C93.0628 30.3867 93.09 30.398 93.11 30.4181C93.13 30.4382 93.1413 30.4654 93.1413 30.4938C93.1413 30.5222 93.13 30.5495 93.11 30.5695C93.09 30.5896 93.0628 30.6009 93.0345 30.6009Z" fill="black"/>
<path d="M123.175 49.3255H108.8C108.772 49.3255 108.745 49.3142 108.725 49.2942C108.705 49.2741 108.693 49.2468 108.693 49.2184C108.693 49.19 108.705 49.1628 108.725 49.1427C108.745 49.1226 108.772 49.1113 108.8 49.1113H123.175C123.203 49.1113 123.231 49.1226 123.251 49.1427C123.271 49.1628 123.282 49.19 123.282 49.2184C123.282 49.2468 123.271 49.2741 123.251 49.2942C123.231 49.3142 123.203 49.3255 123.175 49.3255Z" fill="black"/>
<path d="M106.03 49.3255H92.1967C92.1683 49.3255 92.1412 49.3142 92.1211 49.2942C92.1011 49.2741 92.0898 49.2468 92.0898 49.2184C92.0898 49.19 92.1011 49.1628 92.1211 49.1427C92.1412 49.1226 92.1683 49.1113 92.1967 49.1113H106.03C106.058 49.1113 106.086 49.1226 106.106 49.1427C106.126 49.1628 106.137 49.19 106.137 49.2184C106.137 49.2468 106.126 49.2741 106.106 49.2942C106.086 49.3142 106.058 49.3255 106.03 49.3255Z" fill="black"/>
<path d="M89.4262 49.3255H79.7435C79.7152 49.3255 79.688 49.3142 79.668 49.2942C79.648 49.2741 79.6367 49.2468 79.6367 49.2184C79.6367 49.19 79.648 49.1628 79.668 49.1427C79.688 49.1226 79.7152 49.1113 79.7435 49.1113H89.4262C89.4545 49.1113 89.4817 49.1226 89.5017 49.1427C89.5217 49.1628 89.533 49.19 89.533 49.2184C89.533 49.2468 89.5217 49.2741 89.5017 49.2942C89.4817 49.3142 89.4545 49.3255 89.4262 49.3255Z" fill="black"/>
<path d="M120.404 52.1029H114.931C114.903 52.1029 114.876 52.0916 114.855 52.0715C114.835 52.0514 114.824 52.0242 114.824 51.9958C114.824 51.9674 114.835 51.9401 114.855 51.92C114.876 51.9 114.903 51.8887 114.931 51.8887H120.4C120.428 51.8887 120.455 51.9 120.475 51.92C120.495 51.9401 120.507 51.9674 120.507 51.9958C120.507 52.0242 120.495 52.0514 120.475 52.0715C120.455 52.0916 120.428 52.1029 120.4 52.1029H120.404Z" fill="black"/>
<path d="M112.166 52.1029H88.4662C88.4379 52.1029 88.4107 52.0916 88.3907 52.0715C88.3706 52.0514 88.3594 52.0242 88.3594 51.9958C88.3594 51.9674 88.3706 51.9401 88.3907 51.92C88.4107 51.9 88.4379 51.8887 88.4662 51.8887H112.166C112.194 51.8887 112.221 51.9 112.242 51.92C112.262 51.9401 112.273 51.9674 112.273 51.9958C112.273 52.0242 112.262 52.0514 112.242 52.0715C112.221 52.0916 112.194 52.1029 112.166 52.1029Z" fill="black"/>
<path d="M85.6964 52.1029H76.974C76.9457 52.1029 76.9185 52.0916 76.8985 52.0715C76.8784 52.0514 76.8672 52.0242 76.8672 51.9958C76.8672 51.9674 76.8784 51.9401 76.8985 51.92C76.9185 51.9 76.9457 51.8887 76.974 51.8887H85.6964C85.7247 51.8887 85.7519 51.9 85.7719 51.92C85.792 51.9401 85.8032 51.9674 85.8032 51.9958C85.8032 52.0242 85.792 52.0514 85.7719 52.0715C85.7519 52.0916 85.7247 52.1029 85.6964 52.1029Z" fill="black"/>
<path d="M123.174 54.8783H100.136C100.108 54.8783 100.081 54.867 100.061 54.8469C100.041 54.8268 100.029 54.7996 100.029 54.7712C100.029 54.7428 100.041 54.7155 100.061 54.6954C100.081 54.6753 100.108 54.6641 100.136 54.6641H123.174C123.202 54.6641 123.229 54.6753 123.249 54.6954C123.269 54.7155 123.28 54.7428 123.28 54.7712C123.28 54.7996 123.269 54.8268 123.249 54.8469C123.229 54.867 123.202 54.8783 123.174 54.8783Z" fill="black"/>
<path d="M97.3668 54.8783H76.974C76.9457 54.8783 76.9185 54.867 76.8985 54.8469C76.8784 54.8268 76.8672 54.7996 76.8672 54.7712C76.8672 54.7428 76.8784 54.7155 76.8985 54.6954C76.9185 54.6753 76.9457 54.6641 76.974 54.6641H97.3668C97.3952 54.6641 97.4223 54.6753 97.4424 54.6954C97.4624 54.7155 97.4737 54.7428 97.4737 54.7712C97.4737 54.7996 97.4624 54.8268 97.4424 54.8469C97.4223 54.867 97.3952 54.8783 97.3668 54.8783Z" fill="black"/>
<path d="M123.174 57.6556H104.708C104.68 57.6556 104.653 57.6443 104.633 57.6242C104.613 57.6042 104.602 57.5769 104.602 57.5485C104.602 57.5201 104.613 57.4929 104.633 57.4728C104.653 57.4527 104.68 57.4414 104.708 57.4414H123.174C123.203 57.4414 123.23 57.4527 123.25 57.4728C123.27 57.4929 123.281 57.5201 123.281 57.5485C123.281 57.5769 123.27 57.6042 123.25 57.6242C123.23 57.6443 123.203 57.6556 123.174 57.6556Z" fill="black"/>
<path d="M101.939 57.6556H89.5482C89.5199 57.6556 89.4927 57.6443 89.4727 57.6242C89.4527 57.6042 89.4414 57.5769 89.4414 57.5485C89.4414 57.5201 89.4527 57.4929 89.4727 57.4728C89.4927 57.4527 89.5199 57.4414 89.5482 57.4414H101.939C101.967 57.4414 101.994 57.4527 102.014 57.4728C102.034 57.4929 102.045 57.5201 102.045 57.5485C102.045 57.5769 102.034 57.6042 102.014 57.6242C101.994 57.6443 101.967 57.6556 101.939 57.6556Z" fill="black"/>
<path d="M86.7795 57.6556H76.974C76.9457 57.6556 76.9185 57.6443 76.8985 57.6242C76.8784 57.6042 76.8672 57.5769 76.8672 57.5485C76.8672 57.5201 76.8784 57.4929 76.8985 57.4728C76.9185 57.4527 76.9457 57.4414 76.974 57.4414H86.7795C86.8078 57.4414 86.835 57.4527 86.855 57.4728C86.875 57.4929 86.8863 57.5201 86.8863 57.5485C86.8863 57.5769 86.875 57.6042 86.855 57.6242C86.835 57.6443 86.8078 57.6556 86.7795 57.6556Z" fill="black"/>
<path d="M95.2183 7.20117H80.0391V10.2707H95.2183V7.20117Z" fill="#3876BF"/>
<path d="M106.432 12.7578H80.0391V15.8273H106.432V12.7578Z" fill="#3876BF"/>
<path d="M40.8769 88.8808L36.2155 66.3298L9.81121 64.4609L8.48672 73.271L7.04688 88.8808H40.8769Z" fill="white"/>
<path d="M40.8757 88.9883C40.8515 88.9891 40.8277 88.9816 40.8083 88.967C40.7888 88.9524 40.775 88.9316 40.7689 88.908C40.2348 86.8528 39.6912 83.7672 39.1176 80.5017C38.435 76.6097 37.729 72.5838 36.9813 70.0916C36.8745 69.6536 36.7816 69.1931 36.695 68.7464C36.5369 67.9443 36.3746 67.1153 36.099 66.3528C30.2606 66.0475 24.326 65.6031 18.5816 65.1747C15.7329 64.9605 12.7869 64.7388 9.88803 64.5321C9.14781 69.0388 8.45352 75.9917 7.84041 82.1243C7.59901 84.6411 7.36189 87.0177 7.15574 88.893C7.15248 88.9214 7.1381 88.9473 7.11577 88.9651C7.09343 88.9829 7.06497 88.9911 7.03664 88.9878C7.00831 88.9845 6.98244 88.9701 6.96471 88.9477C6.94698 88.9253 6.93885 88.8968 6.94211 88.8684C7.15574 86.9952 7.38859 84.6197 7.64067 82.105C8.25805 75.9211 8.95875 68.9125 9.70645 64.4025C9.71054 64.3771 9.72358 64.3541 9.74318 64.3376C9.76279 64.3211 9.78766 64.3122 9.81326 64.3125C12.7442 64.516 15.7243 64.7409 18.6051 64.9551C24.3666 65.3835 30.3247 65.8365 36.1834 66.1407C36.2041 66.1419 36.224 66.1491 36.2407 66.1615C36.2574 66.1738 36.2702 66.1908 36.2774 66.2103C36.5743 67.0082 36.7442 67.8704 36.9076 68.7047C36.9984 69.1684 37.0838 69.6054 37.1906 70.0338C37.9383 72.5335 38.6444 76.5669 39.3269 80.4632C39.8994 83.7254 40.441 86.8067 40.9751 88.8523C40.9786 88.8659 40.9794 88.8802 40.9774 88.8941C40.9755 88.9081 40.9708 88.9215 40.9637 88.9336C40.9565 88.9458 40.947 88.9564 40.9358 88.9648C40.9246 88.9733 40.9118 88.9795 40.8981 88.983C40.891 88.9859 40.8834 88.9877 40.8757 88.9883Z" fill="black"/>
<path d="M24.6977 89.0002C24.6718 89.0005 24.6467 88.9913 24.627 88.9743C24.6074 88.9574 24.5946 88.9339 24.5909 88.9081C24.5589 88.6789 24.5236 88.3448 24.4649 87.7911L24.4361 87.519C24.2224 85.4766 24.2865 81.0384 25.0524 79.9149C25.3147 79.5352 25.6459 79.2082 26.0286 78.951C26.0402 78.9419 26.0534 78.9352 26.0676 78.9314C26.0819 78.9276 26.0967 78.9267 26.1112 78.929C26.1258 78.9312 26.1397 78.9364 26.1522 78.9442C26.1646 78.9521 26.1753 78.9625 26.1836 78.9747C26.1918 78.9869 26.1975 79.0007 26.2002 79.0152C26.2029 79.0297 26.2026 79.0446 26.1992 79.0589C26.1959 79.0733 26.1897 79.0868 26.1809 79.0987C26.1722 79.1105 26.161 79.1204 26.1483 79.1278C25.7881 79.3697 25.4762 79.677 25.2286 80.0338C24.5012 81.0973 24.4382 85.5291 24.6475 87.4923L24.6775 87.7643C24.7362 88.3159 24.7714 88.6489 24.8024 88.8739C24.8044 88.8879 24.8035 88.9021 24.8 88.9158C24.7964 88.9295 24.7902 88.9423 24.7816 88.9536C24.7731 88.9648 24.7624 88.9742 24.7502 88.9813C24.738 88.9884 24.7245 88.993 24.7106 88.9949L24.6977 89.0002Z" fill="black"/>
<path d="M38.5991 58.0401C38.5991 58.0401 47.737 62.5619 50.7759 63.2773C52.4059 63.6607 59.6841 64.9352 61.1261 62.2941C62.5414 59.7023 60.9734 54.8389 54.8327 51.7608C53.3213 49.0983 49.4567 46.6093 45.7343 43.0665C40.8305 38.3991 34.0403 33.963 26.4897 34.9022L16.3712 34.2832C14.1954 35.002 12.1257 36.0106 10.2177 37.282C8.66143 38.3155 3.07294 42.2932 0.950556 48.2726C-2.95348 59.2664 6.01138 73.7966 12.5452 73.9584C15.8297 74.0398 21.1415 70.5547 21.1415 70.5547C26.3316 71.2498 36.293 71.0463 37.1294 69.7386C37.687 68.8679 38.3043 60.3138 38.3812 59.4806L38.5991 58.0401Z" fill="#DA00FF"/>
<path d="M38.6543 65.1866H52.5988L61.1022 44.043H47.1577L38.6543 65.1866Z" fill="black"/>
<path d="M54.2352 61.0581L53.6114 62.9313C53.6114 62.9313 55.4935 62.9195 56.5488 60.5826C57.2495 59.0307 58.5227 55.8809 59.2992 53.9424C59.5008 53.4394 59.5468 52.8872 59.4314 52.3576C59.316 51.828 59.0444 51.3454 58.6519 50.9725C57.5571 49.9337 56.0094 48.6324 54.9808 48.4675C53.2376 48.1879 54.6155 50.226 55.5981 51.296C55.5981 51.296 53.6082 49.5577 52.9022 50.5463C51.8436 52.0232 55.611 53.0353 55.7947 55.3454C55.7947 55.3454 52.3863 51.5723 51.8137 52.9549C51.2615 54.2926 53.8432 55.6539 54.4093 57.3782C54.4093 57.3782 52.3863 54.6675 51.3235 55.6892C50.3365 56.636 53.9276 59.4184 54.2352 61.0581Z" fill="white"/>
<path d="M53.6098 63.0388C53.5925 63.0396 53.5753 63.0363 53.5596 63.0289C53.5438 63.0216 53.5301 63.0106 53.5196 62.9968C53.5091 62.983 53.5021 62.9668 53.4992 62.9497C53.4963 62.9325 53.4976 62.915 53.503 62.8985L54.1236 61.0478C53.9815 60.3677 53.252 59.467 52.5449 58.5941C51.5537 57.37 50.6169 56.2122 51.2482 55.605C51.3432 55.5109 51.4578 55.4391 51.5837 55.3947C51.7097 55.3503 51.8438 55.3343 51.9766 55.3479C52.64 55.4025 53.3877 56.0633 53.8993 56.6031C53.5933 56.1773 53.2578 55.7736 52.8952 55.395C52.1144 54.5382 51.3774 53.7328 51.7203 52.9071C51.7535 52.8145 51.8104 52.7324 51.8855 52.669C51.9605 52.6056 52.0509 52.5632 52.1475 52.5462C53.0533 52.3898 54.961 54.2941 55.6382 55.0095C55.4118 54.0981 54.6064 53.3966 53.8865 52.769C53.032 52.0193 52.2202 51.3167 52.8183 50.4781C52.885 50.3825 52.9716 50.3026 53.0721 50.244C53.1726 50.1854 53.2847 50.1494 53.4005 50.1386C53.8865 50.0818 54.4868 50.3796 54.9482 50.6741C54.4494 50.024 53.847 49.0804 54.1044 48.5996C54.2304 48.3629 54.5316 48.2783 55.0005 48.3564C56.0526 48.5257 57.6079 49.8269 58.7283 50.8893C59.1376 51.2766 59.4205 51.779 59.5396 52.3305C59.6588 52.882 59.6087 53.4568 59.3959 53.9792C58.6749 55.7827 57.3579 59.045 56.6444 60.6247C55.5763 62.997 53.6301 63.0366 53.6098 63.0366V63.0388ZM51.8869 55.5632C51.796 55.5618 51.7057 55.5788 51.6214 55.6132C51.5372 55.6476 51.4607 55.6987 51.3966 55.7635C50.9064 56.2347 51.8239 57.37 52.7115 58.4635C53.4432 59.3684 54.2005 60.3034 54.3383 61.0338C54.3431 61.0514 54.3431 61.0699 54.3383 61.0874L53.7647 62.8074C54.2261 62.7496 55.6019 62.4187 56.4532 60.5337C57.1646 58.9572 58.4827 55.6981 59.2015 53.8935C59.3971 53.4108 59.4425 52.8801 59.3317 52.3711C59.221 51.8621 58.9593 51.3986 58.5809 51.0414C57.4818 49.9993 55.964 48.7238 54.9653 48.5631C54.7121 48.5224 54.3896 48.5128 54.2913 48.6959C54.0777 49.0944 54.8254 50.2896 55.6799 51.2149C55.6985 51.2348 55.7089 51.261 55.7089 51.2883C55.7089 51.3156 55.6985 51.3418 55.6799 51.3617C55.6608 51.3815 55.6349 51.3933 55.6075 51.3945C55.58 51.3957 55.5531 51.3862 55.5325 51.3681C55.5196 51.3563 54.2432 50.25 53.4272 50.3442C53.3409 50.3523 53.2575 50.3791 53.1826 50.4227C53.1077 50.4664 53.0432 50.5258 52.9935 50.597C52.531 51.2396 53.0843 51.7751 54.0264 52.6008C54.8638 53.3312 55.8134 54.158 55.9063 55.3254C55.9081 55.3478 55.9029 55.3701 55.8914 55.3893C55.8799 55.4085 55.8627 55.4236 55.8421 55.4325C55.8216 55.4413 55.7988 55.4435 55.777 55.4387C55.7552 55.4339 55.7354 55.4224 55.7205 55.4058C55.0112 54.6207 52.9914 52.6126 52.1839 52.7529C52.1226 52.7633 52.0654 52.7904 52.0185 52.8312C51.9716 52.872 51.9368 52.9249 51.9179 52.9842C51.6284 53.6847 52.2896 54.4087 53.0544 55.2462C53.6493 55.8973 54.2635 56.571 54.5156 57.3335C54.5234 57.3576 54.5224 57.3837 54.5128 57.4072C54.5032 57.4306 54.4857 57.4499 54.4633 57.4616C54.4409 57.4733 54.415 57.4766 54.3904 57.471C54.3657 57.4654 54.3439 57.4512 54.3287 57.431C54.3159 57.4139 52.9807 55.6403 51.9649 55.5578L51.8869 55.5632Z" fill="black"/>
<path d="M57.5725 53.1522C57.5461 53.1524 57.5207 53.1429 57.5009 53.1254L55.5323 51.3754C55.5203 51.3666 55.5102 51.3554 55.5027 51.3425C55.4952 51.3296 55.4905 51.3152 55.4889 51.3004C55.4873 51.2855 55.4888 51.2705 55.4933 51.2563C55.4978 51.242 55.5053 51.2289 55.5151 51.2177C55.525 51.2065 55.5371 51.1976 55.5507 51.1913C55.5642 51.1851 55.5789 51.1818 55.5938 51.1816C55.6087 51.1815 55.6235 51.1844 55.6372 51.1903C55.6509 51.1962 55.6632 51.2049 55.6733 51.2158L57.643 52.9658C57.664 52.9848 57.6768 53.0113 57.6784 53.0396C57.68 53.0679 57.6703 53.0957 57.6515 53.1169C57.6415 53.1279 57.6293 53.1368 57.6157 53.1429C57.6021 53.149 57.5874 53.1522 57.5725 53.1522Z" fill="black"/>
<path d="M38.4536 59.5476H38.4418C38.3995 59.5446 38.3601 59.5248 38.3322 59.4927C38.3044 59.4606 38.2904 59.4187 38.2934 59.3762C38.4205 57.6894 38.5209 55.9769 38.5924 54.2847C38.5943 54.2421 38.6129 54.202 38.6443 54.1731C38.6756 54.1443 38.7171 54.1292 38.7596 54.131C38.8021 54.1329 38.8421 54.1516 38.8709 54.183C38.8996 54.2144 38.9147 54.256 38.9129 54.2986C38.8413 55.994 38.7398 57.7108 38.6127 59.3998C38.6095 59.4399 38.5914 59.4774 38.5619 59.5048C38.5324 59.5322 38.4938 59.5474 38.4536 59.5476Z" fill="black"/>
<path d="M16.1288 34.2559L16.3531 32.7051H28.595L28.8802 35.0891C28.9208 35.4262 28.8818 35.7682 28.7664 36.0874C28.651 36.4066 28.4624 36.6942 28.2158 36.927L25.9856 39.0358L17.2407 36.0798C16.8722 35.9538 16.5592 35.7025 16.3561 35.3693C16.153 35.0362 16.0726 34.6422 16.1288 34.2559Z" fill="#F1D0F6"/>
<path d="M28.8796 35.1959C28.8534 35.1961 28.828 35.1866 28.8083 35.1692C28.7886 35.1518 28.7759 35.1278 28.7728 35.1017L28.4993 32.8119H16.4401L16.2265 34.2716C16.2224 34.3 16.2072 34.3256 16.1842 34.3428C16.1613 34.36 16.1325 34.3673 16.1042 34.3632C16.0758 34.3591 16.0503 34.3438 16.0332 34.3209C16.016 34.2979 16.0087 34.269 16.0128 34.2406L16.2371 32.6898C16.2408 32.664 16.2536 32.6405 16.2733 32.6236C16.2929 32.6066 16.318 32.5974 16.344 32.5977H28.5944C28.6206 32.5975 28.646 32.607 28.6657 32.6244C28.6854 32.6417 28.6981 32.6658 28.7012 32.6919L28.9853 35.076C28.9887 35.1041 28.9808 35.1323 28.9633 35.1546C28.9459 35.1769 28.9204 35.1914 28.8924 35.1948L28.8796 35.1959Z" fill="black"/>
<path d="M12.2329 62.7603C12.2181 62.7604 12.2034 62.7582 12.1892 62.7539C12.1536 62.7441 12.1225 62.7221 12.1012 62.6918C12.08 62.6616 12.0699 62.6248 12.0727 62.5879L12.093 62.3062C12.096 62.2638 12.1157 62.2242 12.1478 62.1963C12.1798 62.1684 12.2216 62.1544 12.2639 62.1573H12.281C13.7764 59.2914 15.2013 56.3515 16.5365 53.4137C16.5549 53.3763 16.5871 53.3476 16.6263 53.3336C16.6654 53.3195 16.7085 53.3214 16.7464 53.3386C16.7842 53.3558 16.8139 53.3872 16.8292 53.426C16.8444 53.4648 16.844 53.508 16.8281 53.5465C15.4342 56.6149 13.9356 59.6855 12.375 62.6725C12.3615 62.6987 12.3411 62.7206 12.3161 62.7361C12.2911 62.7516 12.2623 62.7599 12.2329 62.7603Z" fill="black"/>
<path d="M21.1413 70.7168C21.102 70.7176 21.0638 70.7034 21.0345 70.6772C21.0185 70.6635 21.0053 70.6468 20.9958 70.6281C20.9863 70.6093 20.9806 70.5888 20.979 70.5678C20.9774 70.5468 20.98 70.5257 20.9866 70.5057C20.9931 70.4857 21.0036 70.4672 21.0174 70.4512C25.3839 65.3394 26.7052 60.0625 27.1389 58.3286C27.144 58.3081 27.1531 58.2889 27.1656 58.2719C27.1782 58.255 27.1939 58.2407 27.212 58.2299C27.23 58.219 27.25 58.2119 27.2708 58.2088C27.2916 58.2057 27.3129 58.2067 27.3333 58.2119C27.3537 58.217 27.3729 58.2261 27.3898 58.2387C27.4067 58.2513 27.4209 58.267 27.4317 58.2851C27.4426 58.3032 27.4497 58.3233 27.4528 58.3442C27.4559 58.365 27.4548 58.3863 27.4497 58.4068C27.0118 60.1589 25.6766 65.4914 21.2609 70.6601C21.2462 70.6775 21.2279 70.6916 21.2072 70.7014C21.1866 70.7112 21.1641 70.7165 21.1413 70.7168Z" fill="black"/>
<path d="M27.4195 57.5779C27.4195 57.5779 29.0217 50.2801 29.0111 47.8104C29.0111 47.8104 32.1663 44.3211 33.0059 43.1045C33.0059 43.1045 34.904 42.8967 34.6743 41.7025C34.4447 40.5084 33.5891 40.5619 33.5891 40.5619C33.5891 40.5619 33.682 38.7059 31.941 39.0357C31.941 39.0357 32.4633 37.2268 30.6507 37.8041C30.8949 37.1026 31.258 36.4486 31.7241 35.8709C32.6694 34.6928 34.1221 33.398 33.8689 32.7051C33.7055 32.2606 33.0999 32.0871 31.7818 32.8314C29.7321 33.9892 26.8524 36.6999 25.5706 38.2785C24.0934 40.1057 17.1836 52.586 17.1836 52.586C17.1836 52.586 19.8582 57.5479 27.4195 57.5779Z" fill="white"/>
<path d="M25.2629 38.8093C25.2434 38.8092 25.2243 38.8039 25.2076 38.7937C25.191 38.7836 25.1774 38.7691 25.1684 38.7518C25.1594 38.7344 25.1552 38.715 25.1565 38.6955C25.1577 38.676 25.1642 38.6572 25.1753 38.6411C25.3013 38.458 25.4049 38.3198 25.4957 38.2127C26.6835 36.7423 29.5867 33.9512 31.7326 32.7378C32.5486 32.2773 33.1682 32.1198 33.5751 32.2698C33.6668 32.3026 33.75 32.3555 33.8187 32.4246C33.8874 32.4937 33.9399 32.5773 33.9725 32.6692C34.1861 33.2444 33.4138 34.1076 32.5999 35.0254L32.3745 35.2793C32.3553 35.2987 32.3293 35.3101 32.3019 35.3109C32.2746 35.3117 32.248 35.302 32.2276 35.2838C32.2072 35.2655 32.1945 35.2401 32.1922 35.2127C32.19 35.1854 32.1983 35.1582 32.2154 35.1368L32.4408 34.883C33.1767 34.0562 33.9362 33.2015 33.7717 32.7474C33.7502 32.6845 33.7147 32.6273 33.6678 32.5801C33.621 32.533 33.5641 32.4972 33.5014 32.4754C33.2643 32.3876 32.7826 32.3951 31.8373 32.9295C29.7192 34.1258 26.8384 36.8922 25.657 38.3509C25.5759 38.4516 25.4722 38.5919 25.3505 38.7675C25.3402 38.7809 25.3269 38.7917 25.3117 38.7989C25.2965 38.8062 25.2797 38.8097 25.2629 38.8093Z" fill="black"/>
<path d="M27.422 48.4685C27.3586 48.4685 27.2956 48.4664 27.2329 48.4621C27.2189 48.4612 27.2052 48.4575 27.1926 48.4513C27.18 48.4451 27.1687 48.4364 27.1594 48.4258C27.1501 48.4152 27.143 48.4029 27.1385 48.3896C27.134 48.3762 27.1321 48.3621 27.133 48.3481C27.1339 48.334 27.1376 48.3202 27.1438 48.3076C27.15 48.295 27.1587 48.2837 27.1692 48.2744C27.1798 48.2651 27.1921 48.2579 27.2054 48.2534C27.2187 48.2489 27.2328 48.247 27.2468 48.2479C27.8295 48.2855 28.4084 48.1305 28.8949 47.8067C28.9065 47.7979 28.9198 47.7916 28.9339 47.7882C28.948 47.7847 28.9627 47.7842 28.977 47.7867C28.9913 47.7891 29.005 47.7945 29.0172 47.8024C29.0294 47.8103 29.0399 47.8206 29.0479 47.8327C29.056 47.8448 29.0615 47.8585 29.0642 47.8728C29.0668 47.8871 29.0665 47.9018 29.0633 47.916C29.0601 47.9302 29.054 47.9436 29.0454 47.9554C29.0369 47.9671 29.026 47.977 29.0135 47.9845C28.5423 48.2998 27.9885 48.4682 27.422 48.4685Z" fill="black"/>
<path d="M32.7824 43.4475C32.7606 43.4474 32.7394 43.4407 32.7215 43.4282C32.6983 43.412 32.6825 43.3872 32.6775 43.3593C32.6725 43.3314 32.6787 43.3026 32.6948 43.2793L33.3496 42.3315C33.3657 42.3081 33.3905 42.292 33.4184 42.2869C33.4464 42.2818 33.4752 42.288 33.4986 42.3042C33.5219 42.3204 33.5379 42.3452 33.5431 42.3732C33.5482 42.4013 33.542 42.4302 33.5258 42.4536L32.871 43.4014C32.8611 43.4158 32.8479 43.4275 32.8324 43.4355C32.817 43.4435 32.7998 43.4476 32.7824 43.4475Z" fill="black"/>
<path d="M32.5107 41.1752C32.4895 41.1752 32.4689 41.1688 32.4514 41.157C32.4339 41.1451 32.4203 41.1283 32.4123 41.1087C32.4043 41.0891 32.4022 41.0676 32.4064 41.0468C32.4106 41.0261 32.4209 41.007 32.4359 40.9921C32.7511 40.6794 33.1684 40.4915 33.6108 40.463C33.639 40.4616 33.6666 40.4713 33.6876 40.4902C33.7086 40.5091 33.7213 40.5355 33.723 40.5637C33.7245 40.5919 33.7147 40.6196 33.6959 40.6407C33.6771 40.6618 33.6507 40.6745 33.6226 40.6762C33.2311 40.7009 32.8618 40.8672 32.5833 41.1442C32.5639 41.1635 32.5379 41.1746 32.5107 41.1752Z" fill="black"/>
<path d="M31.0422 39.7855C31.027 39.7855 31.0121 39.7822 30.9982 39.776C30.9844 39.7697 30.9721 39.7605 30.9621 39.7491C30.9434 39.7278 30.934 39.6999 30.9358 39.6716C30.9376 39.6433 30.9505 39.6169 30.9717 39.5981C31.2821 39.3244 31.6359 39.1047 32.0185 38.948C32.0316 38.9417 32.0459 38.9381 32.0605 38.9376C32.0751 38.937 32.0896 38.9395 32.1032 38.9447C32.1168 38.95 32.1292 38.958 32.1395 38.9683C32.1499 38.9785 32.1581 38.9908 32.1636 39.0044C32.1691 39.0179 32.1717 39.0324 32.1714 39.047C32.1711 39.0617 32.1677 39.0761 32.1617 39.0893C32.1556 39.1026 32.1468 39.1145 32.136 39.1243C32.1251 39.134 32.1124 39.1415 32.0986 39.1461C31.7385 39.2943 31.4054 39.5014 31.1127 39.7587C31.0932 39.776 31.0682 39.7855 31.0422 39.7855Z" fill="black"/>
<path d="M29.7159 38.4959C29.6923 38.4958 29.6694 38.488 29.6508 38.4735C29.6322 38.459 29.6188 38.4388 29.6129 38.416C29.6069 38.3931 29.6086 38.3689 29.6178 38.3472C29.6269 38.3254 29.643 38.3073 29.6635 38.2956L30.8118 37.6412C30.824 37.6342 30.8374 37.6297 30.8514 37.6278C30.8654 37.626 30.8795 37.627 30.8931 37.6307C30.9067 37.6344 30.9194 37.6407 30.9306 37.6493C30.9417 37.6579 30.9511 37.6686 30.9581 37.6809C30.9651 37.6931 30.9697 37.7066 30.9715 37.7206C30.9733 37.7346 30.9723 37.7488 30.9687 37.7624C30.965 37.7761 30.9587 37.7888 30.9501 37.8C30.9415 37.8112 30.9308 37.8206 30.9186 37.8276L29.7714 38.482C29.7545 38.4916 29.7353 38.4964 29.7159 38.4959Z" fill="black"/>
<g opacity="0.6">
<path d="M38.6543 65.1866H52.5988L61.1022 44.043H47.1577L38.6543 65.1866Z" fill="black"/>
<path d="M54.2332 61.0562L53.6095 62.9294C53.6095 62.9294 55.4915 62.9176 56.5468 60.5806C57.2475 59.0288 58.5207 55.879 59.2973 53.9405C59.4988 53.4374 59.5449 52.8852 59.4294 52.3556C59.314 51.826 59.0424 51.3435 58.65 50.9706C57.5551 49.9317 56.0074 48.6304 54.9788 48.4655C53.2356 48.186 54.6135 50.2241 55.5962 51.294C55.5962 51.294 53.6063 49.5558 52.9002 50.5443C51.8417 52.0212 55.609 53.0333 55.7927 55.3435C55.7927 55.3435 52.3843 51.5703 51.8118 52.953C51.2596 54.2907 53.8412 55.6519 54.4074 57.3762C54.4074 57.3762 52.3843 54.6655 51.3215 55.6873C50.3346 56.634 53.9256 59.4165 54.2332 61.0562Z" fill="white"/>
<path d="M53.6098 63.0368C53.5925 63.0377 53.5753 63.0343 53.5596 63.027C53.5438 63.0197 53.5301 63.0086 53.5196 62.9948C53.5091 62.981 53.5021 62.9648 53.4992 62.9477C53.4963 62.9306 53.4976 62.913 53.503 62.8965L54.1236 61.0458C53.9815 60.3657 53.252 59.465 52.5449 58.5922C51.5537 57.368 50.6169 56.2103 51.2482 55.603C51.3432 55.509 51.4578 55.4372 51.5837 55.3927C51.7097 55.3483 51.8438 55.3323 51.9766 55.346C52.64 55.4006 53.3877 56.0614 53.8993 56.6012C53.5933 56.1753 53.2578 55.7716 52.8952 55.3931C52.1144 54.5363 51.3774 53.7309 51.7203 52.9052C51.7535 52.8126 51.8104 52.7304 51.8855 52.667C51.9605 52.6037 52.0509 52.5613 52.1475 52.5442C53.0533 52.3879 54.961 54.2921 55.6382 55.0075C55.4118 54.0961 54.6064 53.3946 53.8865 52.767C53.032 52.0173 52.2202 51.3147 52.8183 50.4761C52.885 50.3806 52.9716 50.3007 53.0721 50.2421C53.1726 50.1834 53.2847 50.1475 53.4005 50.1366C53.8865 50.0799 54.4868 50.3776 54.9482 50.6721C54.4494 50.022 53.847 49.0785 54.1044 48.5976C54.2304 48.3609 54.5316 48.2763 55.0005 48.3545C56.0526 48.5237 57.6079 49.825 58.7283 50.8874C59.1376 51.2747 59.4205 51.7771 59.5396 52.3286C59.6588 52.8801 59.6087 53.4548 59.3959 53.9772C58.6749 55.7808 57.3579 59.043 56.6444 60.6228C55.5763 62.995 53.6301 63.0347 53.6098 63.0347V63.0368ZM51.8869 55.5612C51.796 55.5598 51.7057 55.5768 51.6214 55.6113C51.5372 55.6457 51.4607 55.6968 51.3966 55.7615C50.9064 56.2327 51.8239 57.368 52.7115 58.4615C53.4432 59.3665 54.2005 60.3015 54.3383 61.0319C54.3431 61.0494 54.3431 61.0679 54.3383 61.0854L53.7647 62.8055C54.2261 62.7476 55.6019 62.4167 56.4532 60.5317C57.1646 58.9552 58.4827 55.6962 59.2015 53.8915C59.3971 53.4089 59.4425 52.8782 59.3317 52.3691C59.221 51.8601 58.9593 51.3966 58.5809 51.0395C57.4818 49.9974 55.964 48.7218 54.9653 48.5612C54.7121 48.5205 54.3896 48.5109 54.2913 48.694C54.0777 49.0924 54.8254 50.2876 55.6799 51.213C55.6985 51.2328 55.7089 51.2591 55.7089 51.2863C55.7089 51.3136 55.6985 51.3398 55.6799 51.3597C55.6608 51.3796 55.6349 51.3913 55.6075 51.3925C55.58 51.3937 55.5531 51.3843 55.5325 51.3661C55.5196 51.3544 54.2432 50.248 53.4272 50.3423C53.3409 50.3503 53.2575 50.3771 53.1826 50.4208C53.1077 50.4644 53.0432 50.5239 52.9935 50.595C52.531 51.2376 53.0843 51.7731 54.0264 52.5989C54.8638 53.3293 55.8134 54.1561 55.9063 55.3235C55.9081 55.3458 55.9029 55.3681 55.8914 55.3873C55.8799 55.4065 55.8627 55.4216 55.8421 55.4305C55.8216 55.4394 55.7988 55.4416 55.777 55.4368C55.7552 55.432 55.7354 55.4205 55.7205 55.4038C55.0112 54.6188 52.9914 52.6106 52.1839 52.7509C52.1226 52.7613 52.0654 52.7884 52.0185 52.8292C51.9716 52.87 51.9368 52.923 51.9179 52.9823C51.6284 53.6827 52.2896 54.4067 53.0544 55.2442C53.6493 55.8954 54.2635 56.569 54.5156 57.3316C54.5234 57.3557 54.5224 57.3818 54.5128 57.4052C54.5032 57.4287 54.4857 57.4479 54.4633 57.4596C54.4409 57.4713 54.415 57.4747 54.3904 57.4691C54.3657 57.4635 54.3439 57.4493 54.3287 57.4291C54.3159 57.4119 52.9807 55.6383 51.9649 55.5559L51.8869 55.5612Z" fill="black"/>
<path d="M57.5725 53.1502C57.5461 53.1505 57.5207 53.1409 57.5009 53.1235L55.5323 51.3735C55.5203 51.3647 55.5102 51.3535 55.5027 51.3405C55.4952 51.3276 55.4905 51.3133 55.4889 51.2984C55.4873 51.2836 55.4888 51.2686 55.4933 51.2543C55.4978 51.2401 55.5053 51.227 55.5151 51.2158C55.525 51.2046 55.5371 51.1956 55.5507 51.1894C55.5642 51.1832 55.5789 51.1799 55.5938 51.1797C55.6087 51.1795 55.6235 51.1825 55.6372 51.1884C55.6509 51.1942 55.6632 51.2029 55.6733 51.2139L57.643 52.9639C57.664 52.9828 57.6768 53.0093 57.6784 53.0376C57.68 53.0659 57.6703 53.0937 57.6515 53.1149C57.6415 53.126 57.6293 53.1349 57.6157 53.141C57.6021 53.147 57.5874 53.1502 57.5725 53.1502Z" fill="black"/>
</g>
<path d="M20.2734 26.4543V33.0827L26.5413 35.1176V29.5666C26.5413 29.5666 21.9344 26.0109 20.2734 26.4543Z" fill="white"/>
<path d="M26.5407 35.2192C26.5297 35.2208 26.5186 35.2208 26.5076 35.2192L20.2408 33.1843C20.2192 33.1774 20.2003 33.1639 20.1869 33.1456C20.1734 33.1273 20.1662 33.1052 20.1661 33.0825V26.4541C20.1653 26.4298 20.1728 26.4059 20.1874 26.3865C20.2019 26.367 20.2227 26.3531 20.2462 26.347C21.9392 25.8983 26.4157 29.3362 26.6059 29.4829C26.6188 29.4929 26.6293 29.5057 26.6365 29.5203C26.6437 29.535 26.6475 29.5511 26.6475 29.5675V35.1131C26.6475 35.1415 26.6363 35.1688 26.6162 35.1889C26.5962 35.2089 26.569 35.2202 26.5407 35.2202V35.2192ZM20.3797 33.0011L26.4339 34.9643V29.6189C25.9789 29.274 21.9477 26.2603 20.3797 26.5355V33.0011Z" fill="black"/>
<path d="M14.9627 24.3788C13.9929 23.2124 13.5571 21.5213 14.1574 20.1269C14.5131 19.3022 15.1785 18.6607 15.7435 17.9635C16.7433 16.7308 17.4526 15.2913 18.2494 13.9194C19.0462 12.5474 19.9808 11.2012 21.2925 10.3101C22.0748 9.77837 22.9652 9.42768 23.8993 9.28345C24.8334 9.13922 25.7878 9.20505 26.6934 9.47619C27.599 9.74733 28.4332 10.217 29.1355 10.8512C29.8378 11.4853 30.3906 12.2681 30.7541 13.1429C31.2572 14.3542 31.3554 15.8108 30.6836 16.9375C29.9305 18.2002 28.4405 18.7582 27.1844 19.5293C25.4604 20.5853 24.106 22.1147 22.6982 23.5412C22.0142 24.2556 21.2826 24.9226 20.5085 25.5376C20.111 25.8447 19.6935 26.1249 19.2588 26.3762C18.7194 26.6857 18.5111 26.6139 17.93 26.389C16.8095 25.9521 15.7403 25.3137 14.9627 24.3788Z" fill="black"/>
<path d="M20.9481 22.3249C20.868 21.6073 20.5091 20.9561 20.1567 20.3264C22.0614 19.1417 24.0373 18.0762 26.0731 17.1359C26.3368 17.0126 26.6246 16.9495 26.9157 16.9512C27.2067 16.9529 27.4937 17.0194 27.7561 17.1458C28.0184 17.2723 28.2494 17.4555 28.4325 17.6823C28.6157 17.9092 28.7463 18.1739 28.815 18.4575C29.0099 19.2504 29.2525 20.0308 29.5413 20.7944C30.0946 22.3227 30.7013 23.8682 30.775 25.4929C30.8487 27.1176 30.2847 28.874 28.9367 29.7769C28.1591 30.2985 27.1999 30.487 26.2664 30.5009C24.4655 30.5266 22.5792 29.8669 21.4811 28.436C21.2494 28.134 20.2261 27.1626 20.2261 27.1626C20.2261 27.1626 19.2039 27.3629 17.8516 26.3797C17.0046 25.7639 16.6895 24.8685 17.1915 23.971C17.2978 23.7813 17.4414 23.6152 17.6136 23.4829C17.7859 23.3505 17.9831 23.2546 18.1934 23.201C19.0672 22.9782 19.41 23.6529 20.1417 23.8339C20.8734 24.0149 21.0069 22.8443 20.9481 22.3249Z" fill="white"/>
<path d="M26.1545 30.6129C24.1828 30.6129 22.4075 29.8289 21.3917 28.5052C21.193 28.2449 20.3727 27.4577 20.1869 27.28C19.9476 27.3089 18.9959 27.3506 17.7846 26.4703C16.8436 25.7848 16.5851 24.8327 17.0946 23.9224C17.2079 23.7201 17.361 23.543 17.5446 23.4018C17.7282 23.2605 17.9385 23.1582 18.1627 23.1009C18.7524 22.9499 19.1241 23.1834 19.4862 23.4083C19.6931 23.5508 19.9213 23.6592 20.1623 23.7296C20.2252 23.7494 20.2922 23.7527 20.3568 23.739C20.4213 23.7253 20.4813 23.6951 20.5308 23.6514C20.8139 23.4019 20.8822 22.7175 20.8395 22.333C20.7605 21.6261 20.3887 20.9621 20.0608 20.3752C20.0473 20.3512 20.0435 20.3229 20.0503 20.2962C20.057 20.2694 20.0738 20.2463 20.0971 20.2317C22.0059 19.0458 23.9857 17.9788 26.0253 17.0369C26.308 16.9058 26.6164 16.8399 26.9279 16.8439C27.2393 16.848 27.5459 16.922 27.8251 17.0605C28.0975 17.1929 28.3369 17.3847 28.5258 17.6219C28.7147 17.8591 28.8483 18.1357 28.9167 18.4314C29.1107 19.2202 29.3519 19.9967 29.6388 20.7565L29.768 21.111C30.2797 22.5172 30.8095 23.9706 30.8789 25.486C30.9462 26.9469 30.4858 28.864 28.9926 29.8653C28.2823 30.3419 27.3637 30.5915 26.2635 30.6075L26.1545 30.6129ZM20.2221 27.0593C20.2495 27.0591 20.2758 27.0695 20.2958 27.0882C20.3375 27.1289 21.3276 28.0693 21.5616 28.3734C22.5549 29.6683 24.3099 30.4244 26.2613 30.3966C27.3199 30.3805 28.2 30.1438 28.8751 29.6908C30.2936 28.7387 30.7304 26.9062 30.6663 25.4989C30.599 24.0166 30.0746 22.5783 29.5683 21.1881L29.4391 20.8325C29.1487 20.0648 28.9051 19.2801 28.7095 18.4828C28.6483 18.218 28.5287 17.9704 28.3596 17.758C28.1905 17.5456 27.9761 17.3739 27.7322 17.2554C27.4814 17.1311 27.2061 17.0648 26.9264 17.0613C26.6468 17.0578 26.3699 17.1171 26.1161 17.2351C24.1139 18.159 22.1695 19.2041 20.2937 20.3645C20.6141 20.9461 20.9687 21.6004 21.0488 22.3137C21.0948 22.725 21.0318 23.4918 20.6675 23.8131C20.5922 23.8793 20.5014 23.9254 20.4035 23.9471C20.3057 23.9689 20.204 23.9655 20.1078 23.9374C19.8443 23.8615 19.595 23.7428 19.3697 23.5861C19.0183 23.3719 18.7128 23.1759 18.2119 23.3044C18.0155 23.3544 17.8313 23.4439 17.6704 23.5674C17.5096 23.6909 17.3755 23.8459 17.2762 24.023C16.8254 24.8284 17.0626 25.6767 17.9053 26.2925C19.1988 27.2328 20.1879 27.0593 20.1975 27.0572L20.2221 27.0593Z" fill="black"/>
<path d="M20.1432 26.4356C20.1195 26.4366 20.0961 26.4297 20.0768 26.4159C20.0574 26.4021 20.0432 26.3823 20.0363 26.3595C19.9358 26.0613 19.7336 25.8081 19.4655 25.6444C19.1973 25.4807 18.8802 25.4169 18.5698 25.4642C18.5415 25.4694 18.5122 25.4632 18.4885 25.4468C18.4647 25.4304 18.4485 25.4053 18.4432 25.3769C18.438 25.3485 18.4442 25.3191 18.4605 25.2953C18.4769 25.2715 18.5019 25.2552 18.5303 25.25C18.8921 25.1951 19.2616 25.2697 19.574 25.4607C19.8865 25.6516 20.122 25.9466 20.2393 26.2942C20.2473 26.3213 20.2442 26.3505 20.2308 26.3754C20.2174 26.4003 20.1947 26.4188 20.1677 26.427C20.1599 26.4308 20.1517 26.4337 20.1432 26.4356Z" fill="black"/>
<path d="M24.6159 25.2933C23.7166 25.2933 22.8396 24.5897 22.5267 23.5358C22.1571 22.2924 22.7114 21.0254 23.7625 20.7116C24.8135 20.3978 25.9682 21.1539 26.3378 22.3974C26.7073 23.6408 26.153 24.9089 25.103 25.2227C24.9449 25.2698 24.7809 25.2936 24.6159 25.2933ZM24.2474 20.8541C24.1027 20.8539 23.9587 20.8752 23.8202 20.9172C22.8824 21.1968 22.3921 22.3449 22.7285 23.4748C23.065 24.6047 24.1 25.2955 25.0389 25.017C25.9778 24.7386 26.4659 23.5894 26.1306 22.4595C25.8496 21.4988 25.0571 20.8541 24.2474 20.8541Z" fill="black"/>
<path d="M30.8135 20.5052C31.1671 21.694 30.6458 22.8989 29.6492 23.1966C28.6527 23.4943 27.56 22.7682 27.2064 21.5826C26.8529 20.397 27.3741 19.1889 28.3707 18.8912C29.3673 18.5935 30.46 19.3164 30.8135 20.5052Z" fill="white"/>
<path d="M29.1896 23.3715C28.811 23.3666 28.4422 23.2504 28.1289 23.0373C27.6369 22.6926 27.2758 22.1909 27.1046 21.614C26.9333 21.0372 26.9619 20.4192 27.1858 19.8607C27.287 19.6076 27.4432 19.3801 27.6428 19.1949C27.8425 19.0097 28.0808 18.8713 28.3404 18.7897C29.3915 18.4759 30.5472 19.2321 30.9168 20.4766C31.2863 21.7211 30.732 22.987 29.6809 23.3008C29.5214 23.3481 29.3559 23.3719 29.1896 23.3715ZM28.8286 18.9322C28.6839 18.9316 28.5399 18.9526 28.4013 18.9943C28.1717 19.0673 27.9611 19.1904 27.7847 19.3549C27.6083 19.5194 27.4705 19.721 27.3812 19.9453C27.178 20.4578 27.1528 21.0239 27.3098 21.5524C27.4668 22.0809 27.7967 22.541 28.2464 22.8585C28.4437 22.9972 28.6693 23.0904 28.9068 23.1311C29.1444 23.1718 29.388 23.1592 29.62 23.0941C30.5579 22.8145 31.0481 21.6664 30.7117 20.5365C30.4265 19.5758 29.635 18.9322 28.8286 18.9322Z" fill="black"/>
<path d="M26.3041 22.4766C26.2941 22.4777 26.2841 22.4777 26.2742 22.4766C26.2607 22.4727 26.2481 22.4661 26.2372 22.4573C26.2263 22.4485 26.2172 22.4376 26.2104 22.4253C26.1968 22.4004 26.1936 22.3711 26.2015 22.3438C26.275 22.1151 26.4284 21.9206 26.6335 21.7962C26.8386 21.6719 27.0816 21.626 27.3177 21.667C27.3461 21.6726 27.371 21.6894 27.387 21.7135C27.403 21.7376 27.4089 21.7671 27.4032 21.7955C27.3975 21.8239 27.3808 21.8489 27.3568 21.8649C27.3328 21.881 27.3033 21.8868 27.275 21.8812C27.0915 21.8515 26.9034 21.8882 26.7443 21.9847C26.5852 22.0812 26.4655 22.2313 26.4066 22.4081C26.3987 22.4287 26.3846 22.4464 26.3662 22.4587C26.3478 22.471 26.3261 22.4772 26.3041 22.4766Z" fill="black"/>
<path d="M20.269 23.9142C20.2407 23.9172 20.2123 23.9088 20.1902 23.8908C20.1681 23.8728 20.154 23.8467 20.151 23.8183C20.148 23.7899 20.1564 23.7615 20.1743 23.7393C20.1923 23.7171 20.2182 23.703 20.2466 23.7L22.4897 23.2095C22.518 23.2034 22.5476 23.2088 22.5719 23.2246C22.5963 23.2403 22.6133 23.2651 22.6194 23.2936C22.6255 23.322 22.6201 23.3516 22.6044 23.376C22.5887 23.4004 22.5639 23.4176 22.5356 23.4237L20.2946 23.9121L20.269 23.9142Z" fill="black"/>
<path d="M53.1478 44.151C53.1195 44.151 53.0923 44.1397 53.0723 44.1197C53.0523 44.0996 53.041 44.0723 53.041 44.0439V14.2926C53.041 14.2642 53.0523 14.237 53.0723 14.2169C53.0923 14.1968 53.1195 14.1855 53.1478 14.1855H64.1795C64.2079 14.1855 64.235 14.1968 64.2551 14.2169C64.2751 14.237 64.2863 14.2642 64.2863 14.2926C64.2863 14.3211 64.2751 14.3483 64.2551 14.3684C64.235 14.3885 64.2079 14.3997 64.1795 14.3997H53.2546V44.0439C53.2546 44.0723 53.2434 44.0996 53.2234 44.1197C53.2033 44.1397 53.1762 44.151 53.1478 44.151Z" fill="black" stroke="black" stroke-width="0.3"/>
</g>
<defs>
<clipPath id="clip0_2055_1044">
<rect width="133" height="89" fill="white"/>
</clipPath>
</defs>
</svg>
