<svg width="20" height="26" viewBox="0 0 20 26" fill="none" xmlns="http://www.w3.org/2000/svg">
<path d="M5.09844 15.8004C4.91279 15.8004 4.73474 15.7266 4.60346 15.5954C4.47219 15.4641 4.39844 15.286 4.39844 15.1004C4.39844 14.9147 4.47219 14.7367 4.60346 14.6054C4.73474 14.4741 4.91279 14.4004 5.09844 14.4004H14.8984C15.0841 14.4004 15.2621 14.4741 15.3934 14.6054C15.5247 14.7367 15.5984 14.9147 15.5984 15.1004C15.5984 15.286 15.5247 15.4641 15.3934 15.5954C15.2621 15.7266 15.0841 15.8004 14.8984 15.8004H5.09844ZM5.09844 20.0004C4.91279 20.0004 4.73474 19.9266 4.60346 19.7954C4.47219 19.6641 4.39844 19.486 4.39844 19.3004C4.39844 19.1147 4.47219 18.9367 4.60346 18.8054C4.73474 18.6741 4.91279 18.6004 5.09844 18.6004H14.8984C15.0841 18.6004 15.2621 18.6741 15.3934 18.8054C15.5247 18.9367 15.5984 19.1147 15.5984 19.3004C15.5984 19.486 15.5247 19.6641 15.3934 19.7954C15.2621 19.9266 15.0841 20.0004 14.8984 20.0004H5.09844Z" fill="#767676"/>
<path fill-rule="evenodd" clip-rule="evenodd" d="M11.6582 0.400391H2.29922C1.74226 0.400391 1.20812 0.62164 0.814295 1.01547C0.420468 1.40929 0.199219 1.94344 0.199219 2.50039V23.5004C0.199219 24.0573 0.420468 24.5915 0.814295 24.9853C1.20812 25.3791 1.74226 25.6004 2.29922 25.6004H17.6992C18.2562 25.6004 18.7903 25.3791 19.1841 24.9853C19.578 24.5915 19.7992 24.0573 19.7992 23.5004V9.08319C19.7991 8.55745 19.6018 8.05089 19.2462 7.66359L13.2066 1.08079C13.0098 0.866234 12.7705 0.694951 12.5039 0.577819C12.2374 0.460687 11.9494 0.400265 11.6582 0.400391ZM1.59922 2.50039C1.59922 2.31474 1.67297 2.13669 1.80424 2.00542C1.93552 1.87414 2.11357 1.80039 2.29922 1.80039H11.6582C11.7554 1.80028 11.8514 1.82039 11.9404 1.85944C12.0293 1.89849 12.1092 1.95561 12.1748 2.02719L18.2144 8.60999C18.3331 8.73902 18.399 8.90788 18.3992 9.08319V23.5004C18.3992 23.686 18.3255 23.8641 18.1942 23.9954C18.0629 24.1266 17.8849 24.2004 17.6992 24.2004H2.29922C2.11357 24.2004 1.93552 24.1266 1.80424 23.9954C1.67297 23.8641 1.59922 23.686 1.59922 23.5004V2.50039Z" fill="#767676"/>
<path d="M11.4 8.80039H19.1C19.2857 8.80039 19.4637 8.87414 19.595 9.00542C19.7263 9.13669 19.8 9.31474 19.8 9.50039C19.8 9.68604 19.7263 9.86409 19.595 9.99537C19.4637 10.1266 19.2857 10.2004 19.1 10.2004H10.7C10.5143 10.2004 10.3363 10.1266 10.205 9.99537C10.0737 9.86409 10 9.68604 10 9.50039V1.10039C10 0.914739 10.0737 0.736691 10.205 0.605416C10.3363 0.47414 10.5143 0.400391 10.7 0.400391C10.8857 0.400391 11.0637 0.47414 11.195 0.605416C11.3263 0.736691 11.4 0.914739 11.4 1.10039V8.80039Z" fill="#767676"/>
</svg>
