<svg width="25" height="26" viewBox="0 0 25 26" fill="none" xmlns="http://www.w3.org/2000/svg">
<g filter="url(#filter0_d_1931_5792)">
<circle cx="12.7317" cy="12.1907" r="10.2688" fill="white"/>
</g>
<path d="M18.2606 6.7416C18.0499 6.52009 17.7971 6.34296 17.5169 6.22066C17.2368 6.09836 16.935 6.03336 16.6293 6.02948C16.3236 6.02561 16.0203 6.08294 15.7371 6.19809C15.4539 6.31325 15.1967 6.48391 14.9805 6.70002L7.7602 13.9203C7.50783 14.1726 7.33258 14.4916 7.25497 14.8399L6.57954 17.882C6.56545 17.9452 6.56753 18.011 6.58559 18.0732C6.60365 18.1354 6.63711 18.192 6.68287 18.2379C6.72863 18.2837 6.78522 18.3173 6.84739 18.3354C6.90956 18.3536 6.97531 18.3558 7.03856 18.3418L10.063 17.6694C10.423 17.5893 10.7527 17.4082 11.0134 17.1473L18.2205 9.94009C18.643 9.51746 18.8836 8.94651 18.8911 8.34899C18.8986 7.75148 18.6723 7.17468 18.2606 6.7416ZM15.525 7.24452C15.6659 7.10161 15.8336 6.98799 16.0186 6.91021C16.2036 6.83242 16.4021 6.792 16.6028 6.79128C16.8034 6.79056 17.0023 6.82955 17.1878 6.90601C17.3733 6.98247 17.5419 7.09489 17.6838 7.23678C17.8257 7.37867 17.9381 7.54724 18.0146 7.73277C18.091 7.9183 18.13 8.11713 18.1293 8.31779C18.1286 8.51846 18.0881 8.717 18.0104 8.90198C17.9326 9.08696 17.819 9.25471 17.676 9.39558L17.1593 9.91236L15.0082 7.76207L15.525 7.24452ZM14.4637 8.30734L16.6148 10.4576L10.4689 16.6035C10.3117 16.7609 10.1129 16.8702 9.89586 16.9185L7.46215 17.4592L8.00742 15.0078C8.05286 14.8021 8.15606 14.6142 8.3047 14.4656L14.4637 8.30734Z" fill="#767676"/>
<defs>
<filter id="filter0_d_1931_5792" x="0.462891" y="0.921875" width="24.5381" height="24.5371" filterUnits="userSpaceOnUse" color-interpolation-filters="sRGB">
<feFlood flood-opacity="0" result="BackgroundImageFix"/>
<feColorMatrix in="SourceAlpha" type="matrix" values="0 0 0 0 0 0 0 0 0 0 0 0 0 0 0 0 0 0 127 0" result="hardAlpha"/>
<feOffset dy="1"/>
<feGaussianBlur stdDeviation="1"/>
<feComposite in2="hardAlpha" operator="out"/>
<feColorMatrix type="matrix" values="0 0 0 0 0 0 0 0 0 0 0 0 0 0 0 0 0 0 0.25 0"/>
<feBlend mode="normal" in2="BackgroundImageFix" result="effect1_dropShadow_1931_5792"/>
<feBlend mode="normal" in="SourceGraphic" in2="effect1_dropShadow_1931_5792" result="shape"/>
</filter>
</defs>
</svg>
