<svg width="22" height="18" viewBox="0 0 22 18" fill="none" xmlns="http://www.w3.org/2000/svg">
<g clip-path="url(#clip0_2055_1934)">
<path d="M14.928 9L16.4994 10.1739L17.2852 9.3913L18.8566 9L20.428 9.3913L21.6066 10.9565V12.5217L20.0352 14.8696L16.4994 17.6087L12.5709 14.087L11.7852 12.1304V10.5652L13.3566 9H14.928Z" fill="#F1D0F6"/>
<path d="M9.19245 17.9998C7.59337 17.9968 6.02266 17.5867 4.635 16.8099C3.24734 16.033 2.09061 14.9162 1.27872 13.5694C0.466837 12.2227 0.0278007 10.6924 0.00485434 9.12929C-0.018092 7.5662 0.375843 6.02423 1.14786 4.65523C2.02685 3.09726 3.35867 1.82909 4.97491 1.01107C6.59116 0.193058 8.41923 -0.138058 10.228 0.0595942C12.0367 0.257247 13.7449 0.974792 15.1365 2.12149C16.5281 3.26819 17.5406 4.79255 18.046 6.5018C18.163 6.89783 18.2524 7.30115 18.3136 7.709C18.3205 7.75158 18.3187 7.79508 18.3083 7.83697C18.2979 7.87886 18.2791 7.91832 18.2529 7.95305C18.2268 7.98778 18.1939 8.0171 18.1561 8.03931C18.1183 8.06152 18.0764 8.07617 18.0327 8.08242C17.9891 8.08868 17.9446 8.0864 17.9019 8.07573C17.8592 8.06507 17.819 8.04622 17.7838 8.02027C17.7486 7.99433 17.719 7.96182 17.6967 7.92461C17.6744 7.8874 17.6599 7.84624 17.654 7.80352C17.5971 7.42489 17.5141 7.05046 17.4054 6.6828C16.9366 5.09734 15.9975 3.68336 14.7067 2.6197C13.4159 1.55604 11.8314 0.890467 10.1537 0.707147C8.47592 0.523827 6.78024 0.830996 5.28108 1.58981C3.78191 2.34862 2.54658 3.525 1.73133 4.97017C1.1874 5.9287 0.843325 6.98316 0.719016 8.07254C0.594708 9.16193 0.692634 10.2646 1.00713 11.3167C2.31367 15.7368 7.05457 18.2935 11.576 17.0159C12.0649 16.8779 12.5403 16.6977 12.9967 16.4776C13.0755 16.443 13.1649 16.4395 13.2461 16.468C13.3274 16.4965 13.3942 16.5547 13.4325 16.6303C13.4707 16.706 13.4775 16.7932 13.4513 16.8736C13.4251 16.9541 13.368 17.0214 13.292 17.0615C12.0168 17.6764 10.6143 17.9972 9.19245 17.9994V17.9998Z" fill="#111111"/>
<path d="M14.0939 7.94327C14.0217 7.9432 13.9515 7.92022 13.8938 7.87777C13.8361 7.83532 13.7941 7.7757 13.774 7.70789C13.0453 5.24349 11.6884 3.13965 10.0511 1.9361C9.9804 1.88417 9.93371 1.80692 9.92128 1.72134C9.90885 1.63575 9.93171 1.54885 9.98483 1.47975C10.0379 1.41064 10.117 1.36499 10.2045 1.35285C10.2921 1.3407 10.3809 1.36304 10.4516 1.41497C12.202 2.70173 13.6463 4.92965 14.4146 7.52688C14.4289 7.57546 14.4315 7.62663 14.4222 7.67636C14.4128 7.72608 14.3918 7.773 14.3607 7.81339C14.3295 7.85379 14.2893 7.88655 14.243 7.90909C14.1967 7.93163 14.1456 7.94334 14.0939 7.94327Z" fill="#111111"/>
<path d="M8.25644 16.7172C8.18624 16.7172 8.11788 16.6953 8.0612 16.6548C6.26377 15.3798 4.78252 13.1256 3.99747 10.4721C3.2296 7.87489 3.23557 5.23751 4.01352 3.23585C4.0471 3.15837 4.11004 3.0966 4.18915 3.06346C4.26826 3.03031 4.35741 3.02837 4.43796 3.05802C4.5185 3.08768 4.58419 3.14664 4.62128 3.22257C4.65837 3.2985 4.66398 3.38551 4.63693 3.46539C3.90863 5.3375 3.909 7.82452 4.63693 10.2897C5.38353 12.8077 6.7722 14.936 8.45205 16.1286C8.50912 16.169 8.5516 16.2261 8.5734 16.2917C8.5952 16.3572 8.59519 16.4278 8.57338 16.4933C8.55156 16.5588 8.50906 16.6159 8.45198 16.6563C8.3949 16.6968 8.32618 16.7185 8.25569 16.7183L8.25644 16.7172Z" fill="#111111"/>
<path d="M11.3432 16.5618C11.271 16.5617 11.2008 16.5387 11.1431 16.4963C11.0854 16.4538 11.0433 16.3942 11.0233 16.3264L6.7438 1.85274C6.73154 1.81164 6.72768 1.76859 6.73245 1.72604C6.73721 1.68349 6.7505 1.64227 6.77156 1.60474C6.79262 1.56721 6.82103 1.5341 6.85518 1.50731C6.88933 1.48051 6.92854 1.46056 6.97057 1.44857C7.01261 1.43659 7.05665 1.43282 7.10018 1.43748C7.1437 1.44214 7.18587 1.45513 7.22426 1.47572C7.26265 1.49631 7.29651 1.52408 7.32392 1.55746C7.35133 1.59085 7.37175 1.62918 7.384 1.67027L11.6635 16.1454C11.6773 16.1939 11.6795 16.2449 11.6699 16.2943C11.6604 16.3438 11.6393 16.3905 11.6083 16.4307C11.5774 16.471 11.5374 16.5037 11.4914 16.5265C11.4454 16.5492 11.3947 16.5613 11.3432 16.5618Z" fill="#111111"/>
<path d="M1.80063 11.4177C1.72054 11.4173 1.64326 11.3888 1.58292 11.3373C1.52258 11.2858 1.48321 11.2148 1.47202 11.1373C1.46083 11.0598 1.47856 10.9809 1.52197 10.9151C1.56538 10.8493 1.63156 10.801 1.70842 10.779L16.5138 6.59505C16.5988 6.57086 16.6901 6.58064 16.7676 6.62225C16.8452 6.66386 16.9027 6.73389 16.9274 6.81693C16.9522 6.89998 16.9422 6.98923 16.8996 7.06506C16.8571 7.14089 16.7854 7.19708 16.7005 7.22128L1.89358 11.4049C1.86336 11.4134 1.83207 11.4177 1.80063 11.4177Z" fill="#111111"/>
<path d="M2.20852 6.12292C2.12818 6.12296 2.05053 6.09463 1.98985 6.04315C1.92918 5.99167 1.88956 5.9205 1.87829 5.84274C1.86703 5.76497 1.88487 5.68585 1.92853 5.61992C1.9722 5.55399 2.03875 5.5057 2.11594 5.48392L13.2798 2.32943C13.3219 2.31745 13.3659 2.31368 13.4094 2.31834C13.453 2.323 13.4951 2.33599 13.5335 2.35658C13.5719 2.37716 13.6058 2.40494 13.6332 2.43832C13.6606 2.4717 13.681 2.51004 13.6933 2.55113C13.7055 2.59223 13.7094 2.63528 13.7046 2.67783C13.6998 2.72038 13.6865 2.7616 13.6655 2.79913C13.6444 2.83666 13.616 2.86977 13.5819 2.89656C13.5477 2.92336 13.5085 2.94332 13.4665 2.9553L2.3011 6.10979C2.27103 6.11841 2.23986 6.12283 2.20852 6.12292Z" fill="#111111"/>
<path d="M5.04018 15.6824C4.95987 15.6823 4.88228 15.654 4.82167 15.6024C4.76107 15.5509 4.72152 15.4798 4.7103 15.402C4.69908 15.3243 4.71695 15.2452 4.76062 15.1793C4.80428 15.1134 4.87081 15.0652 4.94798 15.0434L10.5277 13.4662C10.5697 13.4542 10.6137 13.4504 10.6573 13.4551C10.7008 13.4597 10.743 13.4727 10.7814 13.4933C10.8197 13.5139 10.8536 13.5417 10.881 13.575C10.9084 13.6084 10.9288 13.6468 10.9411 13.6879C10.9534 13.7289 10.9572 13.772 10.9525 13.8145C10.9477 13.8571 10.9344 13.8983 10.9133 13.9358C10.8923 13.9734 10.8639 14.0065 10.8297 14.0333C10.7956 14.0601 10.7564 14.08 10.7143 14.092L5.13126 15.6693C5.10166 15.6777 5.07101 15.6821 5.04018 15.6824Z" fill="#111111"/>
<path d="M16.6292 17.9186C16.5682 17.9186 16.5083 17.9023 16.456 17.8716L16.3317 17.7986C15.4094 17.2346 14.5434 16.587 13.7451 15.8644C12.0947 14.3594 11.2578 12.9158 11.2578 11.5735C11.2577 10.9625 11.4518 10.3665 11.8133 9.86797C12.1748 9.36947 12.6859 8.99312 13.2758 8.79098C13.8656 8.58883 14.5052 8.57088 15.106 8.73961C15.7067 8.90834 16.239 9.25541 16.6292 9.73281C17.0193 9.25548 17.5515 8.90844 18.1522 8.73969C18.7528 8.57093 19.3923 8.58879 19.9821 8.79079C20.572 8.9928 21.083 9.36898 21.4446 9.8673C21.8062 10.3656 22.0005 10.9615 22.0006 11.5724C22.0006 12.9147 21.1637 14.3583 19.5129 15.8633C18.7148 16.586 17.8487 17.2336 16.9264 17.7975L16.802 17.8705C16.75 17.9016 16.6902 17.9182 16.6292 17.9186ZM14.2737 9.27591C13.6508 9.27649 13.0536 9.51862 12.6131 9.94917C12.1726 10.3797 11.9248 10.9635 11.9242 11.5724C11.9242 13.0103 13.1616 14.4405 14.2013 15.3867C14.9536 16.0648 15.7666 16.6755 16.6307 17.2114C17.4946 16.6754 18.3075 16.0648 19.0598 15.3867C20.0979 14.4405 21.3369 13.0103 21.3369 11.5724C21.3379 11.0611 21.1643 10.5641 20.8437 10.1601C20.523 9.75613 20.0737 9.46829 19.5668 9.34218C19.0599 9.21608 18.5245 9.25893 18.0453 9.46394C17.5661 9.66896 17.1707 10.0244 16.9215 10.474C16.8928 10.5253 16.8505 10.5681 16.799 10.5979C16.7476 10.6278 16.6889 10.6435 16.629 10.6435C16.5692 10.6435 16.5105 10.6278 16.459 10.5979C16.4076 10.5681 16.3652 10.5253 16.3365 10.474C16.1344 10.1117 15.8361 9.80923 15.4732 9.59842C15.1102 9.38762 14.6959 9.27621 14.2737 9.27591Z" fill="#111111"/>
<path d="M20.0141 11.8961C19.9257 11.8961 19.8409 11.8618 19.7784 11.8007C19.7159 11.7395 19.6808 11.6566 19.6808 11.5702C19.6806 11.3889 19.6068 11.215 19.4757 11.0867C19.3446 10.9584 19.1667 10.8863 18.9812 10.886C18.9365 10.8874 18.892 10.8801 18.8503 10.8644C18.8085 10.8487 18.7705 10.8249 18.7383 10.7945C18.7062 10.7641 18.6806 10.7277 18.6632 10.6875C18.6457 10.6472 18.6367 10.604 18.6367 10.5603C18.6367 10.5165 18.6457 10.4733 18.6632 10.433C18.6806 10.3928 18.7062 10.3564 18.7383 10.326C18.7705 10.2956 18.8085 10.2719 18.8503 10.2561C18.892 10.2404 18.9365 10.2331 18.9812 10.2346C19.3435 10.2349 19.6908 10.3758 19.9469 10.6262C20.203 10.8766 20.3471 11.2161 20.3475 11.5702C20.3475 11.6566 20.3124 11.7395 20.2499 11.8007C20.1873 11.8618 20.1026 11.8961 20.0141 11.8961Z" fill="#111111"/>
</g>
<defs>
<clipPath id="clip0_2055_1934">
<rect width="22" height="18" fill="white"/>
</clipPath>
</defs>
</svg>
