<svg width="95" height="89" viewBox="0 0 95 89" fill="none" xmlns="http://www.w3.org/2000/svg">
<path d="M73.4468 22.477C64.1372 13.1073 66.7987 7.23548 60.4325 2.897C50.6339 -3.778 32.3406 1.96518 21.5481 11.1515C8.32887 22.3912 1.50911 42.9245 9.27785 61.4997C17.5516 81.2792 39.3212 91.5506 58.7458 88.456C76.0922 85.6927 93.1448 72.021 94.853 55.6247C95.0385 53.8468 95.8555 44.2402 90.122 35.9567C85.3825 29.1112 80.8306 29.9047 73.4468 22.477Z" fill="#CBE6E4"/>
<path d="M81.9663 81.9854H43.158C41.4863 81.9854 40.3014 80.6343 40.5127 78.9669L50.071 3.47671C50.2855 1.81037 51.8092 0.458212 53.482 0.458212L90.3419 0.0292969C94.5721 0.0292969 95.1469 1.81144 94.9356 3.47778L85.3794 78.9669C85.166 80.6365 83.6391 81.9854 81.9663 81.9854Z" fill="black"/>
<path d="M79.6304 81.9859H40.8231C39.1504 81.9859 37.9655 80.6306 38.1767 78.9578L47.733 3.22736C47.9474 1.55566 49.4701 0.199219 51.1428 0.199219H89.9511C91.6228 0.199219 92.8077 1.55566 92.5965 3.22736L83.0413 78.9578C82.8301 80.6306 81.3031 81.9859 79.6304 81.9859Z" fill="#3876BF"/>
<path d="M40.3885 79.0606L49.5137 6.75401C49.541 6.56322 49.6351 6.3883 49.7792 6.2603C49.9232 6.13231 50.108 6.05952 50.3007 6.05488H89.317C89.4057 6.05266 89.4937 6.06998 89.5748 6.10561C89.656 6.14124 89.7283 6.19431 89.7867 6.26105C89.845 6.32778 89.8879 6.40655 89.9124 6.49174C89.9369 6.57694 89.9423 6.66649 89.9282 6.75401L80.8041 79.0606C80.7764 79.2512 80.6822 79.4259 80.5382 79.5538C80.3942 79.6817 80.2096 79.7547 80.0171 79.7597H40.9997C40.9111 79.762 40.8231 79.7446 40.7419 79.709C40.6607 79.6734 40.5884 79.6203 40.5301 79.5536C40.4717 79.4868 40.4288 79.4081 40.4043 79.3229C40.3798 79.2377 40.3744 79.1481 40.3885 79.0606Z" fill="white"/>
<path d="M70.9305 3.68802C71.4171 3.23114 71.4851 2.51325 71.0826 2.08457C70.68 1.65589 69.9593 1.67875 69.4727 2.13563C68.9862 2.59251 68.9181 3.3104 69.3207 3.73908C69.7232 4.16776 70.444 4.1449 70.9305 3.68802Z" fill="white"/>
<path d="M80.0172 79.923H40.9998C40.8883 79.9254 40.7777 79.9034 40.6756 79.8584C40.5736 79.8134 40.4826 79.7466 40.4092 79.6626C40.3358 79.5787 40.2817 79.4797 40.2507 79.3725C40.2197 79.2654 40.2126 79.1528 40.2299 79.0426L47.0389 25.0743C47.0442 25.0316 47.0662 24.9928 47.1001 24.9664C47.134 24.9399 47.177 24.928 47.2196 24.9333C47.2623 24.9385 47.3011 24.9605 47.3276 24.9944C47.354 25.0283 47.3659 25.0713 47.3606 25.114L40.5484 79.0823C40.539 79.148 40.5436 79.215 40.5621 79.2788C40.5806 79.3426 40.6125 79.4017 40.6556 79.4522C40.6994 79.5003 40.7529 79.5385 40.8126 79.5643C40.8724 79.59 40.9369 79.6026 41.002 79.6013H80.0172C80.1708 79.5968 80.3179 79.5384 80.4326 79.4362C80.5473 79.334 80.6224 79.1946 80.6445 79.0426L89.7686 6.73279C89.7785 6.66704 89.7741 6.59992 89.7556 6.53606C89.737 6.47219 89.7049 6.4131 89.6614 6.36285C89.6174 6.31606 89.5639 6.27915 89.5046 6.25457C89.4452 6.22998 89.3814 6.21828 89.3172 6.22023H50.3009C50.1473 6.2244 50 6.28259 49.8851 6.38457C49.7702 6.48656 49.6949 6.62581 49.6725 6.77782L49.3572 9.27626C49.3546 9.29738 49.3478 9.31777 49.3372 9.33626C49.3266 9.35475 49.3125 9.37098 49.2957 9.38402C49.2789 9.39707 49.2597 9.40667 49.2391 9.41228C49.2186 9.41789 49.1971 9.4194 49.176 9.41673C49.1549 9.41405 49.1345 9.40724 49.116 9.39669C49.0975 9.38613 49.0813 9.37204 49.0683 9.35521C49.0552 9.33839 49.0456 9.31915 49.04 9.29861C49.0344 9.27808 49.0329 9.25663 49.0355 9.23551L49.3519 6.73279C49.3866 6.50431 49.5008 6.29541 49.6744 6.14282C49.848 5.99024 50.0698 5.90374 50.3009 5.89855H89.3172C89.4277 5.89668 89.5374 5.9186 89.6388 5.96281C89.7402 6.00703 89.8309 6.07251 89.9048 6.15482C89.978 6.23961 90.0322 6.33905 90.0638 6.4465C90.0954 6.55395 90.1037 6.66691 90.0881 6.77782L80.964 79.0823C80.9303 79.3114 80.8169 79.5213 80.6437 79.6751C80.4705 79.8288 80.2487 79.9166 80.0172 79.923Z" fill="black"/>
<path d="M68.0407 74.1391H52.5053C51.4952 74.1391 50.6921 73.1966 50.7468 72.0771L50.9612 67.6121C51.0116 66.5806 51.7751 65.771 52.7048 65.7613L68.2423 65.6134C69.2577 65.6037 70.0651 66.5473 70.0158 67.6732L69.7949 72.2841C69.7488 73.3253 68.9768 74.1391 68.0407 74.1391Z" fill="#3876BF"/>
<path d="M56.2628 70.4754L56.0483 72.176H55.2773L55.8671 67.5898H57.5645C58.0599 67.5898 58.4363 67.7232 58.6937 67.9898C58.951 68.2564 59.0514 68.6096 58.995 69.0492C58.9765 69.2532 58.9171 69.4514 58.8204 69.6319C58.7236 69.8124 58.5916 69.9717 58.432 70.1001C58.1139 70.3503 57.6982 70.4754 57.1849 70.4754H56.2628ZM56.3453 69.832H57.2718C57.5062 69.8447 57.7375 69.7741 57.9248 69.6326C58.095 69.4859 58.2009 69.2784 58.2197 69.0546C58.2452 68.9508 58.2453 68.8423 58.2202 68.7384C58.195 68.6345 58.1452 68.5382 58.0749 68.4575C58.0047 68.3769 57.9161 68.3143 57.8167 68.2751C57.7172 68.2359 57.6098 68.2212 57.5034 68.2321H56.5555L56.3453 69.832Z" fill="white"/>
<path d="M61.3413 71.1076H59.6256L59.1291 72.1799H58.3281L60.5928 67.5938H61.2844L62.3739 72.1799H61.5697L61.3413 71.1076ZM59.9215 70.4643H61.2083L60.8105 68.561L59.9215 70.4643Z" fill="white"/>
<path d="M64.1743 69.7634L65.4739 67.5898H66.3317L64.4724 70.485L64.2579 72.1739H63.4751L63.6896 70.485L62.5723 67.5898H63.4301L64.1743 69.7634Z" fill="white"/>
<path d="M50.4688 57.2114L55.4978 14.6244C55.4978 13.0878 56.6773 11.8418 58.1399 11.8418H82.2664C83.7258 11.8418 84.9075 13.0878 84.9075 14.6244L79.8806 57.2114C79.8806 58.748 78.7011 59.9994 77.2384 59.9994H53.1119C51.6504 59.994 50.4688 58.748 50.4688 57.2114Z" fill="#BDD5F0"/>
<path d="M49.9214 57.8503L38.1016 18.4318C38.0019 18.0997 37.9687 17.7511 38.0038 17.4061C38.0389 17.0611 38.1416 16.7263 38.3061 16.421C38.4706 16.1157 38.6937 15.8458 38.9625 15.6267C39.2314 15.4076 39.5408 15.2437 39.873 15.1442L62.9851 8.21293C63.3174 8.11326 63.666 8.08002 64.0111 8.11511C64.3562 8.15019 64.691 8.25292 64.9964 8.41741C65.3018 8.58191 65.5718 8.80496 65.791 9.07382C66.0102 9.34268 66.1742 9.65208 66.2738 9.98435L78.0937 49.4028C78.295 50.0737 78.2216 50.797 77.8896 51.4138C77.5576 52.0305 76.9942 52.4901 76.3233 52.6915L53.2101 59.6195C52.5394 59.8209 51.8161 59.7477 51.1994 59.4159C50.5827 59.0841 50.123 58.5209 49.9214 57.8503Z" fill="#9AD5D1"/>
<path d="M52.4464 59.8949C51.8443 59.8933 51.2586 59.6981 50.7759 59.3382C50.2932 58.9783 49.939 58.4727 49.7656 57.8961L37.9458 18.4788C37.7328 17.7668 37.8111 16.9994 38.1636 16.3452C38.516 15.6909 39.1138 15.2033 39.8255 14.9896L62.9376 8.05828C63.6496 7.84616 64.4166 7.92489 65.0706 8.27723C65.7246 8.62956 66.2123 9.22677 66.4269 9.93801L78.2467 49.3564C78.4594 50.0681 78.3811 50.8351 78.0289 51.4891C77.6767 52.1431 77.0793 52.6306 76.3681 52.8446L53.2549 59.7759C52.9925 59.8545 52.7202 59.8946 52.4464 59.8949ZM63.7408 8.26202C63.4998 8.26255 63.2602 8.29868 63.0298 8.36925L39.9177 15.2973C39.6058 15.3909 39.3153 15.545 39.0628 15.7508C38.8104 15.9567 38.601 16.2102 38.4466 16.497C38.2921 16.7837 38.1957 17.0981 38.1628 17.4221C38.1298 17.7462 38.161 18.0735 38.2546 18.3855L50.0702 57.8039C50.1637 58.1159 50.3178 58.4064 50.5237 58.6588C50.7295 58.9112 50.983 59.1206 51.2698 59.2751C51.5566 59.4295 51.871 59.5259 52.195 59.5589C52.519 59.5918 52.8464 59.5606 53.1584 59.467L76.2758 52.5422C76.9052 52.3522 77.4337 51.9205 77.7454 51.3417C78.0572 50.7629 78.1268 50.0841 77.939 49.454L66.118 10.0302C65.9641 9.51937 65.6498 9.07164 65.2217 8.75321C64.7935 8.43478 64.2743 8.26256 63.7408 8.26202Z" fill="black"/>
<path d="M61.986 19.8685L60.4262 14.6662C60.2351 14.0286 59.5632 13.6667 58.9256 13.8579L54.85 15.0798C54.2124 15.271 53.8505 15.9428 54.0417 16.5804L55.6015 21.7828C55.7926 22.4204 56.4645 22.7823 57.1021 22.5911L61.1777 21.3692C61.8153 21.178 62.1772 20.5061 61.986 19.8685Z" fill="#52BBB3"/>
<path d="M50.9897 39.0973L50.0252 39.3865C49.6435 39.501 49.4268 39.9032 49.5412 40.285L51.6239 47.2314C51.7384 47.6132 52.1407 47.8298 52.5224 47.7154L53.4869 47.4262C53.8687 47.3118 54.0854 46.9095 53.9709 46.5277L51.8882 39.5813C51.7737 39.1996 51.3715 38.9829 50.9897 39.0973Z" fill="#111111"/>
<path d="M44.7026 18.1247L43.7381 18.4138C43.3564 18.5283 43.1397 18.9306 43.2541 19.3123L47.2129 32.5159C47.3273 32.8977 47.7296 33.1144 48.1114 32.9999L49.0758 32.7108C49.4576 32.5963 49.6743 32.194 49.5598 31.8122L45.6011 18.6087C45.4866 18.2269 45.0844 18.0102 44.7026 18.1247Z" fill="#111111"/>
<path d="M67.3472 21.9789L64.5812 12.7534C64.491 12.4527 64.1742 12.2821 63.8736 12.3722L63.5028 12.4834C63.2022 12.5735 63.0315 12.8903 63.1217 13.191L65.8877 22.4165C65.9778 22.7172 66.2946 22.8878 66.5953 22.7977L66.9661 22.6865C67.2667 22.5964 67.4374 22.2796 67.3472 21.9789Z" fill="#111111"/>
<path d="M51.7049 16.0254L49.4914 16.689C49.1273 16.7982 48.9205 17.1819 49.0297 17.5461L50.8864 23.7386C50.9956 24.1028 51.3793 24.3095 51.7435 24.2003L53.9569 23.5367C54.3211 23.4275 54.5278 23.0437 54.4186 22.6796L52.562 16.4871C52.4528 16.1229 52.0691 15.9162 51.7049 16.0254Z" fill="#52BBB3"/>
<path d="M54.6404 25.8183L52.427 26.482C52.0628 26.5912 51.8561 26.9749 51.9653 27.3391L53.8219 33.5316C53.9311 33.8958 54.3149 34.1025 54.6791 33.9933L56.8925 33.3296C57.2567 33.2205 57.4634 32.8367 57.3542 32.4725L55.4975 26.28C55.3883 25.9159 55.0046 25.7091 54.6404 25.8183Z" fill="#52BBB3"/>
<path d="M57.5779 35.6113L55.3645 36.2749C55.0003 36.3841 54.7936 36.7679 54.9028 37.1321L56.7594 43.3245C56.8686 43.6887 57.2524 43.8954 57.6166 43.7862L59.83 43.1226C60.1942 43.0134 60.4009 42.6297 60.2917 42.2655L58.435 36.073C58.3258 35.7088 57.9421 35.5021 57.5779 35.6113Z" fill="#52BBB3"/>
<path d="M60.5135 45.4043L58.3 46.0679C57.9359 46.1771 57.7291 46.5609 57.8383 46.925L59.695 53.1175C59.8042 53.4817 60.1879 53.6884 60.5521 53.5792L62.7655 52.9156C63.1297 52.8064 63.3364 52.4226 63.2272 52.0585L61.3706 45.866C61.2614 45.5018 60.8776 45.2951 60.5135 45.4043Z" fill="#52BBB3"/>
<g clip-path="url(#clip0_2055_1131)">
<path d="M34.3632 50.8111L35.0166 49.7181C35.0166 49.7181 37.0032 49.3861 37.5466 49.5413C38.09 49.6965 41.8225 50.5637 42.2851 50.8587C42.7478 51.1537 42.5201 52.2082 40.9673 51.5097C40.3908 51.2502 39.551 51.2382 39.1863 51.1734C39.7037 51.4808 40.3173 51.7979 40.3173 51.7979C40.8976 52.0756 40.7895 52.9745 39.6173 52.6868C38.6084 52.4388 34.7649 51.7081 34.3757 51.5529C34.2061 51.4857 33.7185 51.2152 34.3632 50.8111Z" fill="white"/>
<path d="M40.034 52.8387C40.4366 52.8387 40.6547 52.66 40.7273 52.4573C40.8262 52.1801 40.6682 51.8591 40.3588 51.7111C40.3564 51.7111 40.0201 51.5367 39.6381 51.3239C40.035 51.3647 40.5452 51.4253 40.9266 51.5968C42.0907 52.121 42.4482 51.6665 42.5303 51.5146C42.5965 51.3898 42.6132 51.2446 42.577 51.108C42.5409 50.9714 42.4545 50.8534 42.3353 50.7776C42.0033 50.5658 40.2478 50.119 38.4788 49.6789C38.0464 49.5717 37.7068 49.4867 37.5718 49.4488C37.0135 49.2892 35.0817 49.6092 34.9995 49.6227L34.9558 49.6304L34.2913 50.7416C34.0454 50.9006 33.9281 51.0659 33.943 51.2331C33.9651 51.4733 34.2515 51.6074 34.3389 51.6424C34.57 51.7347 35.8763 52.0018 37.2585 52.2848C38.2396 52.4856 39.1663 52.6754 39.593 52.7801C39.7371 52.8174 39.8852 52.8371 40.034 52.8387ZM38.6888 50.9914L39.1385 51.2576C39.652 51.5627 40.268 51.8822 40.2742 51.8822C40.4967 51.9888 40.6105 52.2074 40.5471 52.3915C40.4837 52.5755 40.2065 52.7311 39.6415 52.5923C39.2091 52.4866 38.2823 52.2968 37.2993 52.0955C36.0473 51.8394 34.6281 51.5492 34.4129 51.4632C34.3168 51.4238 34.1472 51.3278 34.1371 51.2148C34.129 51.124 34.2279 51.0087 34.4158 50.891L34.435 50.879L35.0773 49.8043C35.3704 49.7562 37.0471 49.4973 37.5213 49.6323C37.6597 49.6717 38.0017 49.7567 38.4341 49.8643C39.6458 50.1656 41.9005 50.7262 42.2339 50.9386C42.3117 50.989 42.368 51.0665 42.3918 51.1561C42.4156 51.2457 42.4052 51.341 42.3627 51.4234C42.2349 51.6602 41.8116 51.7842 41.0069 51.4234C40.5687 51.2264 39.9936 51.1682 39.5733 51.1255C39.4248 51.1106 39.2965 51.0976 39.2028 51.0818L38.6888 50.9914Z" fill="#1D1D1B"/>
<path d="M41.222 47.5001C42.4567 47.5453 44.1656 47.5116 44.6278 47.5001C44.6628 47.4993 44.6972 47.5092 44.7264 47.5285C44.7556 47.5479 44.7782 47.5757 44.7911 47.6082L44.8911 47.858C44.9056 47.893 44.9083 47.9319 44.8985 47.9685C44.8888 48.0052 44.8673 48.0376 44.8373 48.0608L36.998 54.183C36.9678 54.2066 36.9306 54.2195 36.8923 54.2195H33.584C33.5488 54.2197 33.5144 54.209 33.4855 54.1889C33.4565 54.1689 33.4344 54.1404 33.4222 54.1074C33.4099 54.0744 33.4081 54.0385 33.4169 54.0044C33.4258 53.9703 33.4448 53.9397 33.4716 53.9169C34.8961 52.6941 40.1977 48.1516 41.1192 47.5299C41.1494 47.5093 41.1854 47.4989 41.222 47.5001Z" fill="#1D1D1B"/>
<path d="M33.5848 54.315H36.8931C36.9528 54.315 37.0108 54.295 37.0579 54.2583L44.8972 48.1332C44.9427 48.0973 44.9755 48.0477 44.9906 47.9917C45.0058 47.9357 45.0025 47.8763 44.9813 47.8223L44.8813 47.573C44.8612 47.5234 44.8268 47.4809 44.7825 47.4508C44.7382 47.4208 44.686 47.4046 44.6325 47.4044H44.6262C44.1386 47.4154 42.4532 47.4486 41.2262 47.4044C41.1691 47.4031 41.1131 47.4199 41.0662 47.4524C40.1505 48.0717 34.9747 52.5028 33.41 53.8461C33.3685 53.8818 33.3389 53.9294 33.3252 53.9824C33.3115 54.0354 33.3144 54.0913 33.3335 54.1426C33.3525 54.1939 33.3868 54.2382 33.4317 54.2694C33.4767 54.3007 33.5301 54.3174 33.5848 54.3174V54.315ZM44.6325 47.5965C44.6476 47.5967 44.6624 47.6013 44.6748 47.6099C44.6873 47.6185 44.697 47.6305 44.7026 47.6446L44.8025 47.8944C44.8086 47.9096 44.8097 47.9264 44.8054 47.9423C44.8012 47.9581 44.7919 47.9722 44.779 47.9823L36.9397 54.107C36.9259 54.1175 36.909 54.1231 36.8917 54.1228H33.5848C33.5694 54.1226 33.5545 54.1176 33.542 54.1087C33.5294 54.0997 33.5199 54.0871 33.5147 54.0726C33.5095 54.0581 33.5088 54.0424 33.5128 54.0275C33.5167 54.0126 33.5251 53.9993 33.5368 53.9893C35.0992 52.6479 40.2682 48.224 41.1757 47.609C41.189 47.5998 41.2048 47.5951 41.2209 47.5956C42.4532 47.6403 44.1439 47.6076 44.632 47.5956L44.6325 47.5965Z" fill="#1D1D1B"/>
<path d="M5.97824 62.6955C5.99986 58.9875 5.22012 60.1237 5.1615 56.7597C5.12787 54.9148 4.2727 39.3615 5.59389 36.3338C6.91509 33.306 6.93912 32.3942 10.3983 29.8728C13.8574 27.3515 23.7083 32.8299 24.4068 34.3068C25.1054 35.7837 29.5643 44.2337 30.0731 47.8346C31.0854 54.9998 28.4132 56.8222 27.3826 59.8042C27.0415 60.7935 27.5681 63.7112 27.668 64.7528C28.232 70.6406 31.2891 86.8555 31.2891 86.8555C31.2891 86.8555 5.7779 86.9035 2.1828 86.9035C1.40689 78.6375 5.97824 62.6955 5.97824 62.6955Z" fill="#DA00FF"/>
<path d="M2.09769 87.0022H2.18417C5.7394 87.0022 31.0358 86.9542 31.2909 86.9542H31.4043L31.3832 86.8408C31.3524 86.6784 28.3213 70.5644 27.7645 64.7463C27.7419 64.5109 27.6982 64.1827 27.6473 63.8027C27.4758 62.5209 27.2149 60.5838 27.4743 59.8381C27.7362 59.08 28.1051 58.3968 28.4953 57.6761C29.6339 55.5699 30.9243 53.1821 30.1677 47.8271C29.7324 44.748 26.4375 38.1674 25.0308 35.3573C24.7906 34.8735 24.5984 34.4925 24.4932 34.272C24.253 33.7613 23.0087 32.8263 21.3271 31.8904C19.427 30.8334 17.3208 29.9663 15.5485 29.5156C13.1789 28.9122 11.4258 29.0083 10.3386 29.8015C7.30274 32.0144 6.87947 33.0204 5.95655 35.2304C5.81627 35.5667 5.67117 35.9117 5.50158 36.3009C4.36054 38.9183 4.82897 50.766 5.00673 55.2259C5.03652 55.9687 5.05766 56.5058 5.06246 56.7671C5.09177 58.392 5.29019 58.9849 5.48236 59.558C5.69279 60.1869 5.8917 60.7807 5.88161 62.6876C5.80906 62.9413 4.70021 66.8612 3.69466 71.6858C2.73907 76.2716 1.68452 82.6365 2.08664 86.9157L2.09769 87.0022ZM31.1756 86.762C29.3178 86.7654 6.00076 86.8101 2.27305 86.8101C1.89543 82.5529 2.93942 76.2644 3.8854 71.7242C4.91881 66.7666 6.06129 62.7654 6.07282 62.7256L6.07618 62.7131V62.6996C6.08723 60.751 5.87344 60.1125 5.66685 59.4951C5.47948 58.9359 5.28587 58.3574 5.25704 56.7619C5.25224 56.4981 5.23061 55.9605 5.20131 55.2163C5.02499 50.7684 4.55704 38.9529 5.68174 36.3758C5.85182 35.9852 6.00364 35.623 6.13768 35.3025C7.07501 33.0627 7.4632 32.1359 10.4558 29.9542C11.4801 29.2072 13.226 29.1192 15.5052 29.6991C19.5447 30.7278 23.8965 33.4499 24.3236 34.3517C24.4284 34.5727 24.6201 34.9561 24.8627 35.4409C26.2636 38.2414 29.5484 44.8023 29.9793 47.8502C30.7274 53.1446 29.4508 55.5026 28.3285 57.5829C27.9341 58.3127 27.5598 59.0022 27.2946 59.7752C27.0222 60.5641 27.2745 62.4503 27.4585 63.8272C27.5094 64.2058 27.5546 64.5325 27.5752 64.7641C28.108 70.3324 30.9013 85.3029 31.1746 86.762H31.1756Z" fill="#1D1D1B"/>
<path d="M15.3915 33.2852C15.3915 33.2852 26.0994 46.7255 25.7497 50.1419C25.3999 53.5583 27.2237 55.925 27.2237 55.925C27.2237 55.925 29.4442 50.6781 27.67 45.349C26.0053 40.3486 24.3747 37.7398 24.3747 37.7398L15.3915 33.2852Z" fill="black"/>
<path d="M27.243 56.0662L27.291 55.9523C27.2963 55.9394 27.8531 54.61 28.1841 52.6464C28.4897 50.8342 28.6607 48.0923 27.7392 45.3255C26.0909 40.3745 24.4531 37.7273 24.4382 37.7009L24.4271 37.6836L24.4089 37.6745L15.1364 33.0762L15.3382 33.3298C15.4434 33.4639 26.0236 46.7855 25.6791 50.1342C25.3308 53.5401 27.1493 55.9442 27.1685 55.9682L27.243 56.0662ZM24.3248 37.7946C24.4689 38.0295 26.0294 40.646 27.6028 45.3711C28.5156 48.1096 28.3451 50.8232 28.0429 52.6186C27.8663 53.695 27.5862 54.7519 27.2064 55.7746C26.8701 55.2797 25.5211 53.0966 25.8228 50.1486C25.9693 48.714 24.2667 45.4312 20.7619 40.3909C18.5672 37.2339 16.3188 34.3431 15.6462 33.4918L24.3248 37.7946Z" fill="#1D1D1B"/>
<path d="M11.8781 55.1998C11.8781 55.1998 13.4372 50.8758 14.4855 45.5549C15.1254 42.3052 16.4985 32.6868 9.75365 31.8845C3.00881 31.0821 4.41457 53.3193 3.66268 57.7139C3.5738 58.2347 8.40267 56.839 11.8781 55.1998Z" fill="#DA00FF"/>
<path d="M3.92652 57.9175C4.55108 57.9175 5.88862 57.537 6.72986 57.2776C8.48537 56.7361 10.4254 55.9919 11.9186 55.2867L11.9546 55.2694L11.9681 55.2324C11.9834 55.1886 13.5415 50.8411 14.5792 45.5755C14.8439 44.2303 15.1558 42.1855 15.1442 40.0783C15.1279 37.4133 14.6004 35.3484 13.5756 33.9407C12.6786 32.7079 11.3963 31.9848 9.76478 31.7907C8.94467 31.6946 8.20336 31.9257 7.56006 32.4806C4.369 35.2331 4.06776 45.477 3.87271 52.256C3.80064 54.7284 3.74347 56.6809 3.56955 57.6975C3.56397 57.7276 3.56701 57.7586 3.57832 57.787C3.58962 57.8154 3.60874 57.84 3.63345 57.858C3.68822 57.8993 3.79007 57.9175 3.92652 57.9175ZM11.8028 55.1295C10.3187 55.8271 8.40274 56.5608 6.66837 57.0955C4.78362 57.6768 3.91258 57.7825 3.76269 57.7124C3.93613 56.6775 3.9933 54.7274 4.06536 52.2618C4.25994 45.5145 4.55877 35.3234 7.68737 32.6243C8.2884 32.1059 8.98023 31.8892 9.74412 31.9795C11.3204 32.1669 12.558 32.864 13.4223 34.0517C14.4226 35.4262 14.9376 37.4537 14.954 40.0773C14.9669 42.1692 14.6556 44.2005 14.3928 45.5366C13.4089 50.5308 11.9565 54.6943 11.8028 55.1295Z" fill="#1D1D1B"/>
<path d="M33.4125 12.8929C31.2784 11.0062 31.5839 10.5868 27.9014 9.55723C25.0284 9.477 22.0569 9.72202 20.2677 9.17961C18.4786 8.63719 16.0538 10.2505 14.908 12.596C13.4955 15.4849 13.1304 21.6365 12.9344 23.1772C12.6101 25.7543 10.6374 26.9593 9.62848 27.9687C8.61956 28.9781 9.47281 29.1318 8.15065 29.5988C6.82849 30.0658 7.21957 32.8793 7.21957 32.8793C7.21957 32.8793 8.65655 30.6212 11.1414 31.0814C13.6262 31.5417 14.4746 32.7198 16.7711 33.9492C18.8942 35.0854 24.7646 38.327 26.3952 38.5614C28.0258 38.7959 28.1248 35.5957 27.6362 33.2881C28.7695 32.7116 28.2607 31.6988 28.2607 31.6988C28.2607 31.6988 29.8135 31.3885 29.9687 29.9135C30.1239 28.4385 34.7471 23.1614 35.5475 19.523C36.2225 16.4482 35.5466 14.7777 33.4125 12.8929Z" fill="#F1D0F6"/>
<path d="M26.5594 38.6413C26.7016 38.6421 26.8423 38.6126 26.9722 38.5546C27.102 38.4966 27.218 38.4115 27.3122 38.305C28.0862 37.4772 28.1016 35.1821 27.7172 33.3209C28.6536 32.815 28.4528 32.0016 28.3591 31.7426C28.6915 31.6499 29.9032 31.2233 30.0406 29.917C30.1035 29.3198 30.9597 28.0216 31.9513 26.5188C33.3753 24.3597 35.1476 21.6726 35.617 19.5361C35.9581 17.9848 35.9533 16.7779 35.6012 15.7382C35.2649 14.7432 34.6038 13.8482 33.4594 12.8368C32.9953 12.4261 32.6508 12.0893 32.3472 11.7924C31.2648 10.7354 30.817 10.2953 27.92 9.48624L27.9027 9.48336C27.0619 9.46078 26.2115 9.46558 25.389 9.47038C23.4116 9.48192 21.5455 9.49297 20.2882 9.1115C19.4105 8.84437 18.3521 9.0697 17.3095 9.74472C16.3006 10.3967 15.4022 11.4263 14.8449 12.5649C13.6616 14.9849 13.2181 19.5837 12.9798 22.0546C12.9318 22.535 12.8967 22.9136 12.865 23.1687C12.6046 25.2346 11.2906 26.3905 10.2351 27.3187C9.99489 27.5287 9.77005 27.7271 9.57932 27.9179C9.12771 28.3695 9.03642 28.6616 8.96964 28.8754C8.88797 29.1363 8.84329 29.2804 8.1308 29.5317C6.77117 30.0121 7.13342 32.7703 7.14975 32.8875L7.17665 33.0797L7.28187 32.9144C7.29628 32.8923 8.72318 30.7015 11.1297 31.1483C12.7632 31.4525 13.7034 32.0809 14.7906 32.8087C15.3402 33.1768 15.9638 33.5938 16.7388 34.0098C16.9588 34.1276 17.2192 34.2678 17.5108 34.4254C20.0975 35.8187 24.9124 38.4179 26.3869 38.6283C26.444 38.6367 26.5016 38.6411 26.5594 38.6413ZM33.4118 12.8926L33.3638 12.9469C35.5887 14.9138 36.1215 16.5694 35.4777 19.5073C35.0141 21.6174 33.2499 24.292 31.8322 26.4415C30.7877 28.0202 29.9618 29.2693 29.8974 29.9002C29.7495 31.304 28.264 31.6197 28.2467 31.6225L28.1544 31.6413L28.1967 31.7258C28.2159 31.7643 28.657 32.6829 27.6029 33.2181L27.5548 33.2435L27.5664 33.2974C27.9546 35.1317 27.9565 37.407 27.2084 38.2065C27.1096 38.3174 26.9841 38.4013 26.8437 38.4501C26.7034 38.499 26.553 38.5112 26.4066 38.4856C24.9581 38.2786 20.1576 35.6895 17.5791 34.2986C17.287 34.141 17.0266 34.0007 16.8065 33.883C16.0378 33.4713 15.444 33.0739 14.8704 32.6896C13.7697 31.9531 12.8194 31.317 11.1556 31.0081C9.84596 30.7649 8.82935 31.2761 8.20623 31.7475C7.85426 32.0146 7.54008 32.3281 7.27226 32.6795C7.21557 32.0511 7.12189 30.04 8.17837 29.6671C8.924 29.4039 9.00952 29.229 9.10705 28.9177C9.17239 28.7072 9.25454 28.4459 9.68069 28.0197C9.86806 27.8319 10.0924 27.6354 10.3298 27.4264C11.3468 26.5323 12.7406 25.3071 13.0072 23.1865C13.0399 22.929 13.0764 22.5489 13.1225 22.068C13.3435 19.7816 13.8024 15.0243 14.9737 12.6274C16.1209 10.2761 18.537 8.72858 20.2464 9.24842C21.523 9.63614 23.401 9.62509 25.3871 9.61356C26.2038 9.60875 27.0523 9.60395 27.8854 9.62653C30.7392 10.425 31.1792 10.8555 32.242 11.8947C32.547 12.193 32.893 12.5313 33.3599 12.9445L33.4118 12.8926Z" fill="#1D1D1B"/>
<path d="M41.3589 47.9806C42.7959 48.0334 44.8008 47.9806 44.8008 47.9806L36.9514 54.7019H33.1199C33.1199 54.7019 40.2972 48.7372 41.2729 48.007C41.2978 47.9888 41.3281 47.9795 41.3589 47.9806Z" fill="#1D1D1B"/>
<path d="M33.1214 54.7965H36.9528C36.9757 54.7965 36.9979 54.7883 37.0153 54.7735L44.8647 48.0521C44.8798 48.0392 44.8906 48.0219 44.8955 48.0026C44.9004 47.9834 44.8992 47.963 44.892 47.9445C44.8853 47.9257 44.8727 47.9095 44.8561 47.8984C44.8395 47.8873 44.8197 47.8819 44.7998 47.883C44.7796 47.883 42.782 47.9368 41.3637 47.883C41.3109 47.881 41.2591 47.8971 41.2167 47.9286C40.2501 48.6517 33.1314 54.5649 33.0599 54.6245C33.0446 54.6371 33.0337 54.6542 33.0285 54.6733C33.0233 54.6923 33.0241 54.7126 33.0308 54.7312C33.0375 54.7498 33.0498 54.7659 33.066 54.7772C33.0823 54.7886 33.1016 54.7946 33.1214 54.7946V54.7965ZM36.9168 54.6043H33.387C34.567 53.6252 40.4619 48.7338 41.332 48.0848C41.3354 48.0819 41.3393 48.0797 41.3435 48.0784C41.3477 48.0771 41.3521 48.0766 41.3565 48.0771C42.4702 48.1179 43.9379 48.0939 44.5351 48.0814L36.9168 54.6043Z" fill="#1D1D1B"/>
<path d="M21.525 26.0866C21.525 26.0866 24.4023 29.6385 28.2621 29.7903C29.1341 29.8249 29.6395 29.2138 30.143 28.4571C30.5754 27.808 30.8839 27.3684 31.2903 26.5834C31.2903 26.5834 32.8844 26.4392 32.7422 26.126C32.3997 25.3727 32.2459 24.0832 32.3185 23.8679C32.5289 23.276 33.5421 20.0061 33.6891 18.9112C33.7276 18.6782 33.7612 18.4582 33.7881 18.2626C33.8635 17.8365 33.7799 17.2508 33.6344 16.6604C33.3461 15.478 32.8099 14.275 32.8099 14.275C30.4784 9.61085 30.6168 15.8556 28.77 20.0105C28.2934 21.0833 27.6847 22.0173 26.8669 22.588C22.8793 25.3712 21.525 26.0866 21.525 26.0866Z" fill="white"/>
<path d="M33.8164 18.0503C33.8164 18.0503 31.1212 18.6557 29.2955 18.635C29.3118 18.635 30.7162 12.8798 31.1942 12.716C31.162 12.7424 31.7654 12.4008 32.1599 13.1436C32.1507 13.1532 33.6305 15.2868 33.8164 18.0503Z" fill="black"/>
<path d="M28.3284 29.8875C29.2283 29.8875 29.7567 29.2082 30.2213 28.5101L30.3654 28.2929C30.7181 27.7644 30.9987 27.3455 31.3489 26.6738C31.715 26.6383 32.6667 26.5206 32.8186 26.2597C32.8341 26.2336 32.843 26.2041 32.8445 26.1738C32.846 26.1435 32.8401 26.1133 32.8272 26.0858C32.4774 25.3171 32.3506 24.0655 32.4068 23.8978C32.6336 23.2617 33.6348 20.0197 33.7818 18.9238C33.8212 18.687 33.8544 18.4674 33.8808 18.2752C33.9495 17.888 33.8976 17.3355 33.7251 16.6369C33.4369 15.4603 32.9007 14.2477 32.8949 14.2347C32.28 13.0039 31.8183 12.4773 31.3955 12.5244C30.7743 12.5936 30.45 13.8989 30.0022 15.7063C29.6631 17.0737 29.2787 18.6231 28.6801 19.9702C28.1463 21.1713 27.5347 22.002 26.8097 22.5079C22.8769 25.2532 21.4918 25.993 21.4769 26.0003L21.3736 26.0545L21.4471 26.1453C22.0252 26.8177 22.6749 27.4251 23.3847 27.9566C24.4945 28.7955 26.2385 29.8068 28.2573 29.8861L28.3284 29.8875ZM32.6523 26.1646C32.6043 26.2746 31.9658 26.425 31.2797 26.4874L31.2274 26.4922L31.2033 26.5403C30.8459 27.2302 30.5634 27.6525 30.2059 28.1877L30.0618 28.4049C29.5968 29.1039 29.1077 29.728 28.265 29.6953C24.8299 29.5603 22.1476 26.6594 21.6734 26.1146C22.0606 25.8955 23.5697 25.0072 26.9207 22.6679C27.6755 22.1394 28.3087 21.2852 28.8569 20.051C29.4622 18.6884 29.849 17.1299 30.1901 15.7549C30.5869 14.1545 30.93 12.7718 31.4181 12.718C31.7342 12.6829 32.1743 13.2215 32.7229 14.3193C32.7263 14.327 33.2553 15.5242 33.5397 16.684C33.7054 17.3566 33.7568 17.8851 33.692 18.2469C33.6651 18.4415 33.6319 18.6586 33.5925 18.8969C33.4484 19.9626 32.4448 23.2238 32.2262 23.8368C32.1421 24.0871 32.3074 25.4026 32.6523 26.1646Z" fill="#1D1D1B"/>
<path d="M26.3945 51.6004C27.9319 51.339 29.2531 50.6525 29.2531 50.6525C29.2531 50.6525 29.8061 50.3162 31.883 49.8477C33.6524 49.4495 34.0839 49.5321 34.4332 49.5902C34.7824 49.6484 36.5769 50.087 37.2283 50.3402C37.8082 50.566 38.3574 50.6044 39.4864 51.0128C40.0398 51.2132 40.023 51.918 39.2697 51.8296C38.7412 51.7676 38.5164 51.8853 37.372 51.5893C36.0152 51.3366 35.3301 51.2329 34.6921 51.2631C34.769 51.4049 35.1504 51.5941 36.3876 51.7762C37.1971 51.8959 38.1138 52.4205 38.9156 52.7155C39.791 53.0379 39.853 53.0936 39.8938 53.0936C40.0101 53.0936 40.3118 53.9411 39.6387 53.9839C39.6387 53.9839 38.6855 53.8878 37.4868 53.6528C36.6278 53.4856 35.9086 52.9999 35.0164 52.925C34.3577 52.8721 38.2613 53.7033 39.3783 54.066C39.3783 54.5465 39.0324 54.7521 38.4554 54.7021C37.5791 54.6267 36.1627 54.5008 35.4262 54.4753C35.2379 54.4686 35.1034 54.4821 35.0481 54.5234C35.0126 54.5513 35.0789 54.6152 35.2105 54.7007C36.0051 54.7007 36.9881 54.8573 37.8529 55.0014C38.4294 54.9774 38.2372 55.4819 37.6847 55.626C37.4796 55.6798 35.8288 55.688 35.4507 55.7461C35.0726 55.8042 32.5681 55.3502 31.0855 55.0975C30.3091 55.0975 29.0004 55.4905 28.69 55.4905C28.5747 55.4905 28.0534 55.7629 27.4433 55.9229C27.2473 54.8453 26.4656 51.9915 26.3945 51.6004Z" fill="white"/>
<path d="M27.3676 56.0414L27.468 56.0149C27.7787 55.928 28.0836 55.8214 28.3809 55.6959C28.4808 55.6512 28.5839 55.6139 28.6893 55.5845C28.8195 55.5845 29.089 55.5254 29.4306 55.4509C29.9591 55.3361 30.6115 55.1934 31.0761 55.1915L31.7665 55.3106C33.6695 55.6397 35.1502 55.8871 35.4658 55.8391C35.6484 55.8108 36.1466 55.7944 36.628 55.7786C37.2305 55.7589 37.6038 55.7445 37.7095 55.7171C38.0722 55.621 38.3302 55.3716 38.2966 55.1463C38.285 55.069 38.2183 54.8907 37.8599 54.9032C36.9571 54.7523 36.0126 54.6063 35.2381 54.6024L35.1963 54.5736C35.2712 54.5659 35.3465 54.564 35.4216 54.5679C36.1 54.5914 37.3871 54.7029 38.2389 54.7764L38.446 54.7941C38.8121 54.8263 39.0874 54.76 39.2627 54.5981C39.4016 54.4708 39.4717 54.2906 39.4722 54.0629C39.5712 54.0749 39.6264 54.0807 39.6288 54.0807H39.6365H39.6447C39.9767 54.0595 40.1684 53.8486 40.1578 53.5167C40.152 53.3336 40.0617 53.0079 39.9003 52.9983C39.8902 52.9949 39.8652 52.9843 39.8364 52.9718C39.7273 52.9238 39.5001 52.8277 38.9485 52.6259C38.6848 52.5298 38.4124 52.4083 38.1236 52.281C37.5471 52.0263 36.9547 51.7635 36.4013 51.6819C35.5941 51.5632 35.1867 51.4445 34.9806 51.3551C35.537 51.3633 36.1942 51.4685 37.3511 51.6838C38.1544 51.8899 38.5152 51.8956 38.8332 51.9009C38.9753 51.9008 39.1172 51.9083 39.2584 51.9235C39.7004 51.9749 39.9084 51.7794 39.9565 51.5757C40.018 51.3148 39.8296 51.0333 39.5188 50.9208C39.0411 50.7489 38.5543 50.6033 38.0607 50.4846C37.79 50.4229 37.5235 50.3443 37.2627 50.2492C36.5997 49.9912 34.7908 49.5511 34.4488 49.4939H34.4334C34.0726 49.4334 33.6234 49.3584 31.8616 49.7548C29.8539 50.2059 29.2601 50.5374 29.2062 50.5716C29.1423 50.6042 27.8495 51.2586 26.3779 51.5089L26.2818 51.5252L26.2991 51.6213C26.3265 51.7712 26.4524 52.2622 26.6124 52.8834C26.8713 53.8924 27.2264 55.2736 27.3479 55.9438L27.3676 56.0414ZM31.0939 54.9993H31.0857C30.6 54.9993 29.9298 55.1434 29.3912 55.2631C29.0741 55.3327 28.8003 55.3923 28.6903 55.3923C28.6254 55.3923 28.5269 55.4307 28.3107 55.5177C28.0518 55.6261 27.7873 55.7208 27.5185 55.8016C27.3811 55.0944 27.0467 53.7934 26.7978 52.8306C26.6647 52.3122 26.5547 51.8851 26.5096 51.6775C27.9989 51.4051 29.285 50.7445 29.2961 50.7378L29.3019 50.7344C29.3071 50.7311 29.8784 50.3981 31.9029 49.9412C33.6277 49.553 34.0562 49.6246 34.4012 49.6823L34.4166 49.6851C34.7529 49.7414 36.5391 50.1752 37.1925 50.4298C37.4609 50.527 37.7352 50.6072 38.0136 50.67C38.5016 50.7876 38.9828 50.932 39.4549 51.1024C39.7047 51.1928 39.8037 51.3907 39.7706 51.5324C39.734 51.6876 39.5472 51.7645 39.282 51.7337C39.1345 51.7175 38.9863 51.7095 38.838 51.7097C38.5301 51.7044 38.1808 51.6987 37.3967 51.4978H37.39C36.014 51.2418 35.3342 51.1399 34.688 51.1702L34.5352 51.1774L34.6083 51.3119C34.6847 51.4532 34.9508 51.665 36.3744 51.8745C36.9028 51.9523 37.4837 52.2108 38.0472 52.4587C38.3384 52.588 38.6132 52.7095 38.8832 52.8085C39.4309 53.0079 39.6543 53.104 39.7629 53.1491C39.7968 53.1656 39.8322 53.1788 39.8686 53.1885C39.9166 53.2457 40.0093 53.495 39.9478 53.6843C39.907 53.8092 39.8071 53.8765 39.6423 53.889C39.5827 53.8823 39.2008 53.841 38.6478 53.7569C38.0424 53.5993 37.2718 53.4158 36.6088 53.2577L36.4291 53.2149C35.989 53.0458 35.5336 52.8729 35.0262 52.8306C34.9657 52.8253 34.8643 52.8171 34.849 52.9132C34.8307 53.0276 34.8298 53.0319 36.372 53.3989L36.3796 53.4018C36.7265 53.5354 37.0859 53.6733 37.4702 53.7482C37.8887 53.8299 38.2788 53.8952 38.6089 53.9452C38.8731 54.0144 39.1042 54.0778 39.2815 54.1321C39.2766 54.2546 39.225 54.3707 39.1373 54.4564C39.0043 54.5789 38.7717 54.6294 38.4647 54.6029L38.2577 54.5852C37.353 54.5068 36.114 54.3997 35.4313 54.3757C35.1987 54.3675 35.0628 54.3891 34.9902 54.4453C34.9748 54.4568 34.9623 54.4718 34.954 54.4892C34.9456 54.5065 34.9416 54.5256 34.9422 54.5448C34.9455 54.6154 35.0037 54.6788 35.1574 54.7792L35.1814 54.7946H35.2103C35.979 54.7946 36.9297 54.9426 37.8387 55.0939H37.8483H37.8584C38.0026 55.0882 38.0986 55.1189 38.1073 55.1732C38.1217 55.2693 37.955 55.4533 37.6619 55.5297C37.5692 55.5537 37.0667 55.5705 36.6227 55.5849C36.1356 55.6013 35.6316 55.6176 35.4375 55.6474C35.1295 55.6954 33.2064 55.3625 31.802 55.1189L31.1035 54.9988L31.0939 54.9993Z" fill="#1D1D1B"/>
<path d="M25.1706 56.0575C24.5701 54.6724 24.5461 53.1984 24.3755 51.7638C24.7733 51.687 26.1094 51.305 26.3165 51.2656C26.3876 51.6567 26.8522 53.1749 26.9002 53.4632C27.1275 54.5552 27.4407 55.518 27.6367 56.5961C26.8704 56.7984 25.9648 57.053 25.5463 57.1726C25.5071 57.0709 25.4619 56.9716 25.4109 56.8752C25.2667 56.6341 25.2667 56.2978 25.1706 56.0575Z" fill="#E77AFA"/>
<path d="M25.4871 57.2871L25.5712 57.2631C26.0295 57.1333 26.9106 56.8859 27.6601 56.6865L27.7461 56.664L27.7302 56.5765C27.6212 55.9769 27.4737 55.4023 27.3305 54.8469C27.2143 54.3953 27.0941 53.9278 26.9942 53.4416C26.9712 53.3018 26.8501 52.879 26.7256 52.4327C26.5887 51.9484 26.4475 51.4473 26.4114 51.2484L26.3937 51.1523L26.2976 51.1706C26.2068 51.1879 25.9296 51.2628 25.5769 51.357C25.133 51.4766 24.581 51.6256 24.3547 51.6693L24.2668 51.6861L24.2773 51.775C24.3124 52.0695 24.3422 52.3712 24.3705 52.6628C24.4849 53.802 24.5983 54.9781 25.0806 56.0937C25.1167 56.1966 25.144 56.3023 25.1623 56.4098C25.1974 56.5856 25.2344 56.7677 25.3271 56.9229C25.3757 57.0143 25.4185 57.1087 25.4554 57.2054L25.4871 57.2871ZM27.5251 56.5251C26.8371 56.7077 26.0593 56.9253 25.6033 57.0536C25.5692 56.9729 25.5337 56.8979 25.4957 56.8268C25.4174 56.6966 25.3843 56.5309 25.3516 56.3709C25.3314 56.2515 25.3005 56.1341 25.2594 56.0202V56.0178C24.789 54.9315 24.6751 53.7679 24.5651 52.6427C24.5392 52.3789 24.5128 52.1065 24.482 51.8384C24.7438 51.7798 25.2118 51.6539 25.6303 51.5415C25.8748 51.4752 26.1107 51.4123 26.2433 51.3791C26.2985 51.6232 26.4215 52.0594 26.5412 52.4841C26.6608 52.9088 26.7838 53.3451 26.8059 53.4782C26.9092 53.9725 27.0298 54.4419 27.1465 54.8959C27.2858 55.4451 27.4194 55.9659 27.5251 56.5251Z" fill="#1D1D1B"/>
<path d="M3.65007 57.5333C5.89274 53.8594 9.35621 54.2663 12.2979 53.9588C12.2979 53.9588 14.4402 53.757 18.1112 53.1747C21.7822 52.5924 23.4157 51.7776 24.2819 51.7776C24.3142 51.7754 24.3464 51.7707 24.378 51.7637C24.549 53.1983 24.5726 54.6723 25.1731 56.0574C25.2692 56.2976 25.2692 56.6339 25.4133 56.8741C25.4644 56.9705 25.5096 57.0698 25.5488 57.1715L25.3144 57.2378C25.3144 57.2378 18.0185 61.1327 14.2225 61.5344C1.45207 62.8854 3.22392 60.2425 3.65007 57.5333Z" fill="#DA00FF"/>
<path d="M8.50928 61.9967C10.038 61.9967 11.9314 61.8737 14.2303 61.6306C17.9402 61.2381 25.0502 57.4858 25.3481 57.3282L25.5725 57.2643L25.6738 57.2355L25.6359 57.137C25.5953 57.0316 25.5483 56.9287 25.4951 56.8291C25.4168 56.6989 25.3836 56.5331 25.351 56.3731C25.3308 56.2537 25.2999 56.1363 25.2587 56.0224C24.7874 54.9337 24.6736 53.7701 24.5635 52.6449C24.5352 52.3523 24.5054 52.0496 24.4699 51.7532L24.4578 51.6504L24.3565 51.6701C24.3307 51.6759 24.3045 51.6799 24.2782 51.6821C23.9001 51.6821 23.4057 51.8262 22.6572 52.04C21.6252 52.3369 20.2127 52.7439 18.093 53.0807C14.4705 53.6572 12.31 53.8614 12.2884 53.8633C11.8392 53.9113 11.3881 53.9406 10.91 53.9724C9.6066 54.0584 8.25898 54.1472 6.99111 54.608C5.5498 55.1321 4.4299 56.0728 3.56896 57.4839L3.55887 57.5002L3.55599 57.519C3.51803 57.7592 3.46807 58.0057 3.42051 58.242C3.21728 59.2438 3.02559 60.1902 3.66889 60.8974C4.34006 61.6349 5.88755 61.9967 8.50928 61.9967ZM25.4168 57.1087L25.2856 57.1461L25.2669 57.1538C25.1939 57.1928 17.9436 61.0454 14.2101 61.4394C10.9038 61.7896 8.45644 61.8862 6.72783 61.7353C5.23848 61.6051 4.28529 61.289 3.8111 60.7677C3.23458 60.133 3.4157 59.2332 3.60884 58.2805C3.65688 58.0479 3.70492 57.8077 3.74288 57.568C5.61658 54.5143 8.31327 54.3361 10.923 54.1641C11.3813 54.1338 11.8555 54.1021 12.3076 54.055C12.3278 54.055 14.4941 53.8465 18.1209 53.2704C20.2531 52.9341 21.6723 52.5233 22.7086 52.2245C23.4153 52.0213 23.926 51.8743 24.2767 51.8743H24.2892C24.3195 52.1376 24.3454 52.4028 24.3709 52.6641C24.4823 53.8042 24.5977 54.9827 25.08 56.0969C25.1161 56.1992 25.1432 56.3045 25.1612 56.4116C25.1963 56.5874 25.2333 56.7695 25.326 56.9247C25.3587 56.9809 25.3884 57.0419 25.4168 57.1087Z" fill="#1D1D1B"/>
<path d="M21.5241 26.1828H21.5337C21.5565 26.1805 21.5778 26.1702 21.5936 26.1536C21.6095 26.1371 21.6189 26.1154 21.6202 26.0925C21.625 26.0055 22.1314 17.3542 24.7512 12.1313C25.4459 10.7491 26.3534 9.92612 27.3816 9.75028C27.8345 9.66807 28.3016 9.71811 28.7268 9.89441C28.7383 9.90182 28.7512 9.90669 28.7647 9.90872C28.7782 9.91074 28.792 9.90986 28.8051 9.90614C28.8182 9.90242 28.8304 9.89595 28.8409 9.88714C28.8513 9.87834 28.8597 9.86742 28.8656 9.8551C28.8715 9.84278 28.8747 9.82935 28.875 9.8157C28.8753 9.80205 28.8726 9.7885 28.8673 9.77595C28.8619 9.76339 28.8539 9.75212 28.8439 9.74289C28.8338 9.73366 28.8219 9.72668 28.8089 9.72241C28.7835 9.70992 28.1781 9.41781 27.347 9.55954C26.5865 9.68974 25.4882 10.2264 24.5768 12.0434C22.3514 16.4808 21.6413 23.3612 21.4712 25.4554C21.2084 24.274 20.6814 21.534 20.7232 18.7292V18.5745C20.7391 17.4618 20.765 15.6001 21.2209 13.8518C21.7658 11.7619 22.7915 10.3446 24.2693 9.63209C24.2814 9.62708 24.2923 9.61967 24.3014 9.6103C24.3105 9.60094 24.3176 9.58981 24.3222 9.57761C24.3269 9.56541 24.329 9.55239 24.3285 9.53935C24.3279 9.5263 24.3247 9.5135 24.3191 9.50173C24.3134 9.48997 24.3054 9.47947 24.2956 9.4709C24.2857 9.46232 24.2742 9.45584 24.2618 9.45185C24.2494 9.44787 24.2362 9.44646 24.2232 9.44771C24.2102 9.44896 24.1976 9.45285 24.1862 9.45913C22.6594 10.1947 21.599 11.6567 21.0393 13.8062C20.5772 15.5771 20.5512 17.4537 20.5354 18.5745V18.7292C20.4801 22.4618 21.4237 26.08 21.4333 26.1136C21.439 26.1333 21.451 26.1507 21.4673 26.1631C21.4836 26.1756 21.5036 26.1825 21.5241 26.1828Z" fill="#1D1D1B"/>
<path d="M27.816 31.8128C27.9684 31.8142 28.1208 31.8069 28.2724 31.7907C28.2979 31.7876 28.3211 31.7744 28.3369 31.7542C28.3527 31.734 28.3598 31.7083 28.3567 31.6828C28.3536 31.6573 28.3405 31.6341 28.3202 31.6183C28.3 31.6025 28.2743 31.5954 28.2488 31.5985C28.2359 31.5985 26.918 31.7532 25.4498 31.1488C23.5117 30.3503 22.1867 28.5919 21.6174 26.0638C21.6151 26.051 21.6103 26.0388 21.6032 26.028C21.5961 26.0171 21.5869 26.0078 21.5761 26.0005C21.5653 25.9933 21.5532 25.9884 21.5404 25.986C21.5276 25.9836 21.5145 25.9839 21.5018 25.9867C21.4892 25.9895 21.4772 25.9949 21.4666 26.0025C21.4561 26.01 21.4472 26.0197 21.4405 26.0308C21.4338 26.0419 21.4294 26.0543 21.4276 26.0671C21.4258 26.08 21.4266 26.0931 21.43 26.1056C21.7553 27.5518 22.3169 28.748 23.0986 29.6691C23.7158 30.3987 24.5002 30.9683 25.385 31.3295C26.1569 31.6448 26.9822 31.8089 27.816 31.8128Z" fill="#1D1D1B"/>
<path d="M9.34632 28.3804C9.35981 28.3804 9.37315 28.3776 9.38548 28.3721C9.39782 28.3667 9.40886 28.3587 9.4179 28.3487C9.42415 28.3419 10.0348 27.6693 10.8434 27.5415C11.0878 27.5078 11.335 27.4986 11.5813 27.5141C12.0392 27.5305 12.4716 27.5454 12.9823 27.0856C13.1994 26.8905 13.5919 26.8848 14.0075 26.8785C14.5129 26.8713 15.0851 26.8631 15.4315 26.4826C15.6866 26.2021 15.7861 25.762 15.7356 25.1326C15.4971 22.1197 15.7403 19.088 16.4563 16.1517C16.9949 13.97 17.6108 12.6661 17.6146 12.6512C17.6204 12.6398 17.6239 12.6273 17.6248 12.6145C17.6257 12.6018 17.624 12.5889 17.6199 12.5768C17.6157 12.5647 17.6092 12.5535 17.6007 12.5439C17.5922 12.5343 17.5818 12.5266 17.5702 12.5211C17.5587 12.5155 17.5461 12.5124 17.5333 12.5118C17.5205 12.5112 17.5077 12.5132 17.4957 12.5176C17.4837 12.5221 17.4727 12.5289 17.4633 12.5376C17.4539 12.5464 17.4464 12.5569 17.4412 12.5686C17.4349 12.5816 16.8104 13.9033 16.268 16.1037C15.5473 19.0608 15.3029 22.1139 15.5439 25.148C15.592 25.7202 15.5065 26.1141 15.2893 26.3534C15.001 26.6724 14.4937 26.6796 14.0046 26.6868C13.5521 26.6931 13.1245 26.6993 12.8516 26.9429C12.3985 27.3508 12.0396 27.3378 11.5856 27.3225C11.327 27.3062 11.0674 27.316 10.8107 27.3518C9.93341 27.4906 9.29875 28.1906 9.27329 28.2204C9.26098 28.2342 9.25292 28.2513 9.25009 28.2696C9.24726 28.2879 9.24978 28.3066 9.25734 28.3235C9.26491 28.3404 9.27719 28.3548 9.29272 28.3649C9.30825 28.375 9.32636 28.3803 9.34487 28.3804H9.34632Z" fill="#1D1D1B"/>
<path d="M31.9922 21.8498C32.0136 21.8501 32.0346 21.8433 32.0517 21.8304C32.0688 21.8174 32.0811 21.7992 32.0866 21.7784C32.0921 21.7577 32.0906 21.7358 32.0822 21.716C32.0738 21.6963 32.059 21.68 32.0403 21.6696C30.8992 21.045 29.4344 21.3655 29.3724 21.3813C29.3598 21.3838 29.3477 21.3887 29.337 21.3959C29.3264 21.4031 29.3172 21.4123 29.3102 21.4231C29.3031 21.4339 29.2983 21.4459 29.296 21.4586C29.2938 21.4713 29.294 21.4843 29.2969 21.4968C29.2997 21.5094 29.305 21.5212 29.3125 21.5317C29.32 21.5422 29.3296 21.551 29.3406 21.5577C29.3515 21.5644 29.3638 21.5688 29.3765 21.5707C29.3892 21.5726 29.4022 21.5719 29.4147 21.5687C29.4291 21.5653 30.8718 21.2526 31.9485 21.8402C31.9621 21.8468 31.9771 21.85 31.9922 21.8498Z" fill="#1D1D1B"/>
<path d="M29.267 23.1771C29.267 23.2756 29.3061 23.37 29.3758 23.4397C29.4454 23.5093 29.5399 23.5484 29.6384 23.5484C29.7369 23.5484 29.8313 23.5093 29.901 23.4397C29.9706 23.37 30.0098 23.2756 30.0098 23.1771C30.0098 22.9719 29.8176 22.8066 29.6115 22.8066C29.4054 22.8066 29.267 22.9719 29.267 23.1771Z" fill="#1D1D1B"/>
<path d="M29.4694 22.9592C30.1083 22.9592 30.5085 22.8487 30.5297 22.8429C30.5418 22.8395 30.5532 22.8337 30.5631 22.8258C30.573 22.818 30.5812 22.8083 30.5874 22.7973C30.5936 22.7863 30.5975 22.7742 30.599 22.7616C30.6004 22.7491 30.5994 22.7364 30.596 22.7242C30.5925 22.7121 30.5867 22.7007 30.5789 22.6908C30.5711 22.6809 30.5614 22.6727 30.5504 22.6665C30.5394 22.6603 30.5272 22.6564 30.5147 22.655C30.5022 22.6535 30.4895 22.6545 30.4773 22.6579C30.4711 22.6579 29.8364 22.8338 28.9039 22.7377C28.8784 22.7351 28.8529 22.7427 28.833 22.7589C28.8132 22.775 28.8006 22.7984 28.7979 22.8239C28.7953 22.8494 28.8029 22.8749 28.8191 22.8948C28.8353 22.9146 28.8587 22.9272 28.8842 22.9299C29.0786 22.9495 29.2739 22.9593 29.4694 22.9592Z" fill="#1D1D1B"/>
<path d="M28.867 27.8574C28.867 27.8574 29.5036 28.2024 30.4102 27.9578L28.867 27.8574Z" fill="white"/>
<path d="M29.7588 28.1428C29.9876 28.1423 30.2154 28.1114 30.4362 28.0511C30.4493 28.0488 30.4617 28.0438 30.4727 28.0364C30.4838 28.0291 30.4932 28.0196 30.5004 28.0084C30.5075 27.9973 30.5123 27.9847 30.5144 27.9716C30.5165 27.9586 30.5159 27.9452 30.5126 27.9323C30.5092 27.9195 30.5033 27.9075 30.4951 27.8971C30.4869 27.8866 30.4766 27.878 30.465 27.8717C30.4533 27.8655 30.4404 27.8617 30.4272 27.8606C30.414 27.8596 30.4007 27.8613 30.3881 27.8656C29.5282 28.0977 28.9219 27.7767 28.9156 27.7734C28.8932 27.7612 28.8668 27.7584 28.8424 27.7657C28.8179 27.7729 28.7973 27.7896 28.7852 27.812C28.773 27.8345 28.7702 27.8608 28.7775 27.8853C28.7847 27.9097 28.8014 27.9303 28.8238 27.9425C28.8421 27.9535 29.2005 28.1428 29.7588 28.1428Z" fill="#1D1D1B"/>
<path d="M18.4684 11.2598C18.4869 11.2598 18.5049 11.2545 18.5204 11.2446C18.5359 11.2346 18.5482 11.2204 18.5559 11.2036C19.1406 9.9098 21.2285 9.48605 21.2497 9.4822C21.2626 9.48034 21.275 9.47588 21.2861 9.46908C21.2972 9.46228 21.3068 9.4533 21.3143 9.44267C21.3219 9.43205 21.3272 9.42 21.3299 9.40726C21.3326 9.39452 21.3327 9.38137 21.3302 9.36858C21.3277 9.3558 21.3226 9.34366 21.3153 9.33291C21.3079 9.32215 21.2985 9.313 21.2875 9.30601C21.2765 9.29902 21.2642 9.29434 21.2513 9.29226C21.2385 9.29017 21.2253 9.29072 21.2127 9.29387C21.1229 9.31117 19.006 9.74164 18.381 11.1224C18.3706 11.1456 18.3698 11.172 18.3788 11.1958C18.3878 11.2195 18.4059 11.2388 18.429 11.2493C18.4413 11.2556 18.4547 11.2592 18.4684 11.2598Z" fill="#1D1D1B"/>
<path d="M27.3848 59.9017C27.3848 59.9017 22.5194 60.595 20.8316 59.7422L27.3848 59.9017Z" fill="#DA00FF"/>
<path d="M23.7082 60.2639C25.4781 60.2639 27.2769 60.0122 27.3984 59.9949L27.3715 59.8027C27.3235 59.8094 22.5162 60.4821 20.8751 59.6523L20.7881 59.8239C21.4506 60.1621 22.5734 60.2639 23.7082 60.2639Z" fill="#1D1D1B"/>
<path d="M23.6568 60.0721L26.5178 59.9102C26.5178 59.9102 26.8878 71.1702 26.9579 76.359C27.0281 81.5478 27.6363 85.8717 27.5479 86.8662H20.6296C20.6296 86.8662 20.8482 82.6287 21.233 77.2238C21.6179 71.8188 23.6588 60.0721 23.6588 60.0721H23.6568Z" fill="#DA00FF"/>
<path d="M20.5268 86.9593H27.6372L27.6454 86.8718C27.6819 86.4572 27.6012 85.4848 27.4897 84.1391C27.3245 82.1481 27.0982 79.4212 27.0574 76.356C26.9862 71.2258 26.6206 60.021 26.6168 59.9066L26.6139 59.8105L23.5785 59.9825L23.5655 60.058C23.5449 60.1757 21.5194 71.8701 21.1384 77.2179C20.7574 82.5657 20.5374 86.8195 20.535 86.8622L20.5268 86.9593ZM27.4585 86.7671H20.7295C20.7651 86.0911 20.9794 82.1136 21.3272 77.2275C21.6914 72.1146 23.5636 61.1808 23.739 60.1622L26.4251 60.0099C26.4616 61.1318 26.7946 71.4857 26.8623 76.3574C26.9051 79.4322 27.1318 82.1611 27.2971 84.155C27.4004 85.4017 27.4773 86.3256 27.4585 86.7671Z" fill="#1D1D1B"/>
</g>
<defs>
<clipPath id="clip0_2055_1131">
<rect width="43" height="78" fill="white" transform="matrix(-1 0 0 1 45 9)"/>
</clipPath>
</defs>
</svg>
