<svg width="40" height="40" viewBox="0 0 40 40" fill="none" xmlns="http://www.w3.org/2000/svg">
<circle cx="20" cy="20" r="20" fill="#F5BE6C"/>
<path d="M21.0752 16.2334C20.5537 16.2334 20.0908 16.3359 19.6865 16.541C19.2881 16.7402 18.9512 17.0303 18.6758 17.4111C18.4062 17.792 18.2012 18.252 18.0605 18.791C17.9199 19.3301 17.8496 19.9365 17.8496 20.6104C17.8496 21.5186 17.9609 22.2949 18.1836 22.9395C18.4121 23.5781 18.7637 24.0674 19.2383 24.4072C19.7129 24.7412 20.3252 24.9082 21.0752 24.9082C21.5967 24.9082 22.1182 24.8496 22.6396 24.7324C23.167 24.6152 23.7383 24.4482 24.3535 24.2314V26.5166C23.7852 26.751 23.2256 26.918 22.6748 27.0176C22.124 27.123 21.5059 27.1758 20.8203 27.1758C19.4961 27.1758 18.4062 26.9033 17.5508 26.3584C16.7012 25.8076 16.0713 25.04 15.6611 24.0557C15.251 23.0654 15.0459 21.9111 15.0459 20.5928C15.0459 19.6201 15.1777 18.7295 15.4414 17.9209C15.7051 17.1123 16.0918 16.4121 16.6016 15.8203C17.1113 15.2285 17.7412 14.7715 18.4912 14.4492C19.2412 14.127 20.1025 13.9658 21.0752 13.9658C21.7139 13.9658 22.3525 14.0479 22.9912 14.2119C23.6357 14.3701 24.251 14.5898 24.8369 14.8711L23.958 17.0859C23.4775 16.8574 22.9941 16.6582 22.5078 16.4883C22.0215 16.3184 21.5439 16.2334 21.0752 16.2334Z" fill="white"/>
</svg>
