<svg width="40" height="40" viewBox="0 0 40 40" fill="none" xmlns="http://www.w3.org/2000/svg">
<circle cx="20" cy="20" r="20" fill="#9AD5D1"/>
<path d="M19.7217 14.1504C21.3799 14.1504 22.5898 14.5078 23.3516 15.2227C24.1133 15.9316 24.4941 16.9102 24.4941 18.1582C24.4941 18.7207 24.4092 19.2598 24.2393 19.7754C24.0693 20.2852 23.791 20.7393 23.4043 21.1377C23.0234 21.5361 22.5137 21.8525 21.875 22.0869C21.2363 22.3154 20.4482 22.4297 19.5107 22.4297H18.3418V27H15.6172V14.1504H19.7217ZM19.5811 16.3828H18.3418V20.1973H19.2383C19.748 20.1973 20.1904 20.1299 20.5654 19.9951C20.9404 19.8604 21.2305 19.6494 21.4355 19.3623C21.6406 19.0752 21.7432 18.7061 21.7432 18.2549C21.7432 17.6221 21.5674 17.1533 21.2158 16.8486C20.8643 16.5381 20.3193 16.3828 19.5811 16.3828Z" fill="white"/>
</svg>
