<svg width="40" height="40" viewBox="0 0 40 40" fill="none" xmlns="http://www.w3.org/2000/svg">
<circle cx="20" cy="20" r="20" fill="#F88B7F"/>
<path d="M24.2021 23.4316C24.2021 24.1934 24.0176 24.8555 23.6484 25.418C23.2793 25.9805 22.7402 26.4141 22.0312 26.7188C21.3281 27.0234 20.4727 27.1758 19.4648 27.1758C19.0195 27.1758 18.583 27.1465 18.1553 27.0879C17.7334 27.0293 17.3262 26.9443 16.9336 26.833C16.5469 26.7158 16.1777 26.5723 15.8262 26.4023V23.8711C16.4355 24.1406 17.0684 24.3838 17.7246 24.6006C18.3809 24.8174 19.0312 24.9258 19.6758 24.9258C20.1211 24.9258 20.4785 24.8672 20.748 24.75C21.0234 24.6328 21.2227 24.4717 21.3457 24.2666C21.4688 24.0615 21.5303 23.8271 21.5303 23.5635C21.5303 23.2412 21.4219 22.9658 21.2051 22.7373C20.9883 22.5088 20.6895 22.2949 20.3086 22.0957C19.9336 21.8965 19.5088 21.6826 19.0342 21.4541C18.7354 21.3135 18.4102 21.1436 18.0586 20.9443C17.707 20.7393 17.373 20.4902 17.0566 20.1973C16.7402 19.9043 16.4795 19.5498 16.2744 19.1338C16.0752 18.7119 15.9756 18.208 15.9756 17.6221C15.9756 16.8545 16.1514 16.1982 16.5029 15.6533C16.8545 15.1084 17.3555 14.6924 18.0059 14.4053C18.6621 14.1123 19.4355 13.9658 20.3262 13.9658C20.9941 13.9658 21.6299 14.0449 22.2334 14.2031C22.8428 14.3555 23.4785 14.5781 24.1406 14.8711L23.2617 16.9893C22.6699 16.749 22.1396 16.5645 21.6709 16.4355C21.2021 16.3008 20.7246 16.2334 20.2383 16.2334C19.8984 16.2334 19.6084 16.2891 19.3682 16.4004C19.1279 16.5059 18.9463 16.6582 18.8232 16.8574C18.7002 17.0508 18.6387 17.2764 18.6387 17.5342C18.6387 17.8389 18.7266 18.0967 18.9023 18.3076C19.084 18.5127 19.3535 18.7119 19.7109 18.9053C20.0742 19.0986 20.5254 19.3242 21.0645 19.582C21.7207 19.8926 22.2803 20.2178 22.7432 20.5576C23.2119 20.8916 23.5723 21.2871 23.8242 21.7441C24.0762 22.1953 24.2021 22.7578 24.2021 23.4316Z" fill="white"/>
</svg>
