<svg width="40" height="40" viewBox="0 0 40 40" fill="none" xmlns="http://www.w3.org/2000/svg">
<circle cx="20" cy="20" r="20" fill="#82ABC7"/>
<path d="M20.7217 13.1504C22.3799 13.1504 23.5898 13.5078 24.3516 14.2227C25.1133 14.9316 25.4941 15.9102 25.4941 17.1582C25.4941 17.7207 25.4092 18.2598 25.2393 18.7754C25.0693 19.2852 24.791 19.7393 24.4043 20.1377C24.0234 20.5361 23.5137 20.8525 22.875 21.0869C22.2363 21.3154 21.4482 21.4297 20.5107 21.4297H19.3418V26H16.6172V13.1504H20.7217ZM20.5811 15.3828H19.3418V19.1973H20.2383C20.748 19.1973 21.1904 19.1299 21.5654 18.9951C21.9404 18.8604 22.2305 18.6494 22.4355 18.3623C22.6406 18.0752 22.7432 17.7061 22.7432 17.2549C22.7432 16.6221 22.5674 16.1533 22.2158 15.8486C21.8643 15.5381 21.3193 15.3828 20.5811 15.3828Z" fill="white"/>
</svg>
