<svg width="16" height="16" viewBox="0 0 16 16" fill="none" xmlns="http://www.w3.org/2000/svg">
<rect width="16" height="16" rx="8" fill="#E03DFC"/>
<path d="M6.6875 10.6211V10.3164C6.6875 10.0039 6.7168 9.73633 6.77539 9.51367C6.83398 9.28711 6.93555 9.07617 7.08008 8.88086C7.22852 8.68555 7.43359 8.47852 7.69531 8.25977C8 8.00586 8.24023 7.79102 8.41602 7.61523C8.5957 7.43555 8.72461 7.25586 8.80273 7.07617C8.88086 6.89648 8.91992 6.67969 8.91992 6.42578C8.91992 6.01953 8.78906 5.70898 8.52734 5.49414C8.26562 5.27539 7.89648 5.16602 7.41992 5.16602C7.0332 5.16602 6.68945 5.21484 6.38867 5.3125C6.08789 5.41016 5.79883 5.52734 5.52148 5.66406L5.18164 4.87891C5.50195 4.71094 5.84961 4.57422 6.22461 4.46875C6.59961 4.36328 7.01758 4.31055 7.47852 4.31055C8.23242 4.31055 8.81641 4.49805 9.23047 4.87305C9.64453 5.24414 9.85156 5.75586 9.85156 6.4082C9.85156 6.77148 9.79297 7.08203 9.67578 7.33984C9.55859 7.59375 9.39258 7.82812 9.17773 8.04297C8.96289 8.25391 8.70898 8.47852 8.41602 8.7168C8.1582 8.93555 7.96094 9.12891 7.82422 9.29688C7.6875 9.46094 7.59375 9.63086 7.54297 9.80664C7.49219 9.97852 7.4668 10.1855 7.4668 10.4277V10.6211H6.6875ZM6.42969 12.3906C6.42969 12.1172 6.49414 11.9238 6.62305 11.8105C6.75195 11.6934 6.91797 11.6348 7.12109 11.6348C7.3125 11.6348 7.47461 11.6934 7.60742 11.8105C7.74414 11.9238 7.8125 12.1172 7.8125 12.3906C7.8125 12.6602 7.74414 12.8574 7.60742 12.9824C7.47461 13.1035 7.3125 13.1641 7.12109 13.1641C6.91797 13.1641 6.75195 13.1035 6.62305 12.9824C6.49414 12.8574 6.42969 12.6602 6.42969 12.3906Z" fill="white"/>
</svg>
