<svg width="32" height="32" viewBox="0 0 32 32" fill="none" xmlns="http://www.w3.org/2000/svg">
<rect width="32" height="32" rx="6" fill="#F7F7F7"/>
<path d="M23.538 20.5274C22.685 19.7856 21.7418 19.1545 20.7307 18.6489C19.8895 18.2449 19.5809 18.2532 18.9856 18.6821C18.4898 19.0375 18.1693 19.3734 17.5988 19.2484C17.0284 19.1234 15.9035 18.2739 14.8147 17.1869C13.7259 16.0999 12.8735 14.9708 12.7532 14.4027C12.633 13.8346 12.9659 13.5141 13.3195 13.0159C13.7484 12.4206 13.7608 12.1119 13.3527 11.2708C12.8489 10.2571 12.2166 9.31252 11.4713 8.46049C10.8588 7.84797 10.7214 7.98125 10.3843 8.10506C10.0372 8.25075 9.70406 8.42781 9.38912 8.63406C8.87502 8.92704 8.45893 9.36539 8.19312 9.89406C7.95617 10.4065 7.68071 11.3602 9.08168 13.8512C10.1143 15.7583 11.4223 17.5028 12.9635 19.0286L12.9677 19.0328L12.9718 19.0369C14.4984 20.5772 16.2428 21.8851 18.1492 22.9188C20.6371 24.318 21.5938 24.0443 22.1062 23.8074C22.6372 23.5446 23.0769 23.128 23.368 22.612C23.5742 22.297 23.7513 21.9639 23.897 21.6167C24.0166 21.2773 24.1541 21.1399 23.538 20.5274Z" fill="#DA00FF"/>
</svg>
