<svg width="20" height="20" viewBox="0 0 20 20" fill="none" xmlns="http://www.w3.org/2000/svg">
<path fill-rule="evenodd" clip-rule="evenodd" d="M9.9974 1.04102C10.0876 1.04096 10.1768 1.06044 10.2588 1.09813C10.3408 1.13582 10.4137 1.19082 10.4724 1.25935L12.9724 4.17602C13.0802 4.30199 13.1336 4.46566 13.1208 4.631C13.108 4.79635 13.03 4.94983 12.9041 5.05768C12.7781 5.16554 12.6144 5.21893 12.4491 5.20611C12.2837 5.1933 12.1303 5.11533 12.0224 4.98935L10.6224 3.35602V12.4993C10.6224 12.6651 10.5565 12.8241 10.4393 12.9413C10.3221 13.0585 10.1632 13.1243 9.9974 13.1243C9.83164 13.1243 9.67266 13.0585 9.55545 12.9413C9.43824 12.8241 9.3724 12.6651 9.3724 12.4993V3.35518L7.9724 4.98935C7.91899 5.05173 7.85382 5.10298 7.78061 5.14017C7.7074 5.17736 7.62758 5.19977 7.54571 5.20611C7.46384 5.21246 7.38153 5.20262 7.30346 5.17715C7.22539 5.15168 7.15311 5.11109 7.09073 5.05768C7.02835 5.00428 6.9771 4.93911 6.93991 4.8659C6.90272 4.79269 6.88031 4.71287 6.87396 4.631C6.86762 4.54913 6.87746 4.46681 6.90293 4.38875C6.9284 4.31068 6.96899 4.23839 7.0224 4.17602L9.5224 1.25935C9.58111 1.19082 9.65398 1.13582 9.73597 1.09813C9.81797 1.06044 9.90715 1.04096 9.9974 1.04102ZM5.8274 6.87602C5.99316 6.87513 6.15248 6.94013 6.27031 7.05672C6.38815 7.1733 6.45484 7.33192 6.45573 7.49768C6.45661 7.66344 6.39161 7.82276 6.27503 7.9406C6.15844 8.05844 5.99982 8.12513 5.83406 8.12602C4.92323 8.13102 4.2774 8.15435 3.78656 8.24435C3.3149 8.33185 3.04073 8.47102 2.83823 8.67352C2.6074 8.90435 2.4574 9.22852 2.3749 9.84018C2.29073 10.4693 2.28906 11.3035 2.28906 12.4993V13.3327C2.28906 14.5293 2.29073 15.3635 2.3749 15.9927C2.4574 16.6043 2.60823 16.9277 2.83823 17.1593C3.06906 17.3893 3.3924 17.5393 4.0049 17.6218C4.63323 17.7068 5.46823 17.7077 6.66406 17.7077H13.3307C14.5266 17.7077 15.3607 17.7068 15.9907 17.6218C16.6024 17.5393 16.9257 17.3893 17.1566 17.1585C17.3874 16.9277 17.5374 16.6043 17.6199 15.9927C17.7041 15.3635 17.7057 14.5293 17.7057 13.3327V12.4993C17.7057 11.3035 17.7041 10.4693 17.6199 9.83935C17.5374 9.22851 17.3866 8.90435 17.1566 8.67352C16.9532 8.47102 16.6799 8.33185 16.2082 8.24435C15.7174 8.15435 15.0716 8.13102 14.1607 8.12602C14.0787 8.12558 13.9975 8.10898 13.9218 8.07716C13.8461 8.04535 13.7775 7.99895 13.7198 7.9406C13.662 7.88225 13.6164 7.81311 13.5854 7.73711C13.5544 7.66112 13.5386 7.57976 13.5391 7.49768C13.5395 7.41561 13.5561 7.33442 13.5879 7.25876C13.6197 7.1831 13.6661 7.11444 13.7245 7.05672C13.7828 6.99899 13.852 6.95332 13.928 6.92232C14.004 6.89131 14.0853 6.87558 14.1674 6.87602C15.0691 6.88102 15.8199 6.90268 16.4341 7.01518C17.0657 7.13185 17.6032 7.35268 18.0407 7.79018C18.5424 8.29102 18.7574 8.92352 18.8591 9.67352C18.9557 10.3952 18.9557 11.3143 18.9557 12.4535V13.3785C18.9557 14.5185 18.9557 15.4368 18.8591 16.1593C18.7574 16.9093 18.5424 17.541 18.0407 18.0427C17.5391 18.5443 16.9074 18.7593 16.1574 18.861C15.4349 18.9577 14.5157 18.9577 13.3766 18.9577H6.61823C5.47906 18.9577 4.5599 18.9577 3.8374 18.861C3.0874 18.7602 2.45573 18.5443 1.95406 18.0427C1.4524 17.541 1.2374 16.9093 1.13656 16.1593C1.03906 15.4368 1.03906 14.5177 1.03906 13.3785V12.4535C1.03906 11.3143 1.03906 10.3952 1.13656 9.67268C1.23656 8.92268 1.45323 8.29102 1.95406 7.78935C2.39156 7.35268 2.92906 7.13102 3.56073 7.01518C4.1749 6.90268 4.92573 6.88102 5.8274 6.87602Z" fill="#767676"/>
</svg>
