<svg width="32" height="32" viewBox="0 0 32 32" fill="none" xmlns="http://www.w3.org/2000/svg">
<path d="M16 3C8.8201 3 3 8.8201 3 16C3 23.1799 8.8201 29 16 29C23.1799 29 29 23.1799 29 16C29 8.8201 23.1799 3 16 3Z" stroke="#111111" stroke-width="1.75" stroke-linecap="round" stroke-linejoin="round"/>
<path d="M8 23C8 23 10.1628 20.0032 15.4995 20.0032C20.8362 20.0032 23 23 23 23M15.4995 16.3178C16.2715 16.3178 17.0119 15.985 17.5579 15.3926C18.1038 14.8002 18.4104 13.9967 18.4104 13.1589C18.4104 12.3211 18.1038 11.5176 17.5579 10.9252C17.0119 10.3328 16.2715 10 15.4995 10C14.7275 10 13.9871 10.3328 13.4412 10.9252C12.8953 11.5176 12.5886 12.3211 12.5886 13.1589C12.5886 13.9967 12.8953 14.8002 13.4412 15.3926C13.9871 15.985 14.7275 16.3178 15.4995 16.3178Z" stroke="#111111" stroke-width="1.75" stroke-linecap="round" stroke-linejoin="round"/>
</svg>
