<svg width="158" height="40" viewBox="0 0 158 40" fill="none" xmlns="http://www.w3.org/2000/svg">
<path d="M52.7758 35.9175L43.0358 13.0248C42.5747 11.9445 41.5145 11.2411 40.3399 11.2411H38.4249C37.2503 11.2411 36.1868 11.9445 35.7291 13.0248L25.9891 35.9175C25.1679 37.8494 26.5848 39.9966 28.6849 39.9966C29.8763 39.9966 30.9499 39.2764 31.4009 38.1725L33.2688 33.5953H45.3412L47.2091 38.1725C47.6601 39.2764 48.7303 39.9966 49.9251 39.9966H50.0867C52.1801 39.9966 53.6003 37.8528 52.7758 35.9175ZM35.5069 28.0454L39.3 18.7867L43.093 28.0454H35.5069ZM96.0572 17.2385H90.265C88.6664 17.2385 87.3706 15.9428 87.3706 14.3441C87.3706 12.7455 88.6664 11.4497 90.265 11.4497H108.13C109.728 11.4497 111.024 12.7455 111.024 14.3441C111.024 15.9428 109.728 17.2385 108.13 17.2385H102.337V37.1022C102.337 38.7009 101.042 39.9966 99.443 39.9966H98.955C97.3563 39.9966 96.0606 38.7009 96.0606 37.1022V17.2385H96.0572ZM119.445 11.4464C121.178 11.4464 122.585 12.8532 122.585 14.5865V36.8565C122.585 38.5898 121.178 39.9966 119.445 39.9966C117.711 39.9966 116.305 38.5898 116.305 36.8565V14.5865C116.301 12.8532 117.708 11.4464 119.445 11.4464ZM131.672 11.4464H133.651C134.714 11.4464 135.704 11.9949 136.266 12.9003L142.866 23.5187L149.466 12.9003C150.028 11.9949 151.017 11.4464 152.081 11.4464H154.06C155.759 11.4464 157.139 12.8263 157.139 14.5259V36.9171C157.139 38.6167 155.759 39.9966 154.06 39.9966H153.979C152.279 39.9966 150.899 38.6167 150.899 36.9171V21.358L142.866 33.5515H142.701L134.748 21.4792V36.9171C134.748 38.6167 133.368 39.9966 131.668 39.9966C129.969 39.9966 128.589 38.6167 128.589 36.9171V14.5259C128.592 12.8263 129.969 11.4464 131.672 11.4464ZM12.7051 25.7097L21.4422 16.9727C22.6538 15.761 22.7783 13.7686 21.6037 12.5233C20.3887 11.231 18.3559 11.2108 17.1106 12.4527L6.35759 23.2057V14.2297C6.35759 12.6479 5.0753 11.369 3.49684 11.369H2.86075C1.27892 11.369 0 12.6512 0 14.2297V37.1393C0 38.7211 1.28229 40 2.86075 40H3.49684C5.07867 40 6.35759 38.7177 6.35759 37.1393V28.2003L8.21203 30.0581L8.2053 30.0648L17.0164 38.8759C18.228 40.0875 20.2171 40.212 21.4657 39.0341C22.7581 37.8191 22.7783 35.7863 21.5364 34.541L12.7051 25.7097ZM86.1859 26.9718C85.3412 34.2785 79.2427 39.9966 71.0711 39.9966L71.0745 39.825L71.0711 40C64.9558 40 60.0387 36.8363 57.602 32.1851C57.5919 32.1716 57.5785 32.1582 57.5684 32.1414C57.3631 31.7812 57.151 31.4245 56.9592 31.0576C55.2091 27.7156 53.9302 24.2019 53.0921 20.5234C52.7657 19.0963 52.5233 17.6525 52.3248 16.2019C52.2373 15.5658 52.1599 14.9297 52.1329 14.2869C52.1296 14.2398 52.1161 14.1927 52.106 14.1456C52.106 12.944 52.106 11.7425 52.106 10.5444C52.1296 10.4703 52.1531 10.3963 52.1733 10.3222C52.4661 9.2419 53.496 8.43753 54.6134 8.41734C56.0438 8.39041 57.2621 9.56163 57.2587 10.9954C57.2554 12.4897 57.2655 13.9806 57.4775 15.4649C57.5414 15.9125 57.6054 16.3635 57.7063 16.8077C57.7265 16.4173 57.7299 16.0269 57.7501 15.6399C57.7905 14.7345 57.8847 13.8359 58.0227 12.9407C58.2684 11.3286 58.6723 9.75683 59.2478 8.22885C59.9209 6.43836 60.8128 4.7623 61.9504 3.22423C62.6336 2.29869 63.862 1.9453 64.9121 2.33908C66.5646 2.95834 67.0458 4.83635 66.1809 6.2297C66.0227 6.48549 65.841 6.72445 65.6794 6.97686C64.6933 8.48128 64 10.117 63.549 11.857C63.5019 12.0421 63.4548 12.2339 63.411 12.4257C63.586 12.3281 63.761 12.2339 63.9428 12.143C64.8885 10.6285 65.8948 9.16113 67.0425 7.7846C68.2406 6.35086 69.4859 4.96424 70.8759 3.71224C71.9798 2.71603 73.1409 1.80059 74.3761 0.979387C74.9011 0.629366 75.4363 0.296172 75.9916 0C76.6277 0 77.2638 0 77.8999 0C78.1893 0.164914 78.4889 0.319729 78.7379 0.55532C79.9865 1.73664 79.7375 3.77282 78.2701 4.67479C77.0888 5.3984 75.9647 6.19268 74.9146 7.09465C73.9117 7.95624 72.976 8.88851 72.1043 9.88136C71.9293 10.0799 71.761 10.2819 71.5928 10.4804C79.475 10.679 85.2772 16.1649 86.1657 23.2461C86.1691 23.2596 86.1691 23.273 86.1725 23.2865H86.1691C86.1893 23.4312 86.2028 23.5759 86.2028 23.724C86.2028 25.5414 84.7286 27.0156 82.9112 27.0156C81.178 27.0156 79.761 25.6761 79.6331 23.9731C79.0745 19.6584 75.6819 16.2625 71.0677 16.2625C66.0093 16.2625 62.4989 20.2608 62.4989 25.1578V25.2385C62.4989 30.1085 66.053 34.1674 71.0711 34.2112V34.2078H71.2899C75.7055 34.1405 78.9062 31.0172 79.5793 26.9314C79.6096 26.7564 79.8115 26.6723 79.9495 26.7867C80.7371 27.4598 81.7602 27.8704 82.8776 27.8704C83.9916 27.8704 85.0114 27.4632 85.7989 26.7934C85.9638 26.6453 86.2095 26.7631 86.1859 26.9718Z" fill="#DA00FF"/>
</svg>
