<svg width="20" height="20" viewBox="0 0 20 20" fill="none" xmlns="http://www.w3.org/2000/svg">
<path d="M9.19268 3.93246C9.25079 3.99051 9.29689 4.05944 9.32834 4.13532C9.35979 4.21119 9.37598 4.29252 9.37598 4.37465C9.37598 4.45679 9.35979 4.53812 9.32834 4.61399C9.29689 4.68986 9.25079 4.75879 9.19268 4.81684L4.63409 9.37465L16.8755 9.37465C17.0413 9.37465 17.2002 9.4405 17.3174 9.55771C17.4346 9.67492 17.5005 9.83389 17.5005 9.99965C17.5005 10.1654 17.4346 10.3244 17.3174 10.4416C17.2002 10.5588 17.0413 10.6247 16.8755 10.6247L4.63409 10.6247L9.19268 15.1825C9.30996 15.2997 9.37584 15.4588 9.37584 15.6247C9.37584 15.7905 9.30996 15.9496 9.19268 16.0668C9.0754 16.1841 8.91634 16.25 8.75049 16.25C8.58464 16.25 8.42558 16.1841 8.3083 16.0668L2.6833 10.4418C2.62519 10.3838 2.57909 10.3149 2.54764 10.239C2.51619 10.1631 2.5 10.0818 2.5 9.99965C2.5 9.91752 2.51619 9.83619 2.54764 9.76031C2.57909 9.68444 2.62519 9.61551 2.6833 9.55746L8.3083 3.93246C8.36635 3.87435 8.43528 3.82825 8.51115 3.7968C8.58703 3.76535 8.66836 3.74916 8.75049 3.74916C8.83263 3.74916 8.91396 3.76535 8.98983 3.7968C9.0657 3.82825 9.13463 3.87435 9.19268 3.93246Z" fill="#111111"/>
</svg>
