<svg width="30" height="19" viewBox="0 0 30 19" fill="none" xmlns="http://www.w3.org/2000/svg">
<path d="M11.625 0.75L6.375 6.375L26.25 6L23.2895 0.75H11.625Z" fill="#F1D0F6"/>
<path d="M7.03125 13.2617C6.75312 13.2617 6.48124 13.3422 6.24998 13.4929C6.01872 13.6437 5.83848 13.858 5.73205 14.1086C5.62561 14.3593 5.59776 14.6352 5.65202 14.9013C5.70628 15.1675 5.84021 15.4119 6.03688 15.6038C6.23355 15.7957 6.48412 15.9263 6.75691 15.9793C7.02969 16.0322 7.31244 16.005 7.5694 15.9012C7.82636 15.7973 8.04598 15.6215 8.20051 15.3959C8.35503 15.1703 8.4375 14.905 8.4375 14.6337C8.4375 14.2698 8.28934 13.9208 8.02562 13.6636C7.7619 13.4063 7.40421 13.2617 7.03125 13.2617ZM7.03125 15.091C6.93854 15.091 6.84791 15.0642 6.77083 15.0139C6.69374 14.9637 6.63366 14.8922 6.59818 14.8087C6.5627 14.7251 6.55342 14.6332 6.57151 14.5445C6.58959 14.4557 6.63424 14.3743 6.69979 14.3103C6.76535 14.2463 6.84887 14.2028 6.9398 14.1851C7.03073 14.1675 7.12498 14.1766 7.21063 14.2112C7.29629 14.2458 7.3695 14.3044 7.421 14.3796C7.47251 14.4548 7.5 14.5432 7.5 14.6337C7.5 14.755 7.45061 14.8713 7.36271 14.957C7.2748 15.0428 7.15557 15.091 7.03125 15.091Z" fill="#111111"/>
<path d="M22.9688 13.2617C22.6906 13.2617 22.4187 13.3422 22.1875 13.4929C21.9562 13.6437 21.776 13.858 21.6695 14.1086C21.5631 14.3593 21.5353 14.6352 21.5895 14.9013C21.6438 15.1675 21.7777 15.4119 21.9744 15.6038C22.171 15.7957 22.4216 15.9263 22.6944 15.9793C22.9672 16.0322 23.2499 16.005 23.5069 15.9012C23.7639 15.7973 23.9835 15.6215 24.138 15.3959C24.2925 15.1703 24.375 14.905 24.375 14.6337C24.375 14.2698 24.2268 13.9208 23.9631 13.6636C23.6994 13.4063 23.3417 13.2617 22.9688 13.2617ZM22.9688 15.091C22.876 15.091 22.7854 15.0642 22.7083 15.0139C22.6312 14.9637 22.5712 14.8922 22.5357 14.8087C22.5002 14.7251 22.4909 14.6332 22.509 14.5445C22.5271 14.4557 22.5717 14.3743 22.6373 14.3103C22.7028 14.2463 22.7864 14.2028 22.8773 14.1851C22.9682 14.1675 23.0625 14.1766 23.1481 14.2112C23.2338 14.2458 23.307 14.3044 23.3585 14.3796C23.41 14.4548 23.4375 14.5432 23.4375 14.6337C23.4375 14.755 23.3881 14.8713 23.3002 14.957C23.2123 15.0428 23.0931 15.091 22.9688 15.091Z" fill="#111111"/>
<path fill-rule="evenodd" clip-rule="evenodd" d="M26.0719 5.94484H27.6562C28.0289 5.94593 28.3859 6.09082 28.6494 6.34788C28.9129 6.60493 29.0614 6.95326 29.0625 7.31679V13.7192C29.0614 14.0828 28.9129 14.4311 28.6494 14.6881C28.3859 14.9452 28.0289 15.0901 27.6562 15.0912H26.2125C26.1004 15.8526 25.7107 16.549 25.1149 17.0527C24.5191 17.5565 23.7572 17.8338 22.9688 17.8338C22.1803 17.8338 21.4184 17.5565 20.8226 17.0527C20.2268 16.549 19.8371 15.8526 19.725 15.0912H10.275C10.1629 15.8526 9.77325 16.549 9.17745 17.0527C8.58165 17.5565 7.81966 17.8338 7.03125 17.8338C6.24284 17.8338 5.48085 17.5565 4.88505 17.0527C4.28925 16.549 3.89958 15.8526 3.7875 15.0912H2.34375C1.97113 15.0901 1.61409 14.9452 1.35061 14.6881C1.08713 14.4311 0.938613 14.0828 0.9375 13.7192V10.0607C0.939236 8.96962 1.38427 7.92373 2.17506 7.15222C2.96585 6.38071 4.0379 5.94654 5.15625 5.94484H5.87344L9.85781 1.28021C10.0777 1.02269 10.3529 0.815465 10.6639 0.673215C10.975 0.530965 11.3143 0.457164 11.6578 0.457039H13.125V0.457039H20.3906V0.457039H21.8109C22.2461 0.455947 22.6729 0.573557 23.0431 0.796591C23.4134 1.01962 23.7123 1.3392 23.9062 1.71923L26.0719 5.94484ZM22.55 1.57646C22.328 1.44232 22.0721 1.37139 21.8109 1.37167H17.3438V5.94484H25.0219L23.0672 2.13082C22.9511 1.90262 22.772 1.71061 22.55 1.57646ZM8.4375 5.94484V4.37167L7.09219 5.94484H8.4375ZM2.34375 11.4326H1.875V12.3473H2.34375C2.46807 12.3473 2.5873 12.2991 2.67521 12.2133C2.76311 12.1276 2.8125 12.0113 2.8125 11.89C2.8125 11.7687 2.76311 11.6524 2.67521 11.5666C2.5873 11.4808 2.46807 11.4326 2.34375 11.4326ZM5.72913 16.5351C6.11456 16.7863 6.5677 16.9205 7.03125 16.9205C7.65285 16.9205 8.24899 16.6795 8.68853 16.2507C9.12807 15.8219 9.375 15.2403 9.375 14.6339C9.375 14.1816 9.23754 13.7395 8.98001 13.3635C8.72247 12.9875 8.35643 12.6944 7.92816 12.5213C7.4999 12.3483 7.02865 12.303 6.57401 12.3912C6.11936 12.4794 5.70175 12.6972 5.37397 13.017C5.04619 13.3368 4.82297 13.7442 4.73253 14.1878C4.6421 14.6313 4.68851 15.0911 4.86591 15.5089C5.0433 15.9267 5.3437 16.2838 5.72913 16.5351ZM10.275 14.1765H16.4062V6.85948H5.15625C4.28631 6.86045 3.45229 7.19803 2.83715 7.79816C2.22201 8.3983 1.87599 9.21198 1.875 10.0607V10.518H2.34375C2.71671 10.518 3.0744 10.6626 3.33812 10.9198C3.60184 11.1771 3.75 11.5261 3.75 11.89C3.75 12.2538 3.60184 12.6028 3.33812 12.8601C3.0744 13.1174 2.71671 13.2619 2.34375 13.2619H1.875V13.7192C1.875 13.8405 1.92439 13.9568 2.01229 14.0426C2.1002 14.1284 2.21943 14.1765 2.34375 14.1765H3.7875C3.89958 13.4152 4.28925 12.7188 4.88505 12.215C5.48085 11.7112 6.24284 11.4339 7.03125 11.4339C7.81966 11.4339 8.58165 11.7112 9.17745 12.215C9.77325 12.7188 10.1629 13.4152 10.275 14.1765ZM9.375 5.94484H16.4062V1.37167H11.6578C11.4519 1.37113 11.2483 1.41515 11.0619 1.50055C10.8755 1.58595 10.7108 1.71062 10.5797 1.86558L9.375 3.27411V5.94484ZM21.6666 16.5351C22.0521 16.7863 22.5052 16.9205 22.9688 16.9205C23.5904 16.9205 24.1865 16.6795 24.626 16.2507C25.0656 15.8219 25.3125 15.2403 25.3125 14.6339C25.3125 14.1816 25.175 13.7395 24.9175 13.3635C24.66 12.9875 24.2939 12.6944 23.8657 12.5213C23.4374 12.3483 22.9662 12.303 22.5115 12.3912C22.0569 12.4794 21.6392 12.6972 21.3115 13.017C20.9837 13.3368 20.7605 13.7442 20.67 14.1878C20.5796 14.6313 20.626 15.0911 20.8034 15.5089C20.9808 15.9267 21.2812 16.2838 21.6666 16.5351ZM27.6562 12.3473H28.125V11.4326H27.6562C27.5319 11.4326 27.4127 11.4808 27.3248 11.5666C27.2369 11.6524 27.1875 11.7687 27.1875 11.89C27.1875 12.0113 27.2369 12.1276 27.3248 12.2133C27.4127 12.2991 27.5319 12.3473 27.6562 12.3473ZM27.6562 10.518H28.125V7.31679C28.125 7.19551 28.0756 7.07919 27.9877 6.99342C27.8998 6.90766 27.7806 6.85948 27.6562 6.85948H17.3438V14.1765H19.725C19.8371 13.4152 20.2268 12.7188 20.8226 12.215C21.4184 11.7112 22.1803 11.4339 22.9688 11.4339C23.7572 11.4339 24.5191 11.7112 25.1149 12.215C25.7107 12.7188 26.1004 13.4152 26.2125 14.1765H27.6562C27.7806 14.1765 27.8998 14.1284 27.9877 14.0426C28.0756 13.9568 28.125 13.8405 28.125 13.7192V13.2619H27.6562C27.2833 13.2619 26.9256 13.1174 26.6619 12.8601C26.3982 12.6028 26.25 12.2538 26.25 11.89C26.25 11.5261 26.3982 11.1771 26.6619 10.9198C26.9256 10.6626 27.2833 10.518 27.6562 10.518Z" fill="#111111"/>
<path d="M13.125 8.69002H15C15.1243 8.69002 15.2435 8.64184 15.3315 8.55608C15.4194 8.47032 15.4688 8.354 15.4688 8.23271C15.4688 8.11142 15.4194 7.9951 15.3315 7.90934C15.2435 7.82357 15.1243 7.77539 15 7.77539H13.125C13.0007 7.77539 12.8815 7.82357 12.7935 7.90934C12.7056 7.9951 12.6562 8.11142 12.6562 8.23271C12.6562 8.354 12.7056 8.47032 12.7935 8.55608C12.8815 8.64184 13.0007 8.69002 13.125 8.69002Z" fill="#111111"/>
</svg>
