<svg width="108" height="89" viewBox="0 0 108 89" fill="none" xmlns="http://www.w3.org/2000/svg">
<g clip-path="url(#clip0_2055_964)">
<path d="M14.0719 21.8407C14.713 23.6897 15.3889 25.5045 15.8458 27.2443C16.4105 29.3961 17.2809 31.2355 17.609 33.4606C18.4119 38.8788 18.5554 44.3746 18.0364 49.8275C17.5155 55.2846 16.3309 60.7186 16.7007 66.1859C17.0704 71.6531 19.3369 77.383 24.0607 80.1495C27.9612 82.4345 32.8164 82.3168 37.2581 81.4833C41.6998 80.6498 46.0464 79.1699 50.5624 78.9463C55.9113 78.682 61.1705 80.1939 66.3169 81.678C71.4634 83.1622 76.7359 84.6463 82.079 84.3247C87.4221 84.0032 92.9532 81.5293 95.5222 76.8266C97.6556 72.9211 97.4505 68.1525 96.5811 63.7853C95.7118 59.418 94.235 55.1438 93.9983 50.6969C93.7018 45.1151 95.3736 39.6377 97.0439 34.3043C98.7141 28.9708 100.419 23.5094 100.19 17.9245C99.9612 12.3396 97.404 6.50691 92.46 3.90838C88.6093 1.88445 83.9421 2.10434 79.7275 3.18024C75.5129 4.25613 71.5355 6.11903 67.3455 7.28695C60.9167 9.06948 54.1405 9.18419 47.6552 7.62026C43.2381 6.55024 39.0427 4.71517 34.6796 3.44132C30.3164 2.16747 25.6188 1.465 21.2455 2.70408C16.8722 3.94316 12.9268 7.49721 12.337 12.01C11.9149 15.242 12.9439 18.5943 14.0719 21.8407Z" fill="#CBE6E4"/>
<path d="M22.7315 6.20726L0.167969 13.1621L12.9761 54.8241L35.5395 47.8693L22.7315 6.20726Z" fill="#3876BF"/>
<path d="M12.9762 54.9909C12.9403 54.9912 12.9054 54.9799 12.8765 54.9587C12.8476 54.9375 12.8264 54.9075 12.8159 54.8732L0.0079969 13.2117C0.00123257 13.1906 -0.00127889 13.1684 0.000609136 13.1464C0.00249716 13.1244 0.00874684 13.103 0.0189933 13.0834C0.0292398 13.0638 0.0432778 13.0465 0.0602877 13.0324C0.0772976 13.0183 0.0969386 13.0078 0.118064 13.0014L22.6813 6.0463C22.7022 6.03993 22.7241 6.03773 22.7459 6.03984C22.7676 6.04195 22.7887 6.04833 22.8079 6.05861C22.8273 6.0687 22.8445 6.08255 22.8584 6.09936C22.8724 6.11618 22.8828 6.13561 22.8892 6.15651L35.6986 47.8196C35.7115 47.862 35.7072 47.9077 35.6869 47.947C35.6662 47.9861 35.6308 48.0153 35.5886 48.0283L13.0253 54.9834C13.0094 54.9885 12.9928 54.991 12.9762 54.9909ZM0.374532 13.2732L13.0857 54.6158L35.3316 47.7587L22.6199 6.41546L0.374532 13.2732Z" fill="black"/>
<path d="M29.8975 46.9981L17.1511 50.9272C17.049 50.5948 16.8825 50.2858 16.661 50.0178C16.4396 49.7499 16.1677 49.5282 15.8607 49.3655C15.5537 49.2029 15.2177 49.1024 14.8719 49.0698C14.5261 49.0372 14.1772 49.0732 13.8453 49.1756L4.06055 17.3438C4.731 17.137 5.292 16.6721 5.62015 16.0513C5.94831 15.4304 6.01674 14.7045 5.8104 14.0331L18.5563 10.1035C18.7627 10.7748 19.227 11.3366 19.8471 11.6652C20.4671 11.9937 21.1921 12.0623 21.8626 11.8557L31.6495 43.6886C30.9789 43.8949 30.4176 44.3594 30.089 44.9801C29.7605 45.6007 29.6916 46.3266 29.8975 46.9981Z" fill="#BDD5F0"/>
<path d="M22.2954 34.963C24.7484 32.5068 24.7484 28.5245 22.2954 26.0682C19.8424 23.612 15.8653 23.612 13.4123 26.0682C10.9593 28.5245 10.9593 32.5068 13.4123 34.963C15.8653 37.4192 19.8424 37.4192 22.2954 34.963Z" fill="#3876BF"/>
<path d="M17.8471 35.1303C16.9944 35.1292 16.1587 34.8913 15.4329 34.4429C14.7072 33.9945 14.1199 33.3533 13.7365 32.5907C13.353 31.828 13.1883 30.9738 13.2608 30.123C13.3333 29.2722 13.6401 28.4583 14.1471 27.7717C14.6541 27.0851 15.3413 26.5528 16.1324 26.2341C16.9235 25.9153 17.7874 25.8225 18.628 25.9661C19.4686 26.1097 20.253 26.4839 20.8938 27.0473C21.5346 27.6106 22.0068 28.3409 22.2578 29.157C22.469 29.8477 22.5155 30.5784 22.3936 31.2904C22.2716 32.0023 21.9847 32.6758 21.5558 33.2566C21.1269 33.8375 20.568 34.3095 19.9239 34.6349C19.2798 34.9603 18.5685 35.13 17.8471 35.1303ZM17.8583 26.2316C17.4301 26.2319 17.0044 26.2965 16.5952 26.4231C15.7873 26.6722 15.0712 27.1555 14.5376 27.8121C14.004 28.4686 13.6768 29.2689 13.5974 30.1116C13.5179 30.9544 13.6899 31.8018 14.0914 32.5467C14.493 33.2916 15.1061 33.9005 15.8533 34.2965C16.6005 34.6925 17.4481 34.8578 18.2891 34.7714C19.1301 34.685 19.9266 34.3509 20.5779 33.8112C21.2292 33.2716 21.7061 32.5507 21.9483 31.7397C22.1904 30.9286 22.187 30.0639 21.9383 29.2549C21.6692 28.3811 21.1281 27.6164 20.3941 27.0724C19.66 26.5285 18.7715 26.2339 17.8583 26.2316Z" fill="black"/>
<path d="M14.985 21.3558C14.9492 21.3561 14.9143 21.3448 14.8854 21.3235C14.8565 21.3023 14.8352 21.2723 14.8247 21.2381L13.2651 16.1582C13.2587 16.1371 13.2565 16.1149 13.2586 16.093C13.2607 16.0711 13.2671 16.0498 13.2775 16.0303C13.2878 16.0109 13.3019 15.9937 13.3189 15.9797C13.3359 15.9657 13.3555 15.9551 13.3765 15.9487C13.3976 15.9423 13.4197 15.9401 13.4416 15.9422C13.4635 15.9443 13.4847 15.9507 13.5042 15.9611C13.5236 15.9715 13.5408 15.9855 13.5548 16.0026C13.5688 16.0196 13.5793 16.0392 13.5857 16.0603L15.1469 21.138C15.1535 21.1589 15.1558 21.181 15.1538 21.2028C15.1518 21.2246 15.1455 21.2459 15.1352 21.2652C15.125 21.2846 15.111 21.3018 15.0942 21.3158C15.0773 21.3298 15.0578 21.3402 15.0369 21.3467C15.0202 21.3523 15.0027 21.3554 14.985 21.3558Z" fill="black"/>
<path d="M22.3583 45.3325C22.3225 45.3328 22.2876 45.3215 22.2587 45.3003C22.2298 45.2791 22.2085 45.2491 22.1981 45.2148L20.6363 40.137C20.6232 40.0945 20.6276 40.0484 20.6485 40.0091C20.6693 39.9698 20.7049 39.9404 20.7474 39.9273C20.7899 39.9142 20.8359 39.9186 20.8752 39.9395C20.9144 39.9604 20.9438 39.996 20.9569 40.0386L22.5181 45.1169C22.5246 45.1378 22.5269 45.1598 22.5249 45.1816C22.5229 45.2034 22.5166 45.2245 22.5064 45.2439C22.4961 45.2632 22.4822 45.2804 22.4653 45.2943C22.4484 45.3082 22.429 45.3186 22.408 45.325C22.392 45.3302 22.3752 45.3327 22.3583 45.3325Z" fill="black"/>
<path d="M32.2184 3.54977L8.87305 7.06836L15.3529 50.1741L38.6983 46.6555L32.2184 3.54977Z" fill="#3876BF"/>
<path d="M15.3488 50.345C15.309 50.3449 15.2705 50.3305 15.2404 50.3044C15.2103 50.2782 15.1905 50.2422 15.1848 50.2027L8.70898 7.09611C8.70564 7.07446 8.7066 7.05237 8.71181 7.0311C8.71702 7.00983 8.72636 6.98979 8.73932 6.97215C8.75228 6.9545 8.76858 6.93959 8.78731 6.92827C8.80603 6.91695 8.8268 6.90944 8.84843 6.90618L32.1918 3.38851C32.2355 3.38206 32.2799 3.39318 32.3155 3.41944C32.351 3.4457 32.3747 3.48497 32.3814 3.52868L38.8594 46.6347C38.8658 46.6784 38.8546 46.7228 38.8284 46.7583C38.8029 46.7936 38.7645 46.8172 38.7215 46.8241L15.3739 50.3418C15.3656 50.3434 15.3572 50.3445 15.3488 50.345ZM9.06055 7.21113L15.4888 49.9876L38.5051 46.5197L32.0769 3.74589L9.06055 7.21113Z" fill="black"/>
<path d="M33.2464 44.9577L20.0581 46.9447C19.9537 46.2501 19.578 45.6255 19.0137 45.2082C18.4494 44.7909 17.7426 44.6152 17.0489 44.7196L12.0996 11.7846C12.7924 11.6795 13.4153 11.3035 13.8316 10.7391C14.2479 10.1748 14.4236 9.46807 14.3202 8.77412L27.508 6.78711C27.5597 7.13103 27.6785 7.46138 27.8577 7.75931C28.0369 8.05723 28.273 8.31689 28.5524 8.52346C28.8319 8.73004 29.1492 8.87947 29.4863 8.96324C29.8234 9.047 30.1737 9.06346 30.5172 9.01167L35.4681 41.9445C35.1246 41.9963 34.7947 42.1153 34.4971 42.2948C34.1996 42.4742 33.9403 42.7106 33.734 42.9904C33.5277 43.2702 33.3784 43.5879 33.2948 43.9255C33.2111 44.263 33.1947 44.6138 33.2464 44.9577Z" fill="#BDD5F0"/>
<path d="M28.2251 31.3126C30.6781 28.8564 30.6781 24.8741 28.2251 22.4179C25.7721 19.9616 21.795 19.9616 19.3419 22.4179C16.8889 24.8741 16.8889 28.8564 19.3419 31.3126C21.795 33.7688 25.7721 33.7688 28.2251 31.3126Z" fill="#3876BF"/>
<path d="M23.775 31.4789C22.8933 31.4771 22.0305 31.2221 21.2892 30.7441C20.5478 30.2661 19.959 29.5851 19.5926 28.782C19.2261 27.979 19.0975 27.0875 19.2219 26.2134C19.3463 25.3393 19.7185 24.5193 20.2944 23.8507C20.8703 23.1821 21.6256 22.693 22.4708 22.4414C23.316 22.1897 24.2156 22.1862 25.0627 22.4311C25.9099 22.6761 26.669 23.1593 27.2502 23.8233C27.8313 24.4874 28.21 25.3044 28.3412 26.1775C28.439 26.8347 28.394 27.5053 28.2094 28.1436C28.0247 28.7818 27.7048 29.3727 27.2714 29.8759C26.838 30.3791 26.3013 30.7828 25.6979 31.0594C25.0945 31.336 24.4387 31.4791 23.775 31.4789ZM23.7937 22.5828C23.5779 22.5828 23.3623 22.5991 23.1488 22.6315C22.3128 22.7573 21.5328 23.1285 20.9075 23.6982C20.2821 24.2679 19.8396 25.0105 19.6358 25.8321C19.4319 26.6537 19.476 27.5173 19.7624 28.3138C20.0488 29.1103 20.5646 29.8039 21.2447 30.3068C21.9247 30.8097 22.7385 31.0994 23.583 31.1393C24.4275 31.1791 25.2648 30.9673 25.9891 30.5306C26.7133 30.094 27.292 29.452 27.6519 28.686C28.0118 27.92 28.1368 27.0644 28.011 26.2272C27.8592 25.2151 27.3502 24.2909 26.5763 23.6223C25.8024 22.9536 24.8148 22.5849 23.7927 22.5828H23.7937Z" fill="black"/>
<path d="M22.3342 17.3811C22.2943 17.381 22.2558 17.3666 22.2257 17.3405C22.1956 17.3144 22.1759 17.2783 22.1701 17.2388L21.3788 11.9845C21.3756 11.9629 21.3766 11.9408 21.3818 11.9195C21.3871 11.8983 21.3965 11.8783 21.4094 11.8607C21.4224 11.8431 21.4387 11.8282 21.4575 11.8169C21.4762 11.8056 21.4969 11.7981 21.5185 11.7948C21.5401 11.7916 21.5622 11.7926 21.5834 11.7979C21.6046 11.8031 21.6246 11.8125 21.6422 11.8255C21.6598 11.8385 21.6746 11.8548 21.6859 11.8736C21.6972 11.8923 21.7047 11.9131 21.708 11.9347L22.4977 17.189C22.5041 17.2327 22.493 17.2772 22.4667 17.3127C22.4405 17.3482 22.4013 17.3718 22.3577 17.3784C22.3499 17.3798 22.342 17.3807 22.3342 17.3811Z" fill="black"/>
<path d="M26.0611 42.1892C26.0213 42.1891 25.9829 42.1747 25.9528 42.1487C25.9227 42.1227 25.9029 42.0868 25.897 42.0474L25.1073 36.7931C25.1007 36.7494 25.1118 36.7049 25.138 36.6693C25.1642 36.6337 25.2034 36.61 25.2471 36.6034C25.2907 36.5968 25.3352 36.6079 25.3707 36.6341C25.4062 36.6603 25.4299 36.6996 25.4365 36.7433L26.2262 41.9976C26.2326 42.0414 26.2215 42.0859 26.1953 42.1215C26.1691 42.1571 26.1298 42.1808 26.0862 42.1876C26.0779 42.1886 26.0695 42.1892 26.0611 42.1892Z" fill="black"/>
<path d="M31.0869 43.8438H12.8066V86.311H31.0869V43.8438Z" fill="#9AD5D1"/>
<path d="M16.8544 43.8438H14.4121V86.311H16.8544V43.8438Z" fill="white"/>
<path d="M31.0867 44.0094H12.807C12.7843 44.0106 12.7617 44.0073 12.7404 43.9995C12.7191 43.9917 12.6996 43.9796 12.6831 43.964C12.6666 43.9484 12.6534 43.9296 12.6445 43.9088C12.6355 43.8879 12.6309 43.8654 12.6309 43.8427C12.6309 43.82 12.6355 43.7975 12.6445 43.7766C12.6534 43.7558 12.6666 43.737 12.6831 43.7214C12.6996 43.7058 12.7191 43.6937 12.7404 43.6859C12.7617 43.6781 12.7843 43.6748 12.807 43.676H31.0867C31.1094 43.6748 31.132 43.6781 31.1533 43.6859C31.1747 43.6937 31.1941 43.7058 31.2106 43.7214C31.2271 43.737 31.2403 43.7558 31.2492 43.7766C31.2582 43.7975 31.2628 43.82 31.2628 43.8427C31.2628 43.8654 31.2582 43.8879 31.2492 43.9088C31.2403 43.9296 31.2271 43.9484 31.2106 43.964C31.1941 43.9796 31.1747 43.9917 31.1533 43.9995C31.132 44.0073 31.1094 44.0106 31.0867 44.0094Z" fill="black"/>
<path d="M31.0867 47.8707H12.807C12.7843 47.872 12.7617 47.8686 12.7404 47.8608C12.7191 47.853 12.6996 47.841 12.6831 47.8254C12.6666 47.8098 12.6534 47.7909 12.6445 47.7701C12.6355 47.7492 12.6309 47.7268 12.6309 47.704C12.6309 47.6813 12.6355 47.6588 12.6445 47.638C12.6534 47.6171 12.6666 47.5983 12.6831 47.5827C12.6996 47.5671 12.7191 47.555 12.7404 47.5472C12.7617 47.5395 12.7843 47.5361 12.807 47.5374H31.0867C31.1094 47.5361 31.132 47.5395 31.1533 47.5472C31.1747 47.555 31.1941 47.5671 31.2106 47.5827C31.2271 47.5983 31.2403 47.6171 31.2492 47.638C31.2582 47.6588 31.2628 47.6813 31.2628 47.704C31.2628 47.7268 31.2582 47.7492 31.2492 47.7701C31.2403 47.7909 31.2271 47.8098 31.2106 47.8254C31.1941 47.841 31.1747 47.853 31.1533 47.8608C31.132 47.8686 31.1094 47.872 31.0867 47.8707Z" fill="black"/>
<path d="M31.0867 51.732H12.807C12.7843 51.7333 12.7617 51.7299 12.7404 51.7221C12.7191 51.7144 12.6996 51.7023 12.6831 51.6867C12.6666 51.6711 12.6534 51.6523 12.6445 51.6314C12.6355 51.6106 12.6309 51.5881 12.6309 51.5654C12.6309 51.5426 12.6355 51.5202 12.6445 51.4993C12.6534 51.4784 12.6666 51.4596 12.6831 51.444C12.6996 51.4284 12.7191 51.4164 12.7404 51.4086C12.7617 51.4008 12.7843 51.3974 12.807 51.3987H31.0867C31.1094 51.3974 31.132 51.4008 31.1533 51.4086C31.1747 51.4164 31.1941 51.4284 31.2106 51.444C31.2271 51.4596 31.2403 51.4784 31.2492 51.4993C31.2582 51.5202 31.2628 51.5426 31.2628 51.5654C31.2628 51.5881 31.2582 51.6106 31.2492 51.6314C31.2403 51.6523 31.2271 51.6711 31.2106 51.6867C31.1941 51.7023 31.1747 51.7144 31.1533 51.7221C31.132 51.7299 31.1094 51.7333 31.0867 51.732Z" fill="black"/>
<path d="M31.087 55.5917H12.8073C12.7631 55.5917 12.7207 55.5741 12.6895 55.5428C12.6582 55.5115 12.6406 55.469 12.6406 55.4247C12.6406 55.3805 12.6582 55.338 12.6895 55.3067C12.7207 55.2754 12.7631 55.2578 12.8073 55.2578H31.087C31.1313 55.2578 31.1737 55.2754 31.2049 55.3067C31.2362 55.338 31.2537 55.3805 31.2537 55.4247C31.2537 55.469 31.2362 55.5115 31.2049 55.5428C31.1737 55.5741 31.1313 55.5917 31.087 55.5917Z" fill="black"/>
<path d="M31.0867 59.4527H12.807C12.7843 59.454 12.7617 59.4506 12.7404 59.4428C12.7191 59.4351 12.6996 59.423 12.6831 59.4074C12.6666 59.3918 12.6534 59.373 12.6445 59.3521C12.6355 59.3313 12.6309 59.3088 12.6309 59.2861C12.6309 59.2633 12.6355 59.2409 12.6445 59.22C12.6534 59.1991 12.6666 59.1803 12.6831 59.1647C12.6996 59.1491 12.7191 59.1371 12.7404 59.1293C12.7617 59.1215 12.7843 59.1181 12.807 59.1194H31.0867C31.1094 59.1181 31.132 59.1215 31.1533 59.1293C31.1747 59.1371 31.1941 59.1491 31.2106 59.1647C31.2271 59.1803 31.2403 59.1991 31.2492 59.22C31.2582 59.2409 31.2628 59.2633 31.2628 59.2861C31.2628 59.3088 31.2582 59.3313 31.2492 59.3521C31.2403 59.373 31.2271 59.3918 31.2106 59.4074C31.1941 59.423 31.1747 59.4351 31.1533 59.4428C31.132 59.4506 31.1094 59.454 31.0867 59.4527Z" fill="black"/>
<path d="M31.0867 63.3141H12.807C12.7843 63.3153 12.7617 63.312 12.7404 63.3042C12.7191 63.2964 12.6996 63.2843 12.6831 63.2687C12.6666 63.2531 12.6534 63.2343 12.6445 63.2134C12.6355 63.1926 12.6309 63.1701 12.6309 63.1474C12.6309 63.1247 12.6355 63.1022 12.6445 63.0813C12.6534 63.0605 12.6666 63.0417 12.6831 63.0261C12.6996 63.0105 12.7191 62.9984 12.7404 62.9906C12.7617 62.9828 12.7843 62.9795 12.807 62.9807H31.0867C31.1094 62.9795 31.132 62.9828 31.1533 62.9906C31.1747 62.9984 31.1941 63.0105 31.2106 63.0261C31.2271 63.0417 31.2403 63.0605 31.2492 63.0813C31.2582 63.1022 31.2628 63.1247 31.2628 63.1474C31.2628 63.1701 31.2582 63.1926 31.2492 63.2134C31.2403 63.2343 31.2271 63.2531 31.2106 63.2687C31.1941 63.2843 31.1747 63.2964 31.1533 63.3042C31.132 63.312 31.1094 63.3153 31.0867 63.3141Z" fill="black"/>
<path d="M31.0867 67.1734H12.807C12.7843 67.1747 12.7617 67.1714 12.7404 67.1636C12.7191 67.1558 12.6996 67.1437 12.6831 67.1281C12.6666 67.1125 12.6534 67.0937 12.6445 67.0728C12.6355 67.052 12.6309 67.0295 12.6309 67.0068C12.6309 66.984 12.6355 66.9616 12.6445 66.9407C12.6534 66.9199 12.6666 66.901 12.6831 66.8854C12.6996 66.8698 12.7191 66.8578 12.7404 66.85C12.7617 66.8422 12.7843 66.8388 12.807 66.8401H31.0867C31.1094 66.8388 31.132 66.8422 31.1533 66.85C31.1747 66.8578 31.1941 66.8698 31.2106 66.8854C31.2271 66.901 31.2403 66.9199 31.2492 66.9407C31.2582 66.9616 31.2628 66.984 31.2628 67.0068C31.2628 67.0295 31.2582 67.052 31.2492 67.0728C31.2403 67.0937 31.2271 67.1125 31.2106 67.1281C31.1941 67.1437 31.1747 67.1558 31.1533 67.1636C31.132 67.1714 31.1094 67.1747 31.0867 67.1734Z" fill="black"/>
<path d="M31.0867 71.0347H12.807C12.7843 71.036 12.7617 71.0327 12.7404 71.0249C12.7191 71.0171 12.6996 71.005 12.6831 70.9894C12.6666 70.9738 12.6534 70.955 12.6445 70.9341C12.6355 70.9133 12.6309 70.8908 12.6309 70.8681C12.6309 70.8454 12.6355 70.8229 12.6445 70.802C12.6534 70.7812 12.6666 70.7624 12.6831 70.7468C12.6996 70.7312 12.7191 70.7191 12.7404 70.7113C12.7617 70.7035 12.7843 70.7002 12.807 70.7014H31.0867C31.1094 70.7002 31.132 70.7035 31.1533 70.7113C31.1747 70.7191 31.1941 70.7312 31.2106 70.7468C31.2271 70.7624 31.2403 70.7812 31.2492 70.802C31.2582 70.8229 31.2628 70.8454 31.2628 70.8681C31.2628 70.8908 31.2582 70.9133 31.2492 70.9341C31.2403 70.955 31.2271 70.9738 31.2106 70.9894C31.1941 71.005 31.1747 71.0171 31.1533 71.0249C31.132 71.0327 31.1094 71.036 31.0867 71.0347Z" fill="black"/>
<path d="M31.0867 74.8961H12.807C12.7843 74.8974 12.7617 74.894 12.7404 74.8862C12.7191 74.8784 12.6996 74.8663 12.6831 74.8507C12.6666 74.8351 12.6534 74.8163 12.6445 74.7955C12.6355 74.7746 12.6309 74.7521 12.6309 74.7294C12.6309 74.7067 12.6355 74.6842 12.6445 74.6634C12.6534 74.6425 12.6666 74.6237 12.6831 74.6081C12.6996 74.5925 12.7191 74.5804 12.7404 74.5726C12.7617 74.5648 12.7843 74.5615 12.807 74.5628H31.0867C31.1094 74.5615 31.132 74.5648 31.1533 74.5726C31.1747 74.5804 31.1941 74.5925 31.2106 74.6081C31.2271 74.6237 31.2403 74.6425 31.2492 74.6634C31.2582 74.6842 31.2628 74.7067 31.2628 74.7294C31.2628 74.7521 31.2582 74.7746 31.2492 74.7955C31.2403 74.8163 31.2271 74.8351 31.2106 74.8507C31.1941 74.8663 31.1747 74.8784 31.1533 74.8862C31.132 74.894 31.1094 74.8974 31.0867 74.8961Z" fill="black"/>
<path d="M31.0867 78.7555H12.807C12.7843 78.7567 12.7617 78.7534 12.7404 78.7456C12.7191 78.7378 12.6996 78.7257 12.6831 78.7101C12.6666 78.6945 12.6534 78.6757 12.6445 78.6549C12.6355 78.634 12.6309 78.6115 12.6309 78.5888C12.6309 78.5661 12.6355 78.5436 12.6445 78.5227C12.6534 78.5019 12.6666 78.4831 12.6831 78.4675C12.6996 78.4519 12.7191 78.4398 12.7404 78.432C12.7617 78.4242 12.7843 78.4209 12.807 78.4221H31.0867C31.1094 78.4209 31.132 78.4242 31.1533 78.432C31.1747 78.4398 31.1941 78.4519 31.2106 78.4675C31.2271 78.4831 31.2403 78.5019 31.2492 78.5227C31.2582 78.5436 31.2628 78.5661 31.2628 78.5888C31.2628 78.6115 31.2582 78.634 31.2492 78.6549C31.2403 78.6757 31.2271 78.6945 31.2106 78.7101C31.1941 78.7257 31.1747 78.7378 31.1533 78.7456C31.132 78.7534 31.1094 78.7567 31.0867 78.7555Z" fill="black"/>
<path d="M31.087 82.617H12.8073C12.7631 82.617 12.7207 82.5995 12.6895 82.5682C12.6582 82.5369 12.6406 82.4944 12.6406 82.4501C12.6406 82.4059 12.6582 82.3634 12.6895 82.3321C12.7207 82.3008 12.7631 82.2832 12.8073 82.2832H31.087C31.1313 82.2832 31.1737 82.3008 31.2049 82.3321C31.2362 82.3634 31.2537 82.4059 31.2537 82.4501C31.2537 82.4944 31.2362 82.5369 31.2049 82.5682C31.1737 82.5995 31.1313 82.617 31.087 82.617Z" fill="black"/>
<path d="M31.0867 86.4781H12.807C12.7843 86.4794 12.7617 86.476 12.7404 86.4682C12.7191 86.4604 12.6996 86.4484 12.6831 86.4328C12.6666 86.4172 12.6534 86.3984 12.6445 86.3775C12.6355 86.3566 12.6309 86.3342 12.6309 86.3115C12.6309 86.2887 12.6355 86.2663 12.6445 86.2454C12.6534 86.2245 12.6666 86.2057 12.6831 86.1901C12.6996 86.1745 12.7191 86.1625 12.7404 86.1547C12.7617 86.1469 12.7843 86.1435 12.807 86.1448H31.0867C31.1094 86.1435 31.132 86.1469 31.1533 86.1547C31.1747 86.1625 31.1941 86.1745 31.2106 86.1901C31.2271 86.2057 31.2403 86.2245 31.2492 86.2454C31.2582 86.2663 31.2628 86.2887 31.2628 86.3115C31.2628 86.3342 31.2582 86.3566 31.2492 86.3775C31.2403 86.3984 31.2271 86.4172 31.2106 86.4328C31.1941 86.4484 31.1747 86.4604 31.1533 86.4682C31.132 86.476 31.1094 86.4794 31.0867 86.4781Z" fill="black"/>
<path d="M20.0654 58.7665C20.0212 58.7665 19.9788 58.749 19.9475 58.7177C19.9163 58.6863 19.8987 58.6439 19.8987 58.5996V56.2525C19.8974 56.2299 19.9008 56.2072 19.9086 56.1858C19.9163 56.1645 19.9284 56.145 19.944 56.1285C19.9596 56.1119 19.9783 56.0988 19.9992 56.0898C20.02 56.0808 20.0425 56.0762 20.0651 56.0762C20.0878 56.0762 20.1103 56.0808 20.1311 56.0898C20.1519 56.0988 20.1707 56.1119 20.1863 56.1285C20.2019 56.145 20.2139 56.1645 20.2217 56.1858C20.2295 56.2072 20.2329 56.2299 20.2316 56.2525V58.5996C20.2316 58.6438 20.2141 58.6862 20.1829 58.7175C20.1518 58.7487 20.1095 58.7664 20.0654 58.7665Z" fill="black"/>
<path d="M21.2158 58.7665C21.1716 58.7665 21.1292 58.749 21.0979 58.7177C21.0667 58.6863 21.0491 58.6439 21.0491 58.5996V56.2525C21.0478 56.2299 21.0512 56.2072 21.0589 56.1858C21.0667 56.1645 21.0788 56.145 21.0944 56.1285C21.1099 56.1119 21.1287 56.0988 21.1496 56.0898C21.1704 56.0808 21.1928 56.0762 21.2155 56.0762C21.2382 56.0762 21.2607 56.0808 21.2815 56.0898C21.3023 56.0988 21.3211 56.1119 21.3367 56.1285C21.3523 56.145 21.3643 56.1645 21.3721 56.1858C21.3799 56.2072 21.3833 56.2299 21.382 56.2525V58.5996C21.382 58.6438 21.3645 58.6862 21.3333 58.7175C21.3022 58.7487 21.2599 58.7664 21.2158 58.7665Z" fill="black"/>
<path d="M22.3662 58.7665C22.322 58.7665 22.2796 58.749 22.2483 58.7177C22.217 58.6863 22.1995 58.6439 22.1995 58.5996V56.2525C22.1982 56.2299 22.2016 56.2072 22.2093 56.1858C22.2171 56.1645 22.2292 56.145 22.2448 56.1285C22.2603 56.1119 22.2791 56.0988 22.3 56.0898C22.3208 56.0808 22.3432 56.0762 22.3659 56.0762C22.3886 56.0762 22.4111 56.0808 22.4319 56.0898C22.4527 56.0988 22.4715 56.1119 22.4871 56.1285C22.5027 56.145 22.5147 56.1645 22.5225 56.1858C22.5303 56.2072 22.5336 56.2299 22.5324 56.2525V58.5996C22.5324 58.6438 22.5149 58.6862 22.4837 58.7175C22.4526 58.7487 22.4103 58.7664 22.3662 58.7665Z" fill="black"/>
<path d="M18.2934 46.3583C18.2715 46.3583 18.2499 46.354 18.2297 46.3456C18.2095 46.3372 18.1911 46.3249 18.1757 46.3094C18.1603 46.2939 18.148 46.2755 18.1397 46.2553C18.1314 46.235 18.1271 46.2133 18.1272 46.1914V43.8443C18.1259 43.8217 18.1293 43.799 18.1371 43.7776C18.1449 43.7563 18.1569 43.7368 18.1725 43.7202C18.1881 43.7037 18.2069 43.6906 18.2277 43.6816C18.2485 43.6726 18.271 43.668 18.2937 43.668C18.3163 43.668 18.3388 43.6726 18.3596 43.6816C18.3805 43.6906 18.3992 43.7037 18.4148 43.7202C18.4304 43.7368 18.4425 43.7563 18.4502 43.7776C18.458 43.799 18.4614 43.8217 18.4601 43.8443V46.1914C18.4601 46.2357 18.4425 46.2781 18.4113 46.3094C18.38 46.3407 18.3376 46.3583 18.2934 46.3583Z" fill="black"/>
<path d="M19.4438 46.3583C19.4219 46.3583 19.4003 46.354 19.3801 46.3456C19.3599 46.3372 19.3415 46.3249 19.3261 46.3094C19.3107 46.2939 19.2984 46.2755 19.2901 46.2553C19.2818 46.235 19.2775 46.2133 19.2776 46.1914V43.8443C19.2763 43.8217 19.2797 43.799 19.2875 43.7776C19.2952 43.7563 19.3073 43.7368 19.3229 43.7202C19.3385 43.7037 19.3572 43.6906 19.3781 43.6816C19.3989 43.6726 19.4214 43.668 19.444 43.668C19.4667 43.668 19.4892 43.6726 19.51 43.6816C19.5309 43.6906 19.5496 43.7037 19.5652 43.7202C19.5808 43.7368 19.5928 43.7563 19.6006 43.7776C19.6084 43.799 19.6118 43.8217 19.6105 43.8443V46.1914C19.6105 46.2357 19.5929 46.2781 19.5617 46.3094C19.5304 46.3407 19.488 46.3583 19.4438 46.3583Z" fill="black"/>
<path d="M20.5942 46.3583C20.5723 46.3583 20.5507 46.354 20.5305 46.3456C20.5103 46.3372 20.4919 46.3249 20.4765 46.3094C20.461 46.2939 20.4488 46.2755 20.4405 46.2553C20.4322 46.235 20.4279 46.2133 20.428 46.1914V43.8443C20.4267 43.8217 20.4301 43.799 20.4379 43.7776C20.4456 43.7563 20.4577 43.7368 20.4733 43.7202C20.4889 43.7037 20.5076 43.6906 20.5285 43.6816C20.5493 43.6726 20.5718 43.668 20.5944 43.668C20.6171 43.668 20.6396 43.6726 20.6604 43.6816C20.6812 43.6906 20.7 43.7037 20.7156 43.7202C20.7312 43.7368 20.7432 43.7563 20.751 43.7776C20.7588 43.799 20.7622 43.8217 20.7609 43.8443V46.1914C20.7609 46.2133 20.7566 46.235 20.7482 46.2553C20.7398 46.2755 20.7275 46.2939 20.712 46.3094C20.6966 46.3249 20.6782 46.3372 20.658 46.3456C20.6377 46.354 20.6161 46.3583 20.5942 46.3583Z" fill="black"/>
<path d="M13.8486 54.872C13.8044 54.872 13.762 54.8544 13.7307 54.8231C13.6995 54.7918 13.6819 54.7494 13.6819 54.7051V52.358C13.6806 52.3353 13.684 52.3126 13.6918 52.2913C13.6995 52.2699 13.7116 52.2504 13.7272 52.2339C13.7428 52.2174 13.7615 52.2043 13.7824 52.1953C13.8032 52.1863 13.8257 52.1816 13.8483 52.1816C13.871 52.1816 13.8935 52.1863 13.9143 52.1953C13.9351 52.2043 13.9539 52.2174 13.9695 52.2339C13.9851 52.2504 13.9971 52.2699 14.0049 52.2913C14.0127 52.3126 14.0161 52.3353 14.0148 52.358V54.7051C14.0148 54.7493 13.9973 54.7916 13.9661 54.8229C13.935 54.8542 13.8927 54.8719 13.8486 54.872Z" fill="black"/>
<path d="M14.999 54.872C14.9548 54.872 14.9124 54.8544 14.8811 54.8231C14.8499 54.7918 14.8323 54.7494 14.8323 54.7051V52.358C14.831 52.3353 14.8344 52.3126 14.8422 52.2913C14.8499 52.2699 14.862 52.2504 14.8776 52.2339C14.8931 52.2174 14.9119 52.2043 14.9328 52.1953C14.9536 52.1863 14.976 52.1816 14.9987 52.1816C15.0214 52.1816 15.0439 52.1863 15.0647 52.1953C15.0855 52.2043 15.1043 52.2174 15.1199 52.2339C15.1355 52.2504 15.1475 52.2699 15.1553 52.2913C15.1631 52.3126 15.1665 52.3353 15.1652 52.358V54.7051C15.1652 54.7493 15.1477 54.7916 15.1165 54.8229C15.0854 54.8542 15.0431 54.8719 14.999 54.872Z" fill="black"/>
<path d="M16.1494 54.872C16.1052 54.872 16.0628 54.8544 16.0315 54.8231C16.0003 54.7918 15.9827 54.7494 15.9827 54.7051V52.358C15.9814 52.3353 15.9848 52.3126 15.9925 52.2913C16.0003 52.2699 16.0124 52.2504 16.028 52.2339C16.0435 52.2174 16.0623 52.2043 16.0832 52.1953C16.104 52.1863 16.1264 52.1816 16.1491 52.1816C16.1718 52.1816 16.1943 52.1863 16.2151 52.1953C16.2359 52.2043 16.2547 52.2174 16.2703 52.2339C16.2859 52.2504 16.2979 52.2699 16.3057 52.2913C16.3135 52.3126 16.3168 52.3353 16.3156 52.358V54.7051C16.3156 54.7493 16.2981 54.7916 16.2669 54.8229C16.2358 54.8542 16.1935 54.8719 16.1494 54.872Z" fill="black"/>
<path d="M15.7038 66.4172C15.6596 66.4172 15.6172 66.3997 15.5859 66.3684C15.5547 66.3371 15.5371 66.2946 15.5371 66.2503V63.9033C15.5371 63.859 15.5547 63.8165 15.5859 63.7852C15.6172 63.7539 15.6596 63.7363 15.7038 63.7363C15.748 63.7363 15.7904 63.7539 15.8217 63.7852C15.853 63.8165 15.8705 63.859 15.8705 63.9033V66.2503C15.8705 66.2946 15.853 66.3371 15.8217 66.3684C15.7904 66.3997 15.748 66.4172 15.7038 66.4172Z" fill="black"/>
<path d="M16.8545 66.4169C16.8103 66.4169 16.7679 66.3993 16.7366 66.368C16.7053 66.3367 16.6878 66.2943 16.6878 66.25V63.9029C16.6865 63.8802 16.6898 63.8575 16.6976 63.8362C16.7054 63.8149 16.7175 63.7954 16.733 63.7788C16.7486 63.7623 16.7674 63.7492 16.7882 63.7402C16.8091 63.7312 16.8315 63.7266 16.8542 63.7266C16.8769 63.7266 16.8993 63.7312 16.9202 63.7402C16.941 63.7492 16.9598 63.7623 16.9754 63.7788C16.991 63.7954 17.003 63.8149 17.0108 63.8362C17.0186 63.8575 17.0219 63.8802 17.0206 63.9029V66.25C17.0206 66.2942 17.0032 66.3366 16.972 66.3679C16.9409 66.3991 16.8986 66.4168 16.8545 66.4169Z" fill="black"/>
<path d="M18.0068 66.4169C17.9626 66.4169 17.9202 66.3993 17.8889 66.368C17.8577 66.3367 17.8401 66.2943 17.8401 66.25V63.9029C17.8388 63.8802 17.8422 63.8575 17.85 63.8362C17.8577 63.8149 17.8698 63.7954 17.8854 63.7788C17.901 63.7623 17.9197 63.7492 17.9406 63.7402C17.9614 63.7312 17.9839 63.7266 18.0065 63.7266C18.0292 63.7266 18.0517 63.7312 18.0725 63.7402C18.0933 63.7492 18.1121 63.7623 18.1277 63.7788C18.1433 63.7954 18.1553 63.8149 18.1631 63.8362C18.1709 63.8575 18.1743 63.8802 18.173 63.9029V66.25C18.173 66.2942 18.1555 66.3366 18.1243 66.3679C18.0932 66.3991 18.0509 66.4168 18.0068 66.4169Z" fill="black"/>
<path d="M84.3516 0.166016H26.2617V87.3149H84.3516V0.166016Z" fill="white"/>
<path d="M84.3517 87.4822H26.2619C26.2178 87.482 26.1755 87.4644 26.1443 87.4331C26.1132 87.4018 26.0957 87.3594 26.0957 87.3153V0.166922C26.0956 0.145027 26.0999 0.123333 26.1082 0.103084C26.1165 0.0828354 26.1287 0.0644299 26.1442 0.0489227C26.1596 0.0334155 26.178 0.0211116 26.1982 0.0127165C26.2184 0.00432128 26.24 -1.13186e-07 26.2619 0L84.3517 0C84.3959 0 84.4383 0.0175864 84.4696 0.0488904C84.5009 0.0801943 84.5184 0.122652 84.5184 0.166922V87.3131C84.5187 87.3352 84.5146 87.3572 84.5064 87.3777C84.4981 87.3982 84.4859 87.4168 84.4704 87.4325C84.4549 87.4483 84.4364 87.4607 84.416 87.4693C84.3957 87.4778 84.3738 87.4822 84.3517 87.4822ZM26.4286 87.1489H84.1872V0.333309H26.4286V87.1489Z" fill="black"/>
<path d="M41.8991 14.2728C41.8168 15.4141 41.3967 16.3113 40.6387 16.9644C39.8807 17.6175 38.8817 17.9449 37.6417 17.9467C36.2857 17.9467 35.219 17.4896 34.4418 16.5755C33.6645 15.6613 33.2757 14.4064 33.2754 12.8106V12.1633C33.2754 11.1446 33.4546 10.2474 33.8129 9.47164C34.1712 8.69588 34.6835 8.10059 35.3496 7.68578C36.0153 7.27026 36.7886 7.0625 37.6695 7.0625C38.8899 7.0625 39.873 7.38992 40.6189 8.04477C41.3648 8.69962 41.7958 9.61858 41.9119 10.8017H39.7341C39.6807 10.1179 39.4906 9.62215 39.164 9.31434C38.8373 9.00654 38.3392 8.85281 37.6695 8.85317C36.9429 8.85317 36.3991 9.11389 36.0383 9.63535C35.6775 10.1568 35.4922 10.9656 35.4826 12.0616V12.8614C35.4826 14.0064 35.6557 14.8429 36.002 15.3712C36.3482 15.8994 36.8943 16.1639 37.6401 16.1646C38.3134 16.1646 38.816 16.0105 39.148 15.7023C39.4799 15.3942 39.67 14.9176 39.7181 14.2728H41.8991Z" fill="#3876BF"/>
<path d="M45.5108 16.0509H50.1389V17.8041H43.334V7.21094H45.5134L45.5108 16.0509Z" fill="#3876BF"/>
<path d="M57.4967 15.6179H53.6753L52.9498 17.8002H50.6309L54.5687 7.20703H56.5884L60.5481 17.8002H58.2303L57.4967 15.6179ZM54.2636 13.8524H56.9084L55.5785 9.88742L54.2636 13.8524Z" fill="#3876BF"/>
<path d="M63.8552 17.8002H61.6758V7.20703H63.8552V17.8002Z" fill="#3876BF"/>
<path d="M68.7223 7.2081L71.4377 14.8903L74.1402 7.2081H77.003V17.8012H74.8161V14.9047L75.0341 9.90721L72.1804 17.8002H70.6843L67.8364 9.91417L68.0544 14.9047V17.8002H65.875V7.20703L68.7223 7.2081Z" fill="#3876BF"/>
<path d="M68.3391 23.0719H52.5824C52.5597 23.0731 52.5371 23.0698 52.5158 23.062C52.4944 23.0542 52.475 23.0421 52.4585 23.0265C52.442 23.0109 52.4288 22.9921 52.4199 22.9713C52.4109 22.9504 52.4062 22.9279 52.4062 22.9052C52.4062 22.8825 52.4109 22.86 52.4199 22.8391C52.4288 22.8183 52.442 22.7995 52.4585 22.7839C52.475 22.7683 52.4944 22.7562 52.5158 22.7484C52.5371 22.7406 52.5597 22.7373 52.5824 22.7385H68.3391C68.3816 22.741 68.4216 22.7596 68.4508 22.7906C68.4801 22.8215 68.4964 22.8626 68.4964 22.9052C68.4964 22.9478 68.4801 22.9889 68.4508 23.0198C68.4216 23.0508 68.3816 23.0694 68.3391 23.0719Z" fill="black"/>
<path d="M49.6595 23.0719H42.2764C42.2339 23.0694 42.1939 23.0508 42.1647 23.0198C42.1354 22.9889 42.1191 22.9478 42.1191 22.9052C42.1191 22.8626 42.1354 22.8215 42.1647 22.7906C42.1939 22.7596 42.2339 22.741 42.2764 22.7385H49.6595C49.6821 22.7373 49.7048 22.7406 49.7261 22.7484C49.7474 22.7562 49.7669 22.7683 49.7834 22.7839C49.7999 22.7995 49.813 22.8183 49.822 22.8391C49.831 22.86 49.8356 22.8825 49.8356 22.9052C49.8356 22.9279 49.831 22.9504 49.822 22.9713C49.813 22.9921 49.7999 23.0109 49.7834 23.0265C49.7669 23.0421 49.7474 23.0542 49.7261 23.062C49.7048 23.0698 49.6821 23.0731 49.6595 23.0719Z" fill="black"/>
<path d="M68.3389 25.191H64.5902C64.5675 25.1923 64.5449 25.1889 64.5236 25.1811C64.5023 25.1733 64.4828 25.1613 64.4663 25.1457C64.4498 25.1301 64.4366 25.1113 64.4277 25.0904C64.4187 25.0695 64.4141 25.0471 64.4141 25.0243C64.4141 25.0016 64.4187 24.9792 64.4277 24.9583C64.4366 24.9374 64.4498 24.9186 64.4663 24.903C64.4828 24.8874 64.5023 24.8754 64.5236 24.8676C64.5449 24.8598 64.5675 24.8564 64.5902 24.8577H68.3389C68.3814 24.8601 68.4214 24.8787 68.4506 24.9097C68.4799 24.9407 68.4962 24.9817 68.4962 25.0243C68.4962 25.067 68.4799 25.108 68.4506 25.139C68.4214 25.17 68.3814 25.1886 68.3389 25.191Z" fill="black"/>
<path d="M59.6462 25.1907H42.2764C42.2339 25.1883 42.1939 25.1697 42.1647 25.1387C42.1354 25.1077 42.1191 25.0667 42.1191 25.0241C42.1191 24.9814 42.1354 24.9404 42.1647 24.9094C42.1939 24.8784 42.2339 24.8598 42.2764 24.8574H59.6462C59.6887 24.8598 59.7287 24.8784 59.7579 24.9094C59.7872 24.9404 59.8035 24.9814 59.8035 25.0241C59.8035 25.0667 59.7872 25.1077 59.7579 25.1387C59.7287 25.1697 59.6887 25.1883 59.6462 25.1907Z" fill="black"/>
<path d="M79.6636 53.6616H32.4875C32.4162 53.6616 32.3478 53.6419 32.2975 53.6068C32.2471 53.5717 32.2188 53.524 32.2188 53.4744C32.2188 53.4247 32.2471 53.3771 32.2975 53.342C32.3478 53.3068 32.4162 53.2871 32.4875 53.2871H79.6636C79.7349 53.2871 79.8033 53.3068 79.8537 53.342C79.904 53.3771 79.9324 53.4247 79.9324 53.4744C79.9324 53.524 79.904 53.5717 79.8537 53.6068C79.8033 53.6419 79.7349 53.6616 79.6636 53.6616Z" fill="black"/>
<path d="M79.6789 61.1508H32.5027C32.4662 61.1521 32.4296 61.1488 32.3953 61.1413C32.3609 61.1338 32.3295 61.1222 32.3029 61.1072C32.2763 61.0922 32.2552 61.0742 32.2407 61.0541C32.2262 61.034 32.2188 61.0124 32.2188 60.9906C32.2188 60.9687 32.2262 60.9471 32.2407 60.9271C32.2552 60.907 32.2763 60.8889 32.3029 60.8739C32.3295 60.8589 32.3609 60.8473 32.3953 60.8398C32.4296 60.8323 32.4662 60.8291 32.5027 60.8303H79.6789C79.7474 60.8327 79.8118 60.8505 79.859 60.8803C79.9061 60.9101 79.9324 60.9496 79.9324 60.9906C79.9324 61.0316 79.9061 61.071 79.859 61.1008C79.8118 61.1306 79.7474 61.1485 79.6789 61.1508Z" fill="black"/>
<path d="M79.6789 68.6945H32.5027C32.4662 68.696 32.4296 68.6922 32.3953 68.6835C32.3609 68.6747 32.3295 68.6612 32.3029 68.6437C32.2763 68.6262 32.2552 68.6051 32.2407 68.5817C32.2262 68.5583 32.2188 68.533 32.2188 68.5076C32.2188 68.4821 32.2262 68.4569 32.2407 68.4335C32.2552 68.4101 32.2763 68.389 32.3029 68.3715C32.3295 68.354 32.3609 68.3404 32.3953 68.3317C32.4296 68.3229 32.4662 68.3192 32.5027 68.3206H79.6789C79.7474 68.3233 79.8118 68.3442 79.859 68.379C79.9061 68.4137 79.9324 68.4597 79.9324 68.5076C79.9324 68.5554 79.9061 68.6014 79.859 68.6362C79.8118 68.6709 79.7474 68.6918 79.6789 68.6945Z" fill="black"/>
<path d="M79.6789 76.184H32.5027C32.4662 76.1853 32.4296 76.182 32.3953 76.1745C32.3609 76.167 32.3295 76.1554 32.3029 76.1404C32.2763 76.1254 32.2552 76.1074 32.2407 76.0873C32.2262 76.0672 32.2188 76.0456 32.2188 76.0238C32.2188 76.0019 32.2262 75.9803 32.2407 75.9603C32.2552 75.9402 32.2763 75.9221 32.3029 75.9071C32.3295 75.8921 32.3609 75.8805 32.3953 75.873C32.4296 75.8655 32.4662 75.8623 32.5027 75.8635H79.6789C79.7474 75.8659 79.8118 75.8838 79.859 75.9135C79.9061 75.9433 79.9324 75.9828 79.9324 76.0238C79.9324 76.0648 79.9061 76.1042 79.859 76.134C79.8118 76.1638 79.7474 76.1817 79.6789 76.184Z" fill="black"/>
<path d="M99.3693 22.5514C99.3252 22.5512 99.283 22.5338 99.2517 22.5028L97.2775 20.5232C97.2479 20.4916 97.2317 20.4497 97.2324 20.4064C97.2331 20.3631 97.2507 20.3217 97.2813 20.2911C97.3118 20.2604 97.3531 20.2429 97.3964 20.2422C97.4397 20.2415 97.4815 20.2577 97.5131 20.2873L99.49 22.2641C99.5132 22.2875 99.529 22.3172 99.5354 22.3496C99.5418 22.3819 99.5384 22.4154 99.5258 22.4459C99.5131 22.4763 99.4918 22.5023 99.4644 22.5206C99.437 22.539 99.4049 22.5487 99.3719 22.5488L99.3693 22.5514Z" fill="black"/>
<path d="M97.395 22.5507C97.351 22.5505 97.3088 22.533 97.2775 22.502C97.262 22.4866 97.2497 22.4682 97.2413 22.4479C97.2328 22.4277 97.2285 22.406 97.2285 22.3841C97.2285 22.3621 97.2328 22.3404 97.2413 22.3202C97.2497 22.2999 97.262 22.2816 97.2775 22.2661L99.2518 20.2892C99.2833 20.2596 99.3252 20.2435 99.3685 20.2442C99.4117 20.2449 99.453 20.2624 99.4836 20.293C99.5142 20.3237 99.5317 20.365 99.5324 20.4083C99.5331 20.4517 99.517 20.4936 99.4874 20.5252L97.5105 22.5047C97.4793 22.5342 97.438 22.5507 97.395 22.5507Z" fill="black"/>
<path d="M90.1313 8.7803C90.1094 8.7803 90.0878 8.77598 90.0676 8.76758C90.0474 8.75919 90.029 8.74688 90.0136 8.73138C89.9982 8.71587 89.9859 8.69746 89.9776 8.67722C89.9693 8.65697 89.965 8.63527 89.9651 8.61338V7.66856C89.9638 7.64588 89.9672 7.62317 89.975 7.60184C89.9828 7.5805 89.9948 7.56098 90.0104 7.54447C90.026 7.52796 90.0447 7.5148 90.0656 7.50581C90.0864 7.49682 90.1089 7.49219 90.1315 7.49219C90.1542 7.49219 90.1767 7.49682 90.1975 7.50581C90.2183 7.5148 90.2371 7.52796 90.2527 7.54447C90.2683 7.56098 90.2804 7.5805 90.2881 7.60184C90.2959 7.62317 90.2993 7.64588 90.298 7.66856V8.61391C90.2978 8.65809 90.2802 8.70041 90.249 8.7316C90.2177 8.76279 90.1754 8.7803 90.1313 8.7803Z" fill="black"/>
<path d="M90.1313 11.2666C90.0872 11.2666 90.0449 11.2491 90.0138 11.2179C89.9826 11.1867 89.9651 11.1444 89.9651 11.1002V10.1549C89.9638 10.1322 89.9672 10.1095 89.975 10.0882C89.9828 10.0668 89.9948 10.0473 90.0104 10.0308C90.026 10.0143 90.0447 10.0011 90.0656 9.99214C90.0864 9.98315 90.1089 9.97852 90.1315 9.97852C90.1542 9.97852 90.1767 9.98315 90.1975 9.99214C90.2183 10.0011 90.2371 10.0143 90.2527 10.0308C90.2683 10.0473 90.2804 10.0668 90.2881 10.0882C90.2959 10.1095 90.2993 10.1322 90.298 10.1549V11.1002C90.2978 11.1444 90.2802 11.1867 90.249 11.2179C90.2177 11.2491 90.1754 11.2666 90.1313 11.2666Z" fill="black"/>
<path d="M91.8443 9.55037H90.9008C90.8781 9.55166 90.8554 9.5483 90.8341 9.54051C90.8128 9.53271 90.7933 9.52065 90.7768 9.50504C90.7603 9.48944 90.7472 9.47064 90.7382 9.44977C90.7292 9.42891 90.7246 9.40644 90.7246 9.38372C90.7246 9.361 90.7292 9.33853 90.7382 9.31766C90.7472 9.2968 90.7603 9.27799 90.7768 9.26239C90.7933 9.24679 90.8128 9.23472 90.8341 9.22693C90.8554 9.21914 90.8781 9.21578 90.9008 9.21706H91.8443C91.867 9.21578 91.8897 9.21914 91.911 9.22693C91.9323 9.23472 91.9518 9.24679 91.9683 9.26239C91.9848 9.27799 91.9979 9.2968 92.0069 9.31766C92.0158 9.33853 92.0205 9.361 92.0205 9.38372C92.0205 9.40644 92.0158 9.42891 92.0069 9.44977C91.9979 9.47064 91.9848 9.48944 91.9683 9.50504C91.9518 9.52065 91.9323 9.53271 91.911 9.54051C91.8897 9.5483 91.867 9.55166 91.8443 9.55037Z" fill="black"/>
<path d="M89.3612 9.55011H88.417C88.3745 9.54769 88.3345 9.52908 88.3053 9.4981C88.2761 9.46711 88.2598 9.42609 88.2598 9.38345C88.2598 9.34082 88.2761 9.2998 88.3053 9.26881C88.3345 9.23782 88.3745 9.21921 88.417 9.2168H89.3612C89.4037 9.21921 89.4436 9.23782 89.4729 9.26881C89.5021 9.2998 89.5184 9.34082 89.5184 9.38345C89.5184 9.42609 89.5021 9.46711 89.4729 9.4981C89.4436 9.52908 89.4037 9.54769 89.3612 9.55011Z" fill="black"/>
<path d="M69.6615 39.7744C66.0549 38.1458 65.5826 35.375 65.5826 35.375L64.7726 35.9325C64.7726 35.9325 65.2801 37.6386 66.0394 38.7027C64.3184 37.7932 64.7726 40.6967 64.7726 40.6967C64.2917 41.3799 65.0397 42.0984 65.0397 42.0984C64.3724 43.9645 66.4326 43.7714 66.7495 43.4049C66.7495 43.4049 67.59 44.0587 69.0919 43.6189C70.5938 43.1791 71.4952 40.6026 69.6615 39.7744Z" fill="white"/>
<path d="M64.8131 40.6435C64.7756 40.643 64.7393 40.6297 64.7102 40.6059C64.6811 40.5821 64.6609 40.5492 64.6528 40.5125C64.4498 39.5864 64.585 38.8844 65.0268 38.5864C65.3234 38.3858 65.8817 38.2852 66.8472 38.9454C66.8665 38.9572 66.8832 38.9728 66.8962 38.9913C66.9093 39.0097 66.9185 39.0306 66.9232 39.0527C66.928 39.0748 66.9282 39.0977 66.9239 39.1199C66.9195 39.1421 66.9107 39.1632 66.898 39.1818C66.8853 39.2005 66.8689 39.2164 66.8499 39.2286C66.8308 39.2408 66.8095 39.2489 66.7872 39.2526C66.7649 39.2562 66.7421 39.2553 66.7202 39.2499C66.6983 39.2444 66.6777 39.2346 66.6597 39.221C66.0255 38.7881 65.5115 38.6608 65.2133 38.8625C64.8975 39.0765 64.8105 39.665 64.9798 40.4408C64.9853 40.4649 64.9852 40.49 64.9797 40.5141C64.9742 40.5383 64.9633 40.5609 64.948 40.5803C64.9326 40.5997 64.9131 40.6154 64.8909 40.6262C64.8686 40.6371 64.8443 40.6428 64.8195 40.643L64.8131 40.6435Z" fill="black"/>
<path d="M69.97 39.2275C69.97 39.2275 68.4024 35.987 65.9248 35.3755C65.8826 35.3707 64.9631 35.1823 65.1821 35.9463C65.1821 35.9463 67.073 38.6069 66.8438 38.9461" stroke="black" stroke-width="0.3" stroke-miterlimit="10" stroke-linecap="round"/>
<path d="M68.1699 43.9116C67.5175 43.9116 66.6482 43.7377 65.9199 42.9914C65.8919 42.9592 65.8773 42.9176 65.879 42.875C65.8808 42.8324 65.8987 42.792 65.9292 42.7623C65.9597 42.7325 66.0004 42.7155 66.043 42.7149C66.0856 42.7142 66.1268 42.7299 66.1582 42.7587C67.3476 43.9774 69.0248 43.467 69.0435 43.4617C69.0847 43.4511 69.1285 43.4567 69.1658 43.4774C69.203 43.4981 69.231 43.5323 69.2438 43.573C69.2567 43.6137 69.2535 43.6577 69.2349 43.6961C69.2163 43.7345 69.1838 43.7644 69.1439 43.7795C68.8272 43.8698 68.4992 43.9143 68.1699 43.9116Z" fill="black"/>
<path d="M65.9194 43.7905C65.764 43.7949 65.6094 43.7673 65.465 43.7095C65.3206 43.6517 65.1896 43.5649 65.08 43.4545C64.7317 43.0912 64.6526 42.4781 64.8903 42.0287C65.1132 41.6114 65.5438 41.4263 66.069 41.5199C66.1116 41.5287 66.149 41.5538 66.1733 41.5898C66.1977 41.6259 66.207 41.67 66.1993 41.7128C66.1917 41.7556 66.1676 41.7937 66.1323 41.8191C66.097 41.8444 66.0532 41.8549 66.0103 41.8484C65.6304 41.7805 65.3365 41.9019 65.1837 42.186C65.0989 42.3524 65.0666 42.5407 65.0909 42.7259C65.1152 42.9111 65.1951 43.0845 65.3199 43.2234C65.6106 43.5267 66.0931 43.5374 66.6776 43.2539C66.6974 43.2429 66.7193 43.236 66.7419 43.2338C66.7644 43.2315 66.7872 43.2339 66.8088 43.2408C66.8305 43.2477 66.8504 43.2589 66.8676 43.2737C66.8847 43.2886 66.8986 43.3068 66.9085 43.3273C66.9184 43.3477 66.924 43.37 66.9249 43.3926C66.9259 43.4153 66.9223 43.438 66.9142 43.4592C66.9062 43.4804 66.8939 43.4998 66.8781 43.5161C66.8623 43.5324 66.8433 43.5453 66.8224 43.554C66.4644 43.7279 66.1652 43.7905 65.9194 43.7905Z" fill="black"/>
<path d="M65.0035 42.3432C64.9767 42.3433 64.9503 42.3369 64.9266 42.3245C64.9029 42.3121 64.8825 42.2941 64.8672 42.2721C64.3783 41.5723 64.2891 40.9073 64.6225 40.4472C64.9661 39.9732 65.697 39.8218 66.4841 40.0614C66.5266 40.0744 66.5622 40.1036 66.5832 40.1429C66.6041 40.1821 66.6086 40.2281 66.5957 40.2706C66.5828 40.3132 66.5536 40.3489 66.5144 40.3699C66.4752 40.3908 66.4293 40.3954 66.3868 40.3824C65.7376 40.185 65.1515 40.2877 64.8907 40.6451C64.6455 40.9827 64.7358 41.507 65.1381 42.0832C65.1557 42.1082 65.166 42.1375 65.168 42.1679C65.1701 42.1983 65.1637 42.2287 65.1496 42.2558C65.1356 42.2829 65.1144 42.3055 65.0883 42.3213C65.0622 42.3371 65.0323 42.3455 65.0019 42.3454L65.0035 42.3432Z" fill="black"/>
<path d="M93.4416 27.6187C93.8123 25.4403 92.864 23.4612 91.3234 23.1983C89.7828 22.9355 88.2334 24.4884 87.8626 26.6669C87.4919 28.8453 88.4403 30.8244 89.9809 31.0873C91.5215 31.3501 93.0709 29.7972 93.4416 27.6187Z" fill="white"/>
<path d="M90.3205 31.2805C90.1572 31.2808 89.9943 31.2629 89.8348 31.227C88.2244 30.8637 87.2761 28.736 87.7211 26.4847C87.9808 25.1713 88.6829 24.0322 89.5912 23.4379C90.1907 23.0468 90.8356 22.9141 91.4565 23.0543C93.0669 23.4181 94.0153 25.5452 93.5707 27.7966C93.311 29.11 92.609 30.249 91.7006 30.8461C91.2561 31.1329 90.7865 31.2805 90.3205 31.2805ZM90.9751 23.3335C90.5727 23.3335 90.164 23.463 89.7745 23.7166C88.9356 24.2634 88.2902 25.3216 88.0476 26.5489C87.6372 28.6247 88.4718 30.577 89.908 30.9012C90.4391 31.021 90.9959 30.9044 91.519 30.5641C92.3578 30.0174 93.0033 28.9591 93.2459 27.7313C93.6562 25.656 92.8216 23.7032 91.3854 23.379C91.2507 23.3487 91.1131 23.3334 90.9751 23.3335Z" fill="black"/>
<path d="M90.2281 26.3244C89.5955 32.2892 96.052 30.5553 94.1761 25.7156C94.9946 22.1819 93.0866 22.4253 92.4951 23.1786C93.1678 19.9054 90.4883 20.3564 90.8131 22.0192C87.8942 18.5107 86.3479 24.9842 90.2281 26.3244Z" fill="black"/>
<path d="M91.0619 27.7912C90.8155 28.5937 90.177 29.0811 89.6363 28.8842C89.0956 28.6873 88.8573 27.8789 89.102 27.078C89.3467 26.2771 89.9863 25.7881 90.527 25.985C91.0677 26.1819 91.3082 26.9908 91.0619 27.7912Z" fill="white"/>
<path d="M89.8834 29.0943C89.7794 29.0944 89.6761 29.0763 89.5783 29.0408C89.5569 29.0339 89.5371 29.0229 89.5201 29.0082C89.5031 28.9935 89.4893 28.9755 89.4794 28.9554C89.4695 28.9352 89.4638 28.9132 89.4626 28.8908C89.4613 28.8683 89.4647 28.8459 89.4723 28.8247C89.48 28.8036 89.4919 28.7843 89.5072 28.7678C89.5225 28.7514 89.541 28.7383 89.5615 28.7291C89.582 28.72 89.6042 28.7152 89.6266 28.7149C89.6491 28.7145 89.6713 28.7188 89.6921 28.7273C89.7743 28.7544 89.8612 28.7645 89.9474 28.7567C90.0335 28.749 90.1173 28.7237 90.1933 28.6823C90.5032 28.5277 90.7677 28.1762 90.9013 27.7418C91.115 27.0383 90.9205 26.3053 90.4706 26.1416C90.3883 26.1145 90.3013 26.1046 90.2151 26.1124C90.1288 26.1202 90.045 26.1456 89.9689 26.1871C89.6595 26.3411 89.395 26.6926 89.2615 27.1271C89.2485 27.1696 89.2192 27.2053 89.18 27.2262C89.1407 27.2471 89.0948 27.2516 89.0523 27.2386C89.0098 27.2256 88.9742 27.1963 88.9533 27.157C88.9324 27.1177 88.9279 27.0717 88.9409 27.0292C89.1012 26.5086 89.4292 26.0822 89.8188 25.8885C89.9349 25.8262 90.0628 25.7886 90.1942 25.7783C90.3257 25.768 90.4578 25.7851 90.5823 25.8286C91.2149 26.0587 91.4938 26.9425 91.2176 27.8402C91.0573 28.3603 90.7292 28.7867 90.3397 28.9803C90.1985 29.0532 90.0423 29.0922 89.8834 29.0943Z" fill="black"/>
<path d="M94.3841 57.5238L84.0575 88.9993H75.25L78.591 86.6196C78.591 86.6196 84.969 61.7814 86.4875 52.9623C86.4875 52.9623 93.9283 48.5523 100.006 48.0938C102.638 49.9663 105.27 86.8678 105.27 86.8678L108.003 88.9966H99.5978L94.3841 57.5238Z" fill="black"/>
<path d="M102.535 48.6392C102.758 49.3759 99.3735 51.0542 94.9762 52.388C90.5788 53.7218 86.8328 54.207 86.61 53.4687C86.3872 52.7304 89.7715 51.0537 94.1694 49.7204C98.5673 48.3872 102.314 47.9025 102.535 48.6392Z" fill="black"/>
<path d="M102.534 48.6404L98.3806 36.7268C98.3806 36.7268 99.5278 34.2942 98.3806 33.3477C97.2335 32.4013 92.0363 30.104 87.1767 33.3477C82.3172 36.5915 79.0777 39.2275 79.0777 39.2275H69.9688C69.9688 39.2275 68.5513 41.3225 69.0915 43.6199C69.0915 43.6199 79.1477 45.3094 80.4974 44.4989C81.847 43.6883 85.3596 41.2546 85.3596 41.2546L86.6114 53.4699C86.6114 53.4699 94.2707 47.5784 102.534 48.6404Z" fill="#E03DFC"/>
<path d="M95.5235 31.8798C95.6838 33.2323 94.1936 34.5217 92.1948 34.7592C90.1959 34.9968 88.4455 34.0921 88.2852 32.7396C88.125 31.3871 89.6151 30.0977 91.614 29.8602C93.6128 29.6226 95.3632 30.5268 95.5235 31.8798Z" fill="#E03DFC"/>
</g>
<defs>
<clipPath id="clip0_2055_964">
<rect width="108" height="89" fill="white"/>
</clipPath>
</defs>
</svg>
