<svg width="33" height="35" viewBox="0 0 33 35" fill="none" xmlns="http://www.w3.org/2000/svg">
<path d="M4.2014 12.7441L0.476562 13.8718V21.6347L4.76834 22.5879L4.2014 12.7441Z" fill="#EFDAFB"/>
<path d="M27.782 12.7441L31.5106 13.8711V21.6339L27.2227 22.5879L27.782 12.7441Z" fill="#EFDAFB"/>
<path d="M31.0249 12.9001L28.2085 12.2949V11.1474C28.2085 9.68347 27.9206 8.23391 27.3611 6.88145C26.8016 5.52899 25.9815 4.30011 24.9477 3.26498C23.9139 2.22986 22.6866 1.40875 21.3358 0.848538C19.9851 0.288331 18.5373 0 17.0753 0H15.1414C13.6791 0.000100398 12.2312 0.28863 10.8802 0.849122C9.52934 1.40961 8.30194 2.23108 7.26815 3.26661C6.23436 4.30213 5.41445 5.53142 4.85522 6.88427C4.296 8.23712 4.00842 9.68704 4.00892 11.1512V12.2987L1.19331 12.9039C0.844729 12.993 0.536769 13.1981 0.320024 13.4856C0.103279 13.7731 -0.00935491 14.1259 0.00060854 14.486V20.8182C-0.00935491 21.1783 0.103279 21.531 0.320024 21.8185C0.536769 22.106 0.844729 22.3112 1.19331 22.4003L4.44979 23.1003C4.53112 23.1178 4.61533 23.1168 4.69624 23.0974C4.77715 23.0781 4.85271 23.0409 4.9174 22.9885C4.98208 22.9361 5.03424 22.8699 5.07007 22.7948C5.1059 22.7196 5.12448 22.6374 5.12446 22.5541V11.1512C5.12446 11.1451 5.12446 11.1389 5.12446 11.1321H14.7968C15.6679 11.1315 16.5234 10.9008 17.277 10.4633C18.0305 10.0258 18.6554 9.397 19.0886 8.64032C19.4572 9.3878 20.0271 10.0172 20.734 10.4575C21.4409 10.8978 22.2567 11.1315 23.0893 11.1321H27.0938C27.0938 11.1382 27.0938 11.1443 27.0938 11.1512V21.3407C27.0939 23.7985 26.2219 26.1763 24.6333 28.05C23.0447 29.9236 20.8429 31.1712 18.4208 31.57C18.2658 31.0037 17.9088 30.5139 17.4173 30.1935C16.9259 29.8731 16.3341 29.7443 15.7541 29.8314C15.1742 29.9186 14.6463 30.2157 14.2704 30.6665C13.8946 31.1173 13.6969 31.6904 13.7149 32.2774C13.7328 32.8643 13.9651 33.4243 14.3677 33.8512C14.7704 34.2782 15.3154 34.5424 15.8996 34.5939C16.4838 34.6454 17.0666 34.4806 17.5376 34.1308C18.0086 33.7809 18.3351 33.2702 18.4552 32.6954C20.8817 32.3279 23.1264 31.1907 24.8593 29.4509C26.5923 27.7111 27.722 25.4604 28.0825 23.0299L31.0234 22.3972C31.372 22.3081 31.6799 22.103 31.8967 21.8155C32.1134 21.528 32.2261 21.1752 32.2161 20.8151V14.4829C32.2263 14.1229 32.114 13.7701 31.8975 13.4825C31.6811 13.1949 31.3733 12.9895 31.0249 12.9001ZM16.1087 33.4857C15.8554 33.4855 15.6077 33.4102 15.3971 33.2691C15.1865 33.1281 15.0224 32.9277 14.9255 32.6933C14.8287 32.4589 14.8034 32.201 14.8528 31.9522C14.9023 31.7034 15.0243 31.4749 15.2034 31.2955C15.3826 31.1161 15.6108 30.994 15.8593 30.9444C16.1078 30.8949 16.3654 30.9202 16.5995 31.0173C16.8336 31.1143 17.0337 31.2786 17.1746 31.4895C17.3154 31.7003 17.3907 31.9483 17.3908 32.2019C17.3906 32.5423 17.2555 32.8688 17.0151 33.1095C16.7747 33.3502 16.4487 33.4855 16.1087 33.4857ZM4.00892 21.8571L1.42712 21.3017C1.32871 21.2654 1.24493 21.1978 1.18862 21.1092C1.1323 21.0206 1.10658 20.9159 1.11539 20.8113V14.4791C1.10658 14.3745 1.1323 14.2698 1.18862 14.1812C1.24493 14.0926 1.32871 14.025 1.42712 13.9887L4.00892 13.4333V21.8617V21.8571ZM23.0893 10.012C22.2024 10.011 21.3522 9.65783 20.725 9.02993C20.0979 8.40203 19.7452 7.5507 19.7442 6.66271V6.17844C19.7442 6.03033 19.6854 5.88827 19.5808 5.78354C19.4762 5.6788 19.3343 5.61996 19.1864 5.61996C19.0385 5.61996 18.8966 5.6788 18.792 5.78354C18.6874 5.88827 18.6286 6.03033 18.6286 6.17844C18.6274 7.19562 18.2233 8.17078 17.505 8.89003C16.7866 9.60928 15.8127 10.0139 14.7968 10.0151H5.18788C5.46688 7.56753 6.63556 5.30831 8.47119 3.66801C10.3068 2.02772 12.6811 1.12104 15.1414 1.12078H17.0753C19.5356 1.12104 21.9099 2.02772 23.7455 3.66801C25.5811 5.30831 26.7498 7.56753 27.0288 10.0151L23.0893 10.012ZM31.1029 20.8113C31.1117 20.9159 31.0859 21.0206 31.0296 21.1092C30.9733 21.1978 30.8895 21.2654 30.7911 21.3017L28.2093 21.8571V13.4341L30.7911 13.9895C30.8895 14.0258 30.9733 14.0934 31.0296 14.182C31.0859 14.2706 31.1117 14.3752 31.1029 14.4799V20.8113Z" fill="#111111"/>
<path d="M19.6165 22.5506C19.6165 22.4025 19.5577 22.2605 19.4531 22.1558C19.3485 22.051 19.2066 21.9922 19.0587 21.9922C18.9108 21.9922 18.7689 22.051 18.6643 22.1558C18.5597 22.2605 18.501 22.4025 18.501 22.5506C18.4034 23.115 18.11 23.6268 17.6724 23.9957C17.2347 24.3646 16.6811 24.5669 16.109 24.5669C15.537 24.5669 14.9833 24.3646 14.5457 23.9957C14.1081 23.6268 13.8146 23.115 13.7171 22.5506C13.7171 22.4773 13.7027 22.4047 13.6746 22.3369C13.6466 22.2692 13.6055 22.2076 13.5537 22.1558C13.5019 22.1039 13.4405 22.0628 13.3728 22.0347C13.3051 22.0066 13.2326 21.9922 13.1593 21.9922C13.0861 21.9922 13.0136 22.0066 12.9459 22.0347C12.8782 22.0628 12.8167 22.1039 12.7649 22.1558C12.7131 22.2076 12.6721 22.2692 12.644 22.3369C12.616 22.4047 12.6016 22.4773 12.6016 22.5506C12.7002 23.4128 13.1121 24.2085 13.7588 24.7861C14.4056 25.3638 15.242 25.683 16.1086 25.683C16.9753 25.683 17.8117 25.3638 18.4584 24.7861C19.1052 24.2085 19.5171 23.4128 19.6157 22.5506H19.6165Z" fill="#111111"/>
<path d="M13.4093 17.426C13.3038 16.8173 12.9871 16.2655 12.515 15.8678C12.0429 15.47 11.4457 15.252 10.8287 15.252C10.2117 15.252 9.6145 15.47 9.14239 15.8678C8.67028 16.2655 8.35356 16.8173 8.24805 17.426C8.24805 17.4993 8.26248 17.572 8.29051 17.6397C8.31854 17.7075 8.35962 17.769 8.41141 17.8209C8.4632 17.8728 8.52471 17.9139 8.59238 17.942C8.66005 17.97 8.73258 17.9845 8.80583 17.9845C8.87907 17.9845 8.9516 17.97 9.01928 17.942C9.08695 17.9139 9.14843 17.8728 9.20022 17.8209C9.25201 17.769 9.29309 17.7075 9.32112 17.6397C9.34915 17.572 9.36358 17.4993 9.36358 17.426C9.36358 16.853 10.0344 16.3679 10.8291 16.3679C11.6237 16.3679 12.2946 16.8522 12.2946 17.426C12.2946 17.4993 12.309 17.572 12.337 17.6397C12.365 17.7075 12.4061 17.769 12.4579 17.8209C12.5097 17.8728 12.5712 17.9139 12.6389 17.942C12.7066 17.97 12.7791 17.9845 12.8523 17.9845C12.9256 17.9845 12.9981 17.97 13.0658 17.942C13.1335 17.9139 13.1949 17.8728 13.2467 17.8209C13.2985 17.769 13.3396 17.7075 13.3677 17.6397C13.3957 17.572 13.4101 17.4993 13.4101 17.426H13.4093Z" fill="#111111"/>
<path d="M19.9253 17.426C19.9253 16.853 20.5962 16.3679 21.3908 16.3679C22.1855 16.3679 22.8563 16.8522 22.8563 17.426C22.8563 17.5741 22.9151 17.7162 23.0197 17.8209C23.1243 17.9256 23.2661 17.9845 23.4141 17.9845C23.562 17.9845 23.7039 17.9256 23.8085 17.8209C23.9131 17.7162 23.9718 17.5741 23.9718 17.426C23.8663 16.8173 23.5496 16.2655 23.0775 15.8678C22.6054 15.47 22.0082 15.252 21.3912 15.252C20.7742 15.252 20.177 15.47 19.7049 15.8678C19.2328 16.2655 18.9161 16.8173 18.8105 17.426C18.8105 17.4993 18.825 17.572 18.853 17.6397C18.881 17.7075 18.9221 17.769 18.9739 17.8209C19.0257 17.8728 19.0872 17.9139 19.1549 17.942C19.2225 17.97 19.2951 17.9845 19.3683 17.9845C19.4416 17.9845 19.5141 17.97 19.5818 17.942C19.6494 17.9139 19.7109 17.8728 19.7627 17.8209C19.8145 17.769 19.8556 17.7075 19.8836 17.6397C19.9117 17.572 19.9253 17.4993 19.9253 17.426Z" fill="#111111"/>
</svg>
