<svg width="35" height="24" viewBox="0 0 35 24" fill="none" xmlns="http://www.w3.org/2000/svg">
<path d="M33.5373 1.06506C32.8563 0.384217 31.933 0.00120814 30.97 0L3.63319 0C2.67012 0.00123468 1.74684 0.384305 1.06577 1.06522C0.384709 1.74614 0.00144093 2.66934 0 3.63241L0 19.7063C0.00123514 20.6695 0.384413 21.5929 1.0655 22.274C1.74659 22.9551 2.66998 23.3383 3.63319 23.3395H30.97C31.9332 23.3383 32.8566 22.9551 33.5377 22.274C34.2188 21.5929 34.6019 20.6695 34.6032 19.7063V3.63241C34.6022 2.66934 34.2184 1.74599 33.5373 1.06506ZM3.63241 1.18798H30.97C31.4569 1.18823 31.9326 1.33399 32.3361 1.60654L21.0476 14.0434C20.5817 14.5794 20.0061 15.0091 19.3599 15.3036C18.7137 15.5981 18.0118 15.7505 17.3016 15.7505C16.5914 15.7505 15.8895 15.5981 15.2433 15.3036C14.597 15.0091 14.0215 14.5794 13.5556 14.0434L2.26627 1.60654C2.66965 1.33377 3.14546 1.18799 3.63241 1.18798ZM30.9739 22.15H3.63241C3.25436 22.1507 2.88138 22.0631 2.54323 21.894L11.5461 13.5976L12.6749 14.8424C13.2523 15.501 13.9636 16.0288 14.7614 16.3904C15.5592 16.7519 16.4249 16.939 17.3008 16.939C18.1767 16.939 19.0425 16.7519 19.8402 16.3904C20.638 16.0288 21.3493 15.501 21.9267 14.8424L23.0556 13.5976L32.0568 21.8948C31.7206 22.063 31.3498 22.1498 30.9739 22.15Z" fill="#EFDAFB"/>
<path d="M33.5373 1.06506C32.8563 0.384217 31.933 0.00120814 30.97 0L3.63319 0C2.67012 0.00123468 1.74684 0.384305 1.06577 1.06522C0.384709 1.74614 0.00144093 2.66934 0 3.63241L0 19.7063C0.00123514 20.6695 0.384413 21.5929 1.0655 22.274C1.74659 22.9551 2.66998 23.3383 3.63319 23.3395H30.97C31.9332 23.3383 32.8566 22.9551 33.5377 22.274C34.2188 21.5929 34.6019 20.6695 34.6032 19.7063V3.63241C34.6022 2.66934 34.2184 1.74599 33.5373 1.06506ZM3.63241 1.18798H30.97C31.4569 1.18823 31.9326 1.33399 32.3361 1.60654L21.0476 14.0434C20.5817 14.5794 20.0061 15.0091 19.3599 15.3036C18.7137 15.5981 18.0118 15.7505 17.3016 15.7505C16.5914 15.7505 15.8895 15.5981 15.2433 15.3036C14.597 15.0091 14.0215 14.5794 13.5556 14.0434L2.26627 1.60654C2.66965 1.33377 3.14546 1.18799 3.63241 1.18798ZM1.18876 19.7063V3.63241C1.18875 3.23626 1.28543 2.84609 1.47039 2.49577L10.7486 12.7185L1.63377 21.116C1.34127 20.7042 1.18437 20.2115 1.18487 19.7063M30.97 22.15H3.63241C3.25436 22.1507 2.88138 22.0631 2.54323 21.894L11.5461 13.5976L12.6749 14.8424C13.2523 15.501 13.9636 16.0288 14.7614 16.3904C15.5592 16.7519 16.4249 16.939 17.3008 16.939C18.1767 16.939 19.0425 16.7519 19.8402 16.3904C20.638 16.0288 21.3493 15.501 21.9267 14.8424L23.0556 13.5976L32.0568 21.8948C31.7206 22.063 31.3498 22.1506 30.9739 22.1508M33.4144 19.7063C33.4147 20.2116 33.2576 20.7043 32.9647 21.116L23.8545 12.7185L33.1328 2.49577C33.3182 2.84622 33.4152 3.2367 33.4152 3.63319L33.4144 19.7063Z" fill="black"/>
</svg>
