<svg width="21" height="24" viewBox="0 0 21 24" fill="none" xmlns="http://www.w3.org/2000/svg">
<g clip-path="url(#clip0_2055_1925)">
<path d="M7.61673 23.1862V17.6947L4.73438 13.0167L4.94026 12.6099L5.96967 12.2031L8.02849 14.8472L8.85202 14.4404H11.1167L11.7344 14.8472L13.5873 12.2031H14.205L14.8226 13.0167L11.9403 17.4913V23.1862L11.1167 23.7963L10.2932 23.1862V19.9319H9.26379V23.1862L8.44026 23.7963L7.61673 23.1862Z" fill="#F1D0F6"/>
<path d="M6.83919 6.68834C6.25169 6.68927 5.6771 6.51983 5.18804 6.20145C4.69899 5.88307 4.31742 5.43005 4.09158 4.89964C3.86574 4.36922 3.80576 3.78524 3.91922 3.2215C4.03268 2.65775 4.31448 2.13956 4.72902 1.73242C5.14355 1.32527 5.67221 1.04746 6.24816 0.934083C6.82411 0.820711 7.4215 0.876871 7.96482 1.09547C8.50814 1.31406 8.973 1.68528 9.30063 2.16219C9.62827 2.63911 9.80399 3.20031 9.80556 3.77487C9.80683 4.5458 9.49511 5.28568 8.9389 5.83198C8.38269 6.37827 7.62748 6.68629 6.83919 6.68834ZM6.83919 1.49138C6.37718 1.49045 5.92528 1.62359 5.54067 1.87395C5.15607 2.1243 4.85606 2.48061 4.6786 2.89778C4.50114 3.31495 4.45422 3.77423 4.54378 4.21749C4.63333 4.66075 4.85533 5.06807 5.18169 5.38789C5.50804 5.70771 5.92408 5.92565 6.37714 6.01414C6.8302 6.10263 7.29992 6.05768 7.72685 5.88498C8.15378 5.71229 8.51872 5.41961 8.7755 5.04399C9.03228 4.66838 9.16934 4.2267 9.16934 3.77487C9.1685 3.17031 8.92289 2.59068 8.48622 2.16275C8.04955 1.73482 7.45736 1.49343 6.83919 1.49138Z" fill="#111111"/>
<path d="M14.2524 5.8114C13.6648 5.8114 13.0903 5.64098 12.6017 5.3217C12.1131 5.00242 11.7323 4.54861 11.5074 4.01766C11.2825 3.48671 11.2237 2.90248 11.3383 2.33883C11.453 1.77518 11.736 1.25743 12.1515 0.85106C12.567 0.444691 13.0964 0.16795 13.6728 0.0558335C14.2491 -0.0562835 14.8465 0.00125899 15.3894 0.221184C15.9323 0.44111 16.3963 0.81354 16.7228 1.29138C17.0493 1.76922 17.2235 2.33101 17.2235 2.9057C17.2227 3.67608 16.9094 4.41468 16.3524 4.95943C15.7954 5.50417 15.0401 5.81057 14.2524 5.8114ZM14.2524 0.622206C13.7906 0.622206 13.3392 0.756131 12.9552 1.00704C12.5712 1.25796 12.2719 1.61459 12.0952 2.03184C11.9185 2.4491 11.8722 2.90823 11.9623 3.35119C12.0524 3.79414 12.2748 4.20102 12.6014 4.52037C12.9279 4.83972 13.3439 5.0572 13.7969 5.14531C14.2498 5.23342 14.7193 5.1882 15.1459 5.01537C15.5726 4.84254 15.9372 4.54986 16.1938 4.17434C16.4504 3.79882 16.5873 3.35733 16.5873 2.9057C16.5865 2.30033 16.3402 1.71999 15.9025 1.29193C15.4648 0.863875 14.8714 0.623029 14.2524 0.622206Z" fill="#111111"/>
<path d="M15.6154 24.0008H11.5388C11.4544 24.0008 11.3735 23.968 11.3139 23.9096C11.2542 23.8513 11.2207 23.7722 11.2207 23.6896C11.2207 23.6071 11.2542 23.528 11.3139 23.4697C11.3735 23.4113 11.4544 23.3785 11.5388 23.3785H15.6154C15.8998 23.3781 16.1725 23.2673 16.3735 23.0705C16.5745 22.8736 16.6874 22.6068 16.6874 22.3286V11.5815C16.6874 11.512 16.7113 11.4445 16.7551 11.3898C16.799 11.3351 16.8603 11.2963 16.9293 11.2797C16.9983 11.263 17.0711 11.2695 17.1359 11.298C17.2007 11.3264 17.2539 11.3754 17.287 11.4369L18.8028 14.2368C18.8496 14.332 18.9151 14.4173 18.9956 14.4877C19.076 14.5581 19.1699 14.6124 19.2718 14.6473C19.3737 14.6823 19.4817 14.6973 19.5895 14.6914C19.6974 14.6856 19.803 14.659 19.9003 14.6132C19.9972 14.5672 20.0838 14.503 20.1553 14.4242C20.2268 14.3455 20.2817 14.2537 20.3168 14.1541C20.352 14.0546 20.3667 13.9492 20.3602 13.8441C20.3537 13.739 20.326 13.6362 20.2789 13.5415L17.0516 7.083C17.0013 6.98211 16.9299 6.89271 16.8419 6.82062C16.7539 6.74853 16.6514 6.69536 16.5411 6.66457H16.5252C16.4364 6.63563 16.3435 6.62092 16.25 6.62101H12.2466C11.7583 6.62101 11.4911 6.98345 11.3527 7.28833L10.5574 8.9465C10.5319 8.99973 10.4914 9.04479 10.4407 9.07645C10.3901 9.10811 10.3313 9.12508 10.2711 9.12539C10.2115 9.1255 10.153 9.10923 10.1024 9.07843C10.0518 9.04763 10.0111 9.00353 9.98482 8.95117L9.61264 8.20452C9.60468 8.18741 9.59832 8.17186 9.59196 8.15475C9.53828 7.97603 9.42713 7.81898 9.27499 7.70691C9.12286 7.59483 8.93784 7.53369 8.74738 7.53254H4.72806C4.59484 7.53293 4.46345 7.56296 4.34385 7.62037C4.22426 7.67777 4.11958 7.76104 4.03777 7.86387L4.01073 7.89342C3.94539 7.95601 3.89158 8.02916 3.85167 8.10964L0.718294 14.3706C0.624615 14.5612 0.611481 14.7802 0.681738 14.9802C0.751995 15.1802 0.899986 15.3451 1.09366 15.4392C1.19025 15.4858 1.29528 15.5133 1.40273 15.5201C1.51019 15.5269 1.61797 15.5129 1.7199 15.479C1.82184 15.445 1.91593 15.3918 1.99679 15.3222C2.07765 15.2527 2.14369 15.1682 2.19114 15.0737L4.15388 10.9516C4.18814 10.8821 4.24754 10.8277 4.32055 10.7986C4.39356 10.7696 4.47499 10.7681 4.54906 10.7945C4.62312 10.8208 4.68456 10.8731 4.72145 10.9412C4.75834 11.0093 4.76807 11.0884 4.74874 11.1631L2.82577 18.1629H4.0664C4.15076 18.1629 4.23168 18.1957 4.29133 18.254C4.35099 18.3124 4.38451 18.3915 4.38451 18.474V22.3255C4.38451 22.6037 4.4974 22.8705 4.6984 23.0674C4.8994 23.2642 5.17207 23.375 5.45654 23.3754H8.11116C8.19553 23.3754 8.27644 23.4082 8.3361 23.4666C8.39575 23.5249 8.42927 23.604 8.42927 23.6865C8.42927 23.769 8.39575 23.8482 8.3361 23.9065C8.27644 23.9649 8.19553 23.9976 8.11116 23.9976H5.45654C5.00346 23.9968 4.56921 23.8203 4.24899 23.5069C3.92877 23.1934 3.74871 22.7686 3.74829 22.3255V18.7882H2.41223C2.36328 18.7884 2.31495 18.7776 2.27099 18.7566C2.22702 18.7355 2.18862 18.7048 2.15876 18.6669C2.12891 18.629 2.1084 18.5848 2.09884 18.5379C2.08929 18.4909 2.09093 18.4425 2.10366 18.3962L3.18046 14.467L2.76056 15.3474C2.59182 15.687 2.29208 15.947 1.92728 16.0704C1.56248 16.1938 1.16249 16.1704 0.815317 16.0054C0.468143 15.8404 0.202219 15.5473 0.0760439 15.1905C-0.0501308 14.8337 -0.0262203 14.4426 0.142515 14.103L3.27749 7.82965C3.34748 7.69158 3.43987 7.56551 3.55106 7.45632C3.6924 7.28391 3.87156 7.14477 4.07529 7.04919C4.27902 6.95361 4.50211 6.90403 4.72806 6.90412H8.73306C9.0562 6.90611 9.37035 7.00842 9.63019 7.19629C9.89004 7.38415 10.0822 7.64787 10.1789 7.94942L10.2504 8.09097L10.7642 7.02389C11.0664 6.36124 11.5897 5.99414 12.237 5.99414H16.2404C16.3988 5.99436 16.556 6.01903 16.7065 6.06725C16.904 6.12094 17.0876 6.21478 17.2455 6.34264C17.4034 6.47049 17.5319 6.62949 17.6226 6.80923L20.8514 13.2693C21.007 13.6068 21.0219 13.9904 20.893 14.3385C20.7641 14.6867 20.5015 14.972 20.1611 15.1339C19.8206 15.2959 19.429 15.3217 19.0694 15.2059C18.7098 15.0901 18.4105 14.8418 18.235 14.5137L17.3236 12.8306V22.3192C17.3247 22.5394 17.2813 22.7577 17.1959 22.9614C17.1106 23.1652 16.985 23.3505 16.8263 23.5067C16.6676 23.6629 16.479 23.7869 16.2712 23.8717C16.0634 23.9565 15.8405 24.0003 15.6154 24.0008Z" fill="#111111"/>
<path d="M9.93518 13.886C9.47054 13.886 9.01634 13.7513 8.63001 13.4988C8.24368 13.2464 7.94257 12.8875 7.76476 12.4677C7.58696 12.0479 7.54043 11.586 7.63108 11.1403C7.72172 10.6946 7.94547 10.2852 8.27401 9.96394C8.60256 9.64263 9.02116 9.42381 9.47686 9.33516C9.93257 9.24651 10.4049 9.29201 10.8342 9.4659C11.2635 9.63979 11.6304 9.93427 11.8885 10.3121C12.1466 10.6899 12.2844 11.1341 12.2844 11.5885C12.2836 12.1976 12.0358 12.7815 11.5954 13.2122C11.155 13.6429 10.558 13.8852 9.93518 13.886ZM9.93518 9.91478C9.59631 9.91478 9.26505 10.0131 8.98331 10.1972C8.70157 10.3814 8.48201 10.6431 8.3524 10.9493C8.22279 11.2555 8.18896 11.5925 8.25519 11.9175C8.32142 12.2425 8.48472 12.541 8.72445 12.7752C8.96418 13.0095 9.26956 13.1689 9.60196 13.2333C9.93436 13.2978 10.2788 13.2644 10.5918 13.1374C10.9048 13.0103 11.1722 12.7954 11.3603 12.5197C11.5483 12.244 11.6485 11.9199 11.6482 11.5885C11.6478 11.1445 11.4671 10.7187 11.1459 10.4049C10.8247 10.0911 10.3892 9.91478 9.93518 9.91478Z" fill="#111111"/>
<path d="M11.1947 24.0006C10.8868 24.0006 10.5913 23.8812 10.3731 23.6687C10.1549 23.4562 10.0317 23.1678 10.0304 22.8666V20.1538H9.62485V22.8666C9.63064 23.0196 9.60482 23.1721 9.54896 23.3151C9.49309 23.4581 9.40832 23.5886 9.29971 23.6988C9.1911 23.809 9.06088 23.8967 8.91684 23.9566C8.77279 24.0164 8.61788 24.0473 8.46137 24.0473C8.30485 24.0473 8.14994 24.0164 8.00589 23.9566C7.86185 23.8967 7.73163 23.809 7.62302 23.6988C7.51441 23.5886 7.42964 23.4581 7.37377 23.3151C7.31791 23.1721 7.2921 23.0196 7.29788 22.8666V17.8236C7.29625 17.8045 7.29625 17.7852 7.29788 17.7661C7.29788 17.7396 7.29788 17.7116 7.29788 17.6836V17.6416L4.71165 13.672C4.54485 13.4211 4.48573 13.1161 4.54709 12.8229C4.60844 12.5298 4.78534 12.272 5.03951 12.1054C5.29368 11.9388 5.6047 11.8768 5.90529 11.9327C6.20588 11.9886 6.47188 12.158 6.64576 12.4042L8.00567 14.3751C8.23765 14.175 8.53619 14.0644 8.84548 14.0639H10.84C11.1418 14.0638 11.4338 14.1685 11.6639 14.3595L13.0143 12.4027C13.0999 12.2783 13.2098 12.1716 13.3376 12.0887C13.4654 12.0058 13.6086 11.9484 13.7591 11.9196C13.9096 11.8909 14.0645 11.8914 14.2148 11.9212C14.365 11.9509 14.5079 12.0094 14.6351 12.0931C14.7623 12.1769 14.8714 12.2843 14.9561 12.4093C15.0409 12.5343 15.0996 12.6744 15.129 12.8215C15.1584 12.9687 15.1579 13.1201 15.1274 13.2671C15.097 13.4141 15.0372 13.5538 14.9516 13.6782L12.3574 17.665V17.6805C12.3574 17.7085 12.3574 17.7365 12.3574 17.763C12.3574 17.7785 12.3574 17.7987 12.3574 17.819V22.8666C12.3562 23.1675 12.2331 23.4557 12.0153 23.6682C11.7974 23.8806 11.5024 24.0002 11.1947 24.0006ZM9.30674 19.5316H10.3486C10.4329 19.5316 10.5138 19.5644 10.5735 19.6227C10.6331 19.681 10.6667 19.7602 10.6667 19.8427V22.8666C10.6627 22.9367 10.6734 23.0068 10.6982 23.0728C10.7229 23.1387 10.7611 23.199 10.8104 23.2499C10.8598 23.3009 10.9192 23.3415 10.9852 23.3693C11.0511 23.397 11.1221 23.4114 11.1939 23.4114C11.2657 23.4114 11.3367 23.397 11.4027 23.3693C11.4686 23.3415 11.5281 23.3009 11.5774 23.2499C11.6268 23.199 11.665 23.1387 11.6897 23.0728C11.7144 23.0068 11.7251 22.9367 11.7212 22.8666V17.8361C11.7212 17.8205 11.7212 17.8065 11.7212 17.7925C11.7196 17.7817 11.7196 17.7707 11.7212 17.7598V17.721C11.722 17.7075 11.722 17.694 11.7212 17.6805V17.5779C11.7197 17.5173 11.7369 17.4576 11.7705 17.4067L14.4108 13.3375C14.4553 13.2819 14.4876 13.218 14.5059 13.1497C14.5241 13.0813 14.5278 13.0101 14.5167 12.9403C14.5057 12.8705 14.4801 12.8037 14.4416 12.744C14.4031 12.6842 14.3525 12.6329 14.2929 12.593C14.2333 12.5532 14.166 12.5257 14.0951 12.5123C14.0243 12.4989 13.9513 12.4998 13.8808 12.5151C13.8103 12.5303 13.7438 12.5596 13.6853 12.601C13.6268 12.6424 13.5776 12.695 13.5408 12.7558L11.9502 15.0564C11.9196 15.1011 11.8776 15.1373 11.8283 15.1614C11.7791 15.1855 11.7243 15.1966 11.6693 15.1938C11.6143 15.191 11.5611 15.1743 11.5147 15.1453C11.4683 15.1163 11.4304 15.076 11.4047 15.0284C11.351 14.9264 11.2696 14.8409 11.1694 14.7813C11.0692 14.7218 10.9541 14.6904 10.8368 14.6908H8.84548C8.72621 14.6914 8.60942 14.7242 8.50807 14.7857C8.40672 14.8472 8.32476 14.935 8.2713 15.0393C8.24672 15.0881 8.20946 15.1298 8.16324 15.1602C8.11702 15.1906 8.06346 15.2085 8.00791 15.2123C7.95236 15.2161 7.89677 15.2056 7.84669 15.1817C7.79662 15.1579 7.75381 15.1217 7.72256 15.0766L6.11769 12.7558C6.07898 12.6994 6.02927 12.6511 5.9714 12.6137C5.91353 12.5762 5.84866 12.5503 5.78052 12.5374C5.71237 12.5245 5.6423 12.525 5.57432 12.5387C5.50635 12.5524 5.44182 12.5791 5.38445 12.6173C5.32701 12.6551 5.27787 12.7038 5.2399 12.7604C5.20194 12.817 5.17592 12.8805 5.16337 12.9471C5.13906 13.0812 5.16993 13.2193 5.24925 13.3313L7.88956 17.3756C7.92264 17.4257 7.9403 17.484 7.94046 17.5436V17.6758C7.93963 17.6893 7.93963 17.7028 7.94046 17.7163V17.7552C7.94205 17.766 7.94205 17.777 7.94046 17.7878C7.94125 17.8024 7.94125 17.8169 7.94046 17.8314V22.8666C7.93652 22.9367 7.94724 23.0068 7.97196 23.0728C7.99668 23.1387 8.03488 23.199 8.08423 23.2499C8.13357 23.3009 8.19303 23.3415 8.25897 23.3693C8.32491 23.397 8.39594 23.4114 8.46773 23.4114C8.53951 23.4114 8.61055 23.397 8.67648 23.3693C8.74242 23.3415 8.80188 23.3009 8.85123 23.2499C8.90058 23.199 8.93878 23.1387 8.9635 23.0728C8.98822 23.0068 8.99893 22.9367 8.99499 22.8666V19.8427C8.99498 19.7612 9.02762 19.683 9.08591 19.6249C9.14419 19.5667 9.22348 19.5332 9.30674 19.5316Z" fill="#111111"/>
</g>
<defs>
<clipPath id="clip0_2055_1925">
<rect width="21" height="24" fill="white"/>
</clipPath>
</defs>
</svg>
