<svg width="19" height="29" viewBox="0 0 19 29" fill="none" xmlns="http://www.w3.org/2000/svg">
<path d="M7.5 1.49805L10 1.99805L11.5 1.49805L14 1.99805L15 3.99805L14.5 5.99805L13 8.49805L10 9.49805L6.5 6.49805L5.5 3.49805L7.5 1.49805Z" fill="#F1D0F6"/>
<path d="M5.1081 8.20313C3.79466 8.20349 2.72992 9.26877 2.73047 10.5824C2.73083 11.896 3.79629 12.9606 5.10974 12.9602H5.11155C6.42518 12.9597 7.48973 11.8946 7.48919 10.5809C7.48883 9.26713 6.42355 8.20276 5.10992 8.20313H5.1081ZM6.44606 10.5806C6.44479 11.3173 5.84752 11.914 5.11083 11.9145H5.10974C4.37377 11.9147 3.77669 11.3182 3.77651 10.582C3.77632 9.84607 4.37287 9.24898 5.10901 9.2488H5.10992C5.84607 9.2488 6.44352 9.84443 6.44606 10.5806Z" fill="#111111"/>
<path d="M15.418 14.706H15.416L12.958 14.7078C12.4017 14.7091 11.8568 14.865 11.3839 15.1575C11.0364 14.6073 10.4311 14.2732 9.7803 14.2729H9.77903C9.38963 14.2723 9.00966 14.3923 8.69142 14.6165C8.12266 13.9101 7.26488 13.499 6.3579 13.498H6.35554L3.89785 13.4999C2.24311 13.5037 0.902613 14.8442 0.898438 16.4989L0.89989 19.6426C0.89989 19.9313 1.1339 20.1655 1.42273 20.1655H1.42291L2.24982 20.1649L2.66011 27.574C2.67554 27.851 2.905 28.0678 3.18258 28.0678H7.10694C7.38215 28.0678 7.61035 27.8544 7.62869 27.5798L7.85561 24.1739H7.87322L8.25355 27.6027C8.28296 27.8673 8.50662 28.0678 8.77312 28.0678H10.8173C11.0852 28.0678 11.3096 27.8653 11.3374 27.599L11.5583 25.4663L11.721 27.5849C11.7418 27.8574 11.9691 28.0678 12.2424 28.0678H16.1667C16.4443 28.0678 16.6738 27.851 16.6892 27.574L17.0708 20.7644L17.8986 20.7637C18.1873 20.7635 18.4211 20.5295 18.4211 20.2408L18.4196 17.7009C18.4156 16.046 17.0731 14.7066 15.418 14.706ZM9.77994 15.3185H9.78067C10.249 15.3185 10.6294 15.6974 10.6308 16.166C10.6303 16.6347 10.2499 17.0145 9.78121 17.0139H9.78067C9.31229 17.0141 8.93251 16.6347 8.93251 16.1667C8.93233 15.6983 9.31175 15.3185 9.77994 15.3184V15.3185ZM11.2212 23.1244C10.9534 23.1246 10.7289 23.327 10.7014 23.5931L10.3458 27.0221H9.24113L8.86062 23.593C8.83139 23.3281 8.60755 23.1279 8.34105 23.1279H8.34069L7.55825 23.1282L7.55734 21.7919C7.5617 20.7315 8.42111 19.8732 9.48149 19.8703L10.0768 19.8685H10.078C11.1388 19.8687 11.9993 20.7266 12.0024 21.7874L12.0036 23.1235L11.2212 23.1244ZM16.5759 19.7191C16.2985 19.7194 16.0696 19.9362 16.0542 20.2129L15.6726 27.0221H12.7265L12.5076 24.1692H12.527C12.816 24.1692 13.0502 23.9348 13.0498 23.6458L13.0486 21.7866C13.0442 20.1488 11.7152 18.823 10.0771 18.8228H10.0751L9.47985 18.8246C7.84236 18.8288 6.51603 20.1551 6.51203 21.7926L6.5133 23.652C6.51312 23.8533 6.62913 24.0367 6.81103 24.1225L6.61751 27.0221H3.67691L3.26663 19.6125C3.2512 19.3357 3.02228 19.1187 2.7447 19.1187H2.74434L1.94556 19.1194L1.94447 16.4984C1.94865 15.4213 2.8215 14.5492 3.89876 14.5455L6.35645 14.5439H6.35809C7.00782 14.545 7.61489 14.8683 7.97833 15.4069C7.99213 15.4269 8.00466 15.448 8.01755 15.4687C7.78681 16.052 7.85997 16.7122 8.2127 17.2312C8.5658 17.7501 9.1529 18.0605 9.78067 18.0602H9.78194C10.7997 18.0603 11.6356 17.2559 11.6747 16.2389C11.6954 16.2208 11.7163 16.2026 11.7377 16.1858C12.0828 15.9053 12.5141 15.7528 12.9589 15.7537L15.4168 15.7519H15.418C16.496 15.7519 17.3705 16.6238 17.374 17.7018L17.3749 19.7189L16.5759 19.7191Z" fill="#111111"/>
<path d="M12.4859 10.1096C11.8051 10.7902 11.6018 11.8139 11.9709 12.7027C12.3397 13.5919 13.2084 14.1707 14.1708 14.1692H14.1726C15.0367 14.1685 15.8328 13.7003 16.2536 12.9456H16.4319C17.2506 12.9404 17.912 12.2752 17.912 11.4563C17.912 10.6375 17.2506 9.97217 16.4319 9.96708H15.6979C15.2698 9.60818 14.7294 9.41157 14.1708 9.41212H14.1689C13.5376 9.41066 12.9314 9.66192 12.4859 10.1096ZM16.8754 11.4563C16.8752 11.6552 16.7423 11.8297 16.5504 11.8832C16.5517 11.8517 16.5526 11.8204 16.5526 11.7888C16.5524 11.5245 16.5081 11.2622 16.4213 11.0128H16.4319C16.6767 11.0129 16.8752 11.2115 16.8754 11.4564V11.4563ZM14.1708 10.4582C14.9073 10.4582 15.5047 11.054 15.5069 11.7899C15.5065 12.527 14.9087 13.1241 14.172 13.1239H14.1708C13.4346 13.1239 12.8372 12.5283 12.8346 11.7917C12.8352 11.0551 13.4328 10.4578 14.1699 10.4582H14.1708Z" fill="#111111"/>
<path d="M15.4043 3.49427C15.0871 1.92195 13.9392 0.90605 12.4805 0.90605C11.7985 0.90605 11.0723 1.14151 10.3621 1.59046C9.64379 1.12063 8.92562 0.882812 8.22324 0.882812C6.75494 0.882812 5.61123 1.91033 5.30988 3.49917C4.88943 5.69091 6.19198 8.58721 10.0495 10.1178C10.0584 10.1214 10.0675 10.1247 10.0766 10.1276C10.2578 10.1944 10.4573 10.1944 10.6388 10.1276C10.649 10.1241 10.6593 10.1205 10.6693 10.1163C14.5249 8.55435 15.8262 5.66677 15.405 3.49808L15.4043 3.49427ZM10.3567 9.11458C7.11511 7.79842 6.00027 5.4511 6.33721 3.69524C6.54381 2.60545 7.26652 1.92849 8.22324 1.92849C8.78765 1.92849 9.41759 2.17574 10.045 2.64376C10.2284 2.78064 10.4796 2.78245 10.6648 2.64811C11.2924 2.19245 11.9205 1.95172 12.4805 1.95172C13.4333 1.95172 14.1607 2.62124 14.3787 3.69923C14.8431 6.09702 12.7058 8.13644 10.3567 9.11458Z" fill="#111111"/>
</svg>
