<svg width="20" height="20" viewBox="0 0 20 20" fill="none" xmlns="http://www.w3.org/2000/svg">
<circle cx="9.71429" cy="9.71429" r="9.71429" fill="#FF0000"/>
<path d="M12.4561 13H7.77832V12.3213L9.6875 10.3828C10.0423 10.0247 10.3402 9.70573 10.5811 9.42578C10.8252 9.14583 11.0107 8.87077 11.1377 8.60059C11.2646 8.32715 11.3281 8.02767 11.3281 7.70215C11.3281 7.2985 11.2077 6.99089 10.9668 6.7793C10.7292 6.56445 10.415 6.45703 10.0244 6.45703C9.68262 6.45703 9.37988 6.51562 9.11621 6.63281C8.85254 6.75 8.58236 6.91602 8.30566 7.13086L7.87109 6.58398C8.0599 6.42448 8.26497 6.28288 8.48633 6.15918C8.71094 6.03548 8.9502 5.93783 9.2041 5.86621C9.46126 5.7946 9.7347 5.75879 10.0244 5.75879C10.4639 5.75879 10.8431 5.83529 11.1621 5.98828C11.4811 6.14128 11.7269 6.35938 11.8994 6.64258C12.0752 6.92578 12.1631 7.2627 12.1631 7.65332C12.1631 8.03092 12.0882 8.38249 11.9385 8.70801C11.7887 9.03027 11.5788 9.35091 11.3086 9.66992C11.0384 9.98568 10.7227 10.321 10.3613 10.6758L8.80859 12.2236V12.2578H12.4561V13Z" fill="white"/>
</svg>
