<svg width="101" height="119" viewBox="0 0 101 119" fill="none" xmlns="http://www.w3.org/2000/svg">
  <path
    d="M101.26 80.14C98.75 101.85 80.63 118.84 56.35 118.84L56.36 118.33L56.35 118.85C38.18 118.85 23.57 109.45 16.33 95.63C16.3 95.59 16.26 95.55 16.23 95.5C15.62 94.43 14.99 93.37 14.42 92.28C9.22 82.35 5.42001 71.91 2.93001 60.98C1.96001 56.74 1.24001 52.45 0.650009 48.14C0.390009 46.25 0.160002 44.36 0.0800018 42.45C0.0700018 42.31 0.03 42.17 0 42.03C0 38.46 0 34.89 0 31.33C0.07 31.11 0.140012 30.89 0.200012 30.67C1.07001 27.46 4.13001 25.07 7.45001 25.01C11.7 24.93 15.32 28.41 15.31 32.67C15.3 37.11 15.33 41.54 15.96 45.95C16.15 47.28 16.34 48.62 16.64 49.94C16.7 48.78 16.71 47.62 16.77 46.47C16.89 43.78 17.17 41.11 17.58 38.45C18.31 33.66 19.51 28.99 21.22 24.45C23.22 19.13 25.87 14.15 29.25 9.57999C31.28 6.82999 34.93 5.77998 38.05 6.94998C42.96 8.78998 44.39 14.37 41.82 18.51C41.35 19.27 40.81 19.98 40.33 20.73C37.4 25.2 35.34 30.06 34 35.23C33.86 35.78 33.72 36.35 33.59 36.92C34.11 36.63 34.63 36.35 35.17 36.08C37.98 31.58 40.97 27.22 44.38 23.13C47.94 18.87 51.64 14.75 55.77 11.03C59.05 8.07 62.5 5.35 66.17 2.91C67.73 1.87 69.32 0.88 70.97 0C72.86 0 74.75 0 76.64 0C77.5 0.49 78.39 0.949994 79.13 1.64999C82.84 5.15999 82.1 11.21 77.74 13.89C74.23 16.04 70.89 18.4 67.77 21.08C64.79 23.64 62.01 26.41 59.42 29.36C58.9 29.95 58.4 30.55 57.9 31.14C81.32 31.73 98.56 48.03 101.2 69.07C101.21 69.11 101.21 69.15 101.22 69.19H101.21C101.27 69.62 101.31 70.05 101.31 70.49C101.31 75.89 96.93 80.27 91.53 80.27C86.38 80.27 82.17 76.29 81.79 71.23C80.13 58.41 70.05 48.32 56.34 48.32C41.31 48.32 30.88 60.2 30.88 74.75V74.99C30.88 89.46 41.44 101.52 56.35 101.65V101.64H57C70.12 101.44 79.63 92.16 81.63 80.02C81.72 79.5 82.32 79.25 82.73 79.59C85.07 81.59 88.11 82.81 91.43 82.81C94.74 82.81 97.77 81.6 100.11 79.61C100.6 79.17 101.33 79.52 101.26 80.14Z"
    fill="#DA00FF" />
</svg>